<?xml version="1.0" encoding="utf-8"?>
<!-- Generator: Adobe Illustrator 27.6.0, SVG Export Plug-In . SVG Version: 6.00 Build 0)  -->
<svg version="1.1" id="a" xmlns="http://www.w3.org/2000/svg" xmlns:xlink="http://www.w3.org/1999/xlink" x="0px" y="0px"
	 viewBox="0 0 477.8 336.8" style="enable-background:new 0 0 477.8 336.8;" xml:space="preserve">
<style type="text/css">
	.st0{fill:#FFFFFF;}
	.st1{fill:none;stroke:#000000;stroke-width:0.8;stroke-linejoin:round;}
	.st2{clip-path:url(#SVGID_00000023981415220882725280000010109706036649870004_);}
	.st3{fill:none;stroke:#B0B0B0;stroke-width:0.8;stroke-linejoin:round;stroke-dasharray:0,0,2.96,1.28;}
	.st4{clip-path:url(#SVGID_00000098917689989491037970000003717472965465148293_);}
	.st5{clip-path:url(#SVGID_00000003794359566112443080000000973134629015851441_);}
	.st6{clip-path:url(#SVGID_00000052089086600031639470000012277827810429568422_);}
	.st7{clip-path:url(#SVGID_00000024697238390511071520000012505097384999314056_);}
	.st8{clip-path:url(#SVGID_00000147915949115221150620000007311465193867934094_);}
	.st9{clip-path:url(#SVGID_00000097464947933320892240000012633681722693390243_);}
	.st10{clip-path:url(#SVGID_00000015315227455840450560000017066590669546768799_);}
	.st11{clip-path:url(#SVGID_00000132799198864520038300000003150514151033549990_);}
	.st12{clip-path:url(#SVGID_00000127033080867827196620000007035384392233840052_);}
	.st13{fill:#FFAC74;}
	.st14{clip-path:url(#SVGID_00000014593557224890115300000016541219348229870501_);}
	.st15{fill:#47789E;}
	.st16{clip-path:url(#SVGID_00000095329328678065486940000010941329376223089843_);}
	.st17{clip-path:url(#SVGID_00000033357926172348620510000006943387604893179302_);}
	.st18{clip-path:url(#SVGID_00000016059109234226730220000004348273470929859258_);}
	.st19{clip-path:url(#SVGID_00000044141255451453967510000004549332113935628175_);}
	.st20{clip-path:url(#SVGID_00000039838228580398978560000015349769276181423744_);}
	.st21{clip-path:url(#SVGID_00000111891206825761646850000003624506290348756396_);}
	.st22{clip-path:url(#SVGID_00000047769076341292087940000015261112076134918826_);}
	.st23{clip-path:url(#SVGID_00000103225724736748932790000007140864086157320633_);}
	.st24{clip-path:url(#SVGID_00000129200662985491005500000016748930485270997409_);}
	.st25{clip-path:url(#SVGID_00000085968679545173850070000014779708783441717669_);}
	.st26{clip-path:url(#SVGID_00000129927168861064258790000005671011741351476379_);}
	.st27{clip-path:url(#SVGID_00000167372146846215836040000005628579552376596912_);}
	.st28{clip-path:url(#SVGID_00000142178415157529180110000012027682635051226801_);}
	.st29{clip-path:url(#SVGID_00000005229900874993518440000011498203556309601409_);}
	.st30{clip-path:url(#SVGID_00000144337774189263271630000000262523620612346030_);}
	.st31{fill:none;stroke:#000000;stroke-width:1.5;stroke-linejoin:round;}
	.st32{clip-path:url(#SVGID_00000091736771744102251630000002266971325528319877_);}
	.st33{fill:none;stroke:#000000;stroke-linejoin:round;stroke-dasharray:0,0,0,0,6.4,1.6;}
	.st34{clip-path:url(#SVGID_00000013180042270582469240000017831583111160992641_);}
	.st35{clip-path:url(#SVGID_00000161599791273605269920000007161650583153133204_);}
	.st36{fill:none;}
	.st37{fill:none;stroke:#000000;stroke-linejoin:round;}
	.st38{clip-path:url(#SVGID_00000168824569225619371090000009159110866934521485_);}
	.st39{clip-path:url(#SVGID_00000057113776808308058080000003530520240915211432_);}
	.st40{clip-path:url(#SVGID_00000132051097596657675950000016480021503533121940_);}
	.st41{clip-path:url(#SVGID_00000165203597655785777970000004949590282906256539_);}
	.st42{clip-path:url(#SVGID_00000044174871943557516320000009251671892808329369_);}
	.st43{clip-path:url(#SVGID_00000024681718760208716990000010304437110390499251_);}
	.st44{clip-path:url(#SVGID_00000083809142229973568110000015875119081743369090_);}
	.st45{clip-path:url(#SVGID_00000036225635415282822560000004456217118358122671_);}
	.st46{clip-path:url(#SVGID_00000047060141383999154670000015728500839063124901_);}
	.st47{clip-path:url(#SVGID_00000148663068138249185370000011036449039971903914_);}
	.st48{clip-path:url(#SVGID_00000057827213227078221690000016806530696343990684_);}
	.st49{clip-path:url(#SVGID_00000084529078466481951930000016644407549185827261_);}
	.st50{clip-path:url(#SVGID_00000137132528956480428160000007537510237884596403_);}
	.st51{clip-path:url(#SVGID_00000114059139901165932180000014811406477573257602_);}
	.st52{clip-path:url(#SVGID_00000164494871400458238910000016272311545843860412_);}
	.st53{fill:none;stroke:#000000;stroke-width:0.8;stroke-linecap:square;stroke-miterlimit:10;}
	.st54{fill:none;stroke:#FFAC74;stroke-linejoin:round;}
	.st55{fill:none;stroke:#47789E;stroke-linejoin:round;}
</style>
<rect class="st0" width="476.8" height="336.8"/>
<rect x="50.1" y="11" class="st0" width="418.8" height="279.5"/>
<line class="st1" x1="80.4" y1="290.5" x2="80.4" y2="294"/>
<path d="M58.6,304.1v-2H57v-0.8h2.6v3.1c-0.4,0.3-0.8,0.5-1.3,0.6c-0.5,0.1-1,0.2-1.5,0.2c-1.1,0-2-0.3-2.7-1s-1-1.6-1-2.8
	s0.3-2.1,1-2.8s1.5-1,2.7-1c0.5,0,0.9,0.1,1.3,0.2s0.8,0.3,1.2,0.5v1c-0.4-0.3-0.8-0.5-1.2-0.7s-0.8-0.2-1.3-0.2
	c-0.9,0-1.6,0.2-2,0.8s-0.7,1.2-0.7,2.2s0.2,1.7,0.7,2.2s1.1,0.8,2,0.8c0.3,0,0.7,0,0.9-0.1S58.4,304.2,58.6,304.1L58.6,304.1z"/>
<path d="M63.5,299.5c0.8,0,1.4,0.2,1.8,0.8s0.7,1.2,0.7,2.1s-0.2,1.6-0.7,2.1c-0.4,0.5-1.1,0.8-1.8,0.8s-1.4-0.2-1.8-0.8
	s-0.7-1.2-0.7-2.1s0.2-1.6,0.7-2.1S62.7,299.5,63.5,299.5z M63.5,300.3c-0.5,0-0.9,0.2-1.1,0.6c-0.3,0.4-0.4,0.9-0.4,1.5
	s0.1,1.2,0.4,1.5c0.3,0.4,0.7,0.6,1.2,0.6s0.9-0.2,1.1-0.6s0.4-0.9,0.4-1.5s-0.1-1.2-0.4-1.5S64,300.3,63.5,300.3L63.5,300.3z"/>
<path d="M69.6,299.5c0.8,0,1.4,0.2,1.8,0.8s0.7,1.2,0.7,2.1s-0.2,1.6-0.7,2.1c-0.4,0.5-1.1,0.8-1.8,0.8s-1.4-0.2-1.8-0.8
	c-0.4-0.5-0.7-1.2-0.7-2.1s0.2-1.6,0.7-2.1S68.8,299.5,69.6,299.5z M69.6,300.3c-0.5,0-0.9,0.2-1.1,0.6c-0.3,0.4-0.4,0.9-0.4,1.5
	s0.1,1.2,0.4,1.5c0.3,0.4,0.7,0.6,1.2,0.6s0.9-0.2,1.1-0.6s0.4-0.9,0.4-1.5s-0.1-1.2-0.4-1.5S70.1,300.3,69.6,300.3L69.6,300.3z"/>
<path d="M78.1,304.5c0,0.9-0.2,1.6-0.6,2.1s-1.1,0.7-1.9,0.7c-0.3,0-0.6,0-0.9-0.1c-0.3,0-0.6-0.1-0.8-0.2v-0.9
	c0.3,0.1,0.5,0.2,0.8,0.3s0.5,0.1,0.8,0.1c0.6,0,1-0.1,1.3-0.5s0.4-0.8,0.4-1.4v-0.4c-0.2,0.3-0.4,0.6-0.7,0.7s-0.6,0.2-1,0.2
	c-0.7,0-1.2-0.3-1.6-0.8s-0.6-1.2-0.6-2s0.2-1.5,0.6-2s0.9-0.8,1.6-0.8c0.4,0,0.8,0.1,1,0.2s0.5,0.4,0.7,0.7v-0.8h0.9V304.5z
	 M77.2,302.3c0-0.6-0.1-1.2-0.4-1.5s-0.7-0.5-1.1-0.5s-0.9,0.2-1.1,0.5s-0.4,0.9-0.4,1.5s0.1,1.1,0.4,1.5s0.6,0.5,1.1,0.5
	s0.9-0.2,1.1-0.5S77.2,303,77.2,302.3z"/>
<path d="M80,297.9h1v6.5h3.6v0.8H80V297.9L80,297.9z"/>
<path d="M90,302.2v0.4h-4.1c0,0.6,0.2,1.1,0.6,1.4c0.3,0.3,0.8,0.5,1.4,0.5c0.3,0,0.7,0,1-0.1s0.7-0.2,1-0.4v0.9
	c-0.3,0.1-0.7,0.2-1,0.3s-0.7,0.1-1,0.1c-0.9,0-1.6-0.2-2.1-0.8s-0.8-1.2-0.8-2.1s0.2-1.6,0.7-2.1c0.5-0.5,1.1-0.8,2-0.8
	c0.7,0,1.3,0.2,1.8,0.7S90,301.4,90,302.2L90,302.2z M89.1,301.9c0-0.5-0.1-0.9-0.4-1.2s-0.6-0.4-1.1-0.4c-0.5,0-0.9,0.1-1.2,0.4
	s-0.5,0.7-0.5,1.2L89.1,301.9L89.1,301.9z"/>
<path d="M91.5,297.9h1.3l3.2,6.1v-6.1h1v7.3h-1.3l-3.2-6.1v6.1h-1V297.9z"/>
<path d="M103.6,302.2v0.4h-4.1c0,0.6,0.2,1.1,0.6,1.4c0.3,0.3,0.8,0.5,1.4,0.5c0.3,0,0.7,0,1-0.1s0.7-0.2,1-0.4v0.9
	c-0.3,0.1-0.7,0.2-1,0.3s-0.7,0.1-1,0.1c-0.9,0-1.6-0.2-2.1-0.8s-0.8-1.2-0.8-2.1s0.2-1.6,0.7-2.1c0.5-0.5,1.1-0.8,2-0.8
	c0.7,0,1.3,0.2,1.8,0.7S103.7,301.4,103.6,302.2L103.6,302.2z M102.7,301.9c0-0.5-0.1-0.9-0.4-1.2s-0.6-0.4-1.1-0.4
	c-0.5,0-0.9,0.1-1.2,0.4s-0.5,0.7-0.5,1.2L102.7,301.9L102.7,301.9z"/>
<path d="M106,298.1v1.5h1.8v0.7H106v3c0,0.5,0.1,0.7,0.2,0.9s0.4,0.2,0.7,0.2h0.9v0.8h-0.9c-0.7,0-1.2-0.1-1.4-0.4
	c-0.3-0.3-0.4-0.7-0.4-1.4v-3h-0.7v-0.7h0.7v-1.5L106,298.1L106,298.1z"/>
<line class="st1" x1="130.9" y1="290.5" x2="130.9" y2="294"/>
<path d="M107.3,297.9h2c1.4,0,2.4,0.3,3.1,0.9s1,1.5,1,2.8s-0.3,2.2-1,2.8s-1.7,0.9-3.1,0.9h-2L107.3,297.9L107.3,297.9z
	 M108.3,298.7v5.7h1.2c1,0,1.7-0.2,2.2-0.7s0.7-1.2,0.7-2.2s-0.2-1.7-0.7-2.1c-0.5-0.5-1.2-0.7-2.2-0.7L108.3,298.7L108.3,298.7z"/>
<path d="M119.6,302.2v0.4h-4.1c0,0.6,0.2,1.1,0.6,1.4c0.3,0.3,0.8,0.5,1.4,0.5c0.3,0,0.7,0,1-0.1s0.7-0.2,1-0.4v0.9
	c-0.3,0.1-0.7,0.2-1,0.3s-0.7,0.1-1,0.1c-0.9,0-1.6-0.2-2.1-0.8s-0.8-1.2-0.8-2.1s0.2-1.6,0.7-2.1c0.5-0.5,1.1-0.8,2-0.8
	c0.7,0,1.3,0.2,1.8,0.7S119.6,301.4,119.6,302.2L119.6,302.2z M118.7,301.9c0-0.5-0.1-0.9-0.4-1.2s-0.6-0.4-1.1-0.4
	c-0.5,0-0.9,0.1-1.2,0.4s-0.5,0.7-0.5,1.2L118.7,301.9L118.7,301.9z"/>
<path d="M125.6,301.8v3.3h-0.9v-3.3c0-0.5-0.1-0.9-0.3-1.2s-0.5-0.4-0.9-0.4c-0.5,0-0.9,0.1-1.2,0.5s-0.4,0.7-0.4,1.3v3.1H121v-5.5
	h0.9v0.9c0.2-0.3,0.5-0.6,0.8-0.7s0.6-0.2,1-0.2c0.6,0,1.1,0.2,1.4,0.6C125.5,300.5,125.6,301.1,125.6,301.8L125.6,301.8z"/>
<path d="M130.9,299.8v0.9c-0.2-0.1-0.5-0.2-0.8-0.3s-0.6-0.1-0.9-0.1c-0.4,0-0.8,0.1-1,0.2s-0.3,0.3-0.3,0.6c0,0.2,0.1,0.4,0.2,0.5
	s0.5,0.2,1,0.3l0.3,0.1c0.6,0.1,1.1,0.3,1.4,0.6s0.4,0.6,0.4,1c0,0.5-0.2,0.9-0.6,1.2s-0.9,0.4-1.7,0.4c-0.3,0-0.6,0-0.9-0.1
	c-0.3-0.1-0.7-0.1-1-0.3V304c0.3,0.2,0.7,0.3,1,0.4c0.3,0.1,0.6,0.1,1,0.1c0.4,0,0.8-0.1,1-0.2c0.2-0.1,0.3-0.4,0.3-0.6
	c0-0.2-0.1-0.4-0.2-0.6s-0.5-0.3-1.1-0.4l-0.3-0.1c-0.6-0.1-1-0.3-1.2-0.5c-0.2-0.2-0.4-0.6-0.4-1c0-0.5,0.2-0.9,0.6-1.2
	s0.9-0.4,1.6-0.4c0.3,0,0.6,0,0.9,0.1S130.7,299.7,130.9,299.8L130.9,299.8z"/>
<path d="M137.3,302.2v0.4h-4.1c0,0.6,0.2,1.1,0.6,1.4s0.8,0.5,1.4,0.5c0.4,0,0.7,0,1-0.1s0.6-0.2,1-0.4v0.9c-0.3,0.1-0.6,0.2-1,0.3
	s-0.7,0.1-1,0.1c-0.9,0-1.6-0.2-2.1-0.8s-0.8-1.2-0.8-2.1s0.2-1.6,0.7-2.1c0.5-0.5,1.1-0.8,2-0.8c0.7,0,1.3,0.2,1.8,0.7
	S137.3,301.4,137.3,302.2L137.3,302.2z M136.4,301.9c0-0.5-0.1-0.9-0.4-1.2s-0.6-0.4-1.1-0.4c-0.5,0-0.9,0.1-1.2,0.4
	s-0.5,0.7-0.5,1.2L136.4,301.9L136.4,301.9z"/>
<path d="M138.8,297.9h1.3l3.2,6.1v-6.1h1v7.3H143l-3.2-6.1v6.1h-1V297.9z"/>
<path d="M150.9,302.2v0.4h-4.1c0,0.6,0.2,1.1,0.6,1.4s0.8,0.5,1.4,0.5c0.4,0,0.7,0,1-0.1s0.6-0.2,1-0.4v0.9c-0.3,0.1-0.6,0.2-1,0.3
	s-0.7,0.1-1,0.1c-0.9,0-1.6-0.2-2.1-0.8s-0.8-1.2-0.8-2.1s0.2-1.6,0.7-2.1c0.5-0.5,1.1-0.8,2-0.8c0.7,0,1.3,0.2,1.8,0.7
	S150.9,301.4,150.9,302.2L150.9,302.2z M150,301.9c0-0.5-0.1-0.9-0.4-1.2s-0.6-0.4-1.1-0.4c-0.5,0-0.9,0.1-1.2,0.4s-0.5,0.7-0.5,1.2
	L150,301.9L150,301.9z"/>
<path d="M153.3,298.1v1.5h1.9v0.7h-1.9v3c0,0.5,0.1,0.7,0.2,0.9s0.4,0.2,0.7,0.2h0.9v0.8h-0.9c-0.7,0-1.2-0.1-1.4-0.4
	c-0.3-0.3-0.4-0.7-0.4-1.4v-3h-0.7v-0.7h0.7v-1.5L153.3,298.1L153.3,298.1z"/>
<line class="st1" x1="181.3" y1="290.5" x2="181.3" y2="294"/>
<path d="M168.1,301.7c0.2,0.1,0.4,0.2,0.6,0.5s0.4,0.6,0.6,1l1,2h-1.1l-0.9-1.9c-0.2-0.5-0.5-0.8-0.7-1s-0.5-0.2-0.9-0.2h-1.1v3.1
	h-1v-7.3h2.2c0.8,0,1.5,0.2,1.9,0.5s0.6,0.9,0.6,1.6c0,0.5-0.1,0.8-0.3,1.1S168.5,301.6,168.1,301.7L168.1,301.7z M165.6,298.7v2.6
	h1.2c0.5,0,0.8-0.1,1.1-0.3c0.2-0.2,0.4-0.5,0.4-1s-0.1-0.8-0.4-1c-0.2-0.2-0.6-0.3-1.1-0.3L165.6,298.7L165.6,298.7z"/>
<path d="M175.8,302.2v0.4h-4.1c0,0.6,0.2,1.1,0.6,1.4s0.8,0.5,1.4,0.5c0.4,0,0.7,0,1-0.1s0.6-0.2,1-0.4v0.9c-0.3,0.1-0.6,0.2-1,0.3
	s-0.7,0.1-1,0.1c-0.9,0-1.6-0.2-2.1-0.8s-0.8-1.2-0.8-2.1s0.2-1.6,0.7-2.1c0.5-0.5,1.1-0.8,2-0.8c0.7,0,1.3,0.2,1.8,0.7
	S175.8,301.4,175.8,302.2L175.8,302.2z M174.9,301.9c0-0.5-0.1-0.9-0.4-1.2s-0.6-0.4-1.1-0.4c-0.5,0-0.9,0.1-1.2,0.4
	s-0.5,0.7-0.5,1.2L174.9,301.9L174.9,301.9z"/>
<path d="M180.7,299.8v0.9c-0.2-0.1-0.5-0.2-0.8-0.3s-0.6-0.1-0.9-0.1c-0.4,0-0.8,0.1-1,0.2s-0.3,0.3-0.3,0.6c0,0.2,0.1,0.4,0.2,0.5
	s0.5,0.2,1,0.3l0.3,0.1c0.6,0.1,1.1,0.3,1.4,0.6s0.4,0.6,0.4,1c0,0.5-0.2,0.9-0.6,1.2s-0.9,0.4-1.7,0.4c-0.3,0-0.6,0-0.9-0.1
	c-0.3-0.1-0.6-0.1-1-0.3V304c0.3,0.2,0.7,0.3,1,0.4c0.3,0.1,0.6,0.1,1,0.1c0.4,0,0.8-0.1,1-0.2c0.2-0.1,0.3-0.4,0.3-0.6
	c0-0.2-0.1-0.4-0.2-0.6s-0.5-0.3-1.1-0.4l-0.3-0.1c-0.6-0.1-1-0.3-1.2-0.5c-0.2-0.2-0.4-0.6-0.4-1c0-0.5,0.2-0.9,0.6-1.2
	s0.9-0.4,1.6-0.4c0.3,0,0.6,0,0.9,0.1S180.5,299.7,180.7,299.8L180.7,299.8z"/>
<path d="M182.5,297.9h1.3l3.2,6.1v-6.1h1v7.3h-1.3l-3.2-6.1v6.1h-1V297.9z"/>
<path d="M194.6,302.2v0.4h-4.1c0,0.6,0.2,1.1,0.6,1.4s0.8,0.5,1.4,0.5c0.4,0,0.7,0,1-0.1s0.6-0.2,1-0.4v0.9c-0.3,0.1-0.6,0.2-1,0.3
	s-0.7,0.1-1,0.1c-0.9,0-1.6-0.2-2.1-0.8s-0.8-1.2-0.8-2.1s0.2-1.6,0.7-2.1c0.5-0.5,1.1-0.8,2-0.8c0.7,0,1.3,0.2,1.8,0.7
	S194.6,301.4,194.6,302.2L194.6,302.2z M193.7,301.9c0-0.5-0.1-0.9-0.4-1.2s-0.6-0.4-1.1-0.4c-0.5,0-0.9,0.1-1.2,0.4
	s-0.5,0.7-0.5,1.2L193.7,301.9L193.7,301.9z"/>
<path d="M197,298.1v1.5h1.9v0.7H197v3c0,0.5,0.1,0.7,0.2,0.9s0.4,0.2,0.7,0.2h0.9v0.8h-0.9c-0.7,0-1.2-0.1-1.4-0.4
	c-0.3-0.3-0.4-0.7-0.4-1.4v-3h-0.7v-0.7h0.7v-1.5L197,298.1L197,298.1z"/>
<line class="st1" x1="231.8" y1="290.5" x2="231.8" y2="294"/>
<path d="M219,301.7c0.2,0.1,0.4,0.2,0.6,0.5s0.4,0.6,0.6,1l1,2h-1.1l-0.9-1.9c-0.2-0.5-0.5-0.8-0.7-1s-0.5-0.2-0.9-0.2h-1.1v3.1h-1
	v-7.3h2.2c0.8,0,1.5,0.2,1.9,0.5s0.6,0.9,0.6,1.6c0,0.5-0.1,0.8-0.3,1.1S219.4,301.6,219,301.7L219,301.7z M216.5,298.7v2.6h1.2
	c0.5,0,0.8-0.1,1.1-0.3c0.2-0.2,0.4-0.5,0.4-1s-0.1-0.8-0.4-1c-0.2-0.2-0.6-0.3-1.1-0.3L216.5,298.7L216.5,298.7z"/>
<path d="M224.1,299.5c0.8,0,1.4,0.2,1.8,0.8s0.7,1.2,0.7,2.1s-0.2,1.6-0.7,2.1c-0.4,0.5-1.1,0.8-1.8,0.8s-1.4-0.2-1.8-0.8
	s-0.7-1.2-0.7-2.1s0.2-1.6,0.7-2.1S223.4,299.5,224.1,299.5z M224.1,300.3c-0.5,0-0.9,0.2-1.1,0.6c-0.3,0.4-0.4,0.9-0.4,1.5
	s0.1,1.2,0.4,1.5c0.3,0.4,0.7,0.6,1.1,0.6s0.9-0.2,1.1-0.6s0.4-0.9,0.4-1.5s-0.1-1.2-0.4-1.5S224.6,300.3,224.1,300.3L224.1,300.3z"
	/>
<path d="M229,300.5c0.2-0.3,0.4-0.6,0.7-0.7c0.3-0.2,0.6-0.2,1-0.2c0.7,0,1.2,0.3,1.6,0.8s0.6,1.2,0.6,2.1s-0.2,1.5-0.6,2.1
	s-0.9,0.8-1.6,0.8c-0.4,0-0.7-0.1-1-0.2s-0.5-0.4-0.7-0.7v0.8h-0.9v-7.6h0.9V300.5z M232.1,302.4c0-0.7-0.1-1.2-0.4-1.6
	s-0.6-0.6-1.1-0.6s-0.9,0.2-1.1,0.6c-0.3,0.4-0.4,0.9-0.4,1.6s0.1,1.2,0.4,1.6s0.6,0.6,1.1,0.6s0.9-0.2,1.1-0.6
	C231.9,303.6,232.1,303.1,232.1,302.4z"/>
<path d="M234.4,303v-3.3h0.9v3.3c0,0.5,0.1,0.9,0.3,1.2s0.5,0.4,0.9,0.4c0.5,0,0.9-0.1,1.1-0.5s0.4-0.7,0.4-1.3v-3.1h0.9v5.5h-0.9
	v-0.8c-0.2,0.3-0.5,0.6-0.8,0.7s-0.6,0.2-1,0.2c-0.6,0-1.1-0.2-1.4-0.6S234.4,303.8,234.4,303L234.4,303z"/>
<path d="M244.3,299.8v0.9c-0.2-0.1-0.5-0.2-0.8-0.3s-0.6-0.1-0.9-0.1c-0.4,0-0.8,0.1-1,0.2c-0.2,0.1-0.3,0.3-0.3,0.6
	c0,0.2,0.1,0.4,0.2,0.5s0.5,0.2,1,0.3l0.3,0.1c0.6,0.1,1.1,0.3,1.4,0.6s0.4,0.6,0.4,1c0,0.5-0.2,0.9-0.6,1.2c-0.4,0.3-1,0.4-1.7,0.4
	c-0.3,0-0.6,0-0.9-0.1c-0.3-0.1-0.6-0.1-1-0.3V304c0.3,0.2,0.7,0.3,1,0.4c0.3,0.1,0.6,0.1,1,0.1c0.4,0,0.8-0.1,1-0.2
	c0.2-0.1,0.3-0.4,0.3-0.6c0-0.2-0.1-0.4-0.2-0.6s-0.5-0.3-1.1-0.4l-0.3-0.1c-0.6-0.1-1-0.3-1.2-0.5c-0.2-0.2-0.4-0.6-0.4-1
	c0-0.5,0.2-0.9,0.6-1.2c0.4-0.3,0.9-0.4,1.6-0.4c0.3,0,0.6,0,0.9,0.1S244.1,299.7,244.3,299.8L244.3,299.8z"/>
<path d="M246.9,298.1v1.5h1.9v0.7h-1.9v3c0,0.5,0.1,0.7,0.2,0.9s0.4,0.2,0.7,0.2h0.9v0.8h-0.9c-0.7,0-1.2-0.1-1.4-0.4
	c-0.3-0.3-0.4-0.7-0.4-1.4v-3h-0.7v-0.7h0.7v-1.5L246.9,298.1L246.9,298.1z"/>
<path d="M218.5,312.9c0.2,0.1,0.4,0.2,0.6,0.5s0.4,0.6,0.6,1l1,2h-1.1l-0.9-1.9c-0.2-0.5-0.5-0.8-0.7-1s-0.5-0.2-0.9-0.2H216v3.1h-1
	V309h2.2c0.8,0,1.5,0.2,1.9,0.5s0.6,0.9,0.6,1.6c0,0.5-0.1,0.8-0.3,1.1S218.9,312.8,218.5,312.9L218.5,312.9z M216,309.9v2.6h1.2
	c0.5,0,0.8-0.1,1.1-0.3c0.2-0.2,0.4-0.5,0.4-1s-0.1-0.8-0.4-1c-0.2-0.2-0.6-0.3-1.1-0.3L216,309.9L216,309.9z"/>
<path d="M226.2,313.4v0.4h-4.1c0,0.6,0.2,1.1,0.6,1.4s0.8,0.5,1.4,0.5c0.4,0,0.7,0,1-0.1s0.6-0.2,1-0.4v0.9c-0.3,0.1-0.6,0.2-1,0.3
	s-0.7,0.1-1,0.1c-0.9,0-1.6-0.2-2.1-0.8s-0.8-1.2-0.8-2.1s0.2-1.6,0.7-2.1c0.5-0.5,1.1-0.8,2-0.8c0.7,0,1.3,0.2,1.8,0.7
	S226.2,312.6,226.2,313.4L226.2,313.4z M225.3,313.1c0-0.5-0.1-0.9-0.4-1.2s-0.6-0.4-1.1-0.4c-0.5,0-0.9,0.1-1.2,0.4
	s-0.5,0.7-0.5,1.2L225.3,313.1L225.3,313.1z"/>
<path d="M231.2,311v0.9c-0.2-0.1-0.5-0.2-0.8-0.3s-0.6-0.1-0.9-0.1c-0.4,0-0.8,0.1-1,0.2s-0.3,0.3-0.3,0.6c0,0.2,0.1,0.4,0.2,0.5
	s0.5,0.2,1,0.3l0.3,0.1c0.6,0.1,1.1,0.3,1.4,0.6s0.4,0.6,0.4,1c0,0.5-0.2,0.9-0.6,1.2s-0.9,0.4-1.7,0.4c-0.3,0-0.6,0-0.9-0.1
	c-0.3-0.1-0.6-0.1-1-0.3v-0.9c0.3,0.2,0.7,0.3,1,0.4c0.3,0.1,0.6,0.1,1,0.1c0.4,0,0.8-0.1,1-0.2c0.2-0.1,0.3-0.4,0.3-0.6
	c0-0.2-0.1-0.4-0.2-0.6s-0.5-0.3-1.1-0.4l-0.3-0.1c-0.6-0.1-1-0.3-1.2-0.5c-0.2-0.2-0.4-0.6-0.4-1c0-0.5,0.2-0.9,0.6-1.2
	s0.9-0.4,1.6-0.4c0.3,0,0.6,0,0.9,0.1S230.9,310.9,231.2,311L231.2,311z"/>
<path d="M232.9,309h1.3l3.2,6.1V309h1v7.3h-1.3l-3.2-6.1v6.1h-1V309z"/>
<path d="M245.1,313.4v0.4h-4.1c0,0.6,0.2,1.1,0.6,1.4s0.8,0.5,1.4,0.5c0.4,0,0.7,0,1-0.1c0.3-0.1,0.6-0.2,1-0.4v0.9
	c-0.3,0.1-0.6,0.2-1,0.3c-0.3,0.1-0.7,0.1-1,0.1c-0.9,0-1.6-0.2-2.1-0.8c-0.5-0.5-0.8-1.2-0.8-2.1s0.2-1.6,0.7-2.1
	c0.5-0.5,1.1-0.8,2-0.8c0.7,0,1.3,0.2,1.8,0.7S245.1,312.6,245.1,313.4L245.1,313.4z M244.2,313.1c0-0.5-0.1-0.9-0.4-1.2
	s-0.6-0.4-1.1-0.4c-0.5,0-0.9,0.1-1.2,0.4s-0.5,0.7-0.5,1.2L244.2,313.1L244.2,313.1z"/>
<path d="M247.4,309.3v1.5h1.9v0.7h-1.9v3c0,0.5,0.1,0.7,0.2,0.9s0.4,0.2,0.7,0.2h0.9v0.8h-0.9c-0.7,0-1.2-0.1-1.4-0.4
	c-0.3-0.3-0.4-0.7-0.4-1.4v-3h-0.7v-0.7h0.7v-1.5L247.4,309.3L247.4,309.3z"/>
<line class="st1" x1="282.2" y1="290.5" x2="282.2" y2="294"/>
<path d="M279.2,298.4v1c-0.3-0.3-0.7-0.5-1.1-0.7s-0.8-0.2-1.2-0.2c-0.8,0-1.5,0.2-1.9,0.8s-0.7,1.2-0.7,2.2s0.2,1.7,0.7,2.2
	c0.4,0.5,1.1,0.8,1.9,0.8c0.4,0,0.8-0.1,1.2-0.2s0.7-0.4,1.1-0.7v1c-0.3,0.2-0.7,0.4-1.1,0.5s-0.8,0.2-1.2,0.2c-1.1,0-2-0.3-2.6-1
	c-0.6-0.7-1-1.6-1-2.8s0.3-2.1,1-2.8c0.6-0.7,1.5-1,2.6-1c0.4,0,0.9,0.1,1.2,0.2C278.5,298,278.9,298.2,279.2,298.4z"/>
<path d="M280.7,297.5h0.9v7.6h-0.9V297.5z"/>
<path d="M283.5,297.5h0.9v1.1h-0.9V297.5z M283.5,299.7h0.9v5.5h-0.9V299.7z"/>
<path d="M287.1,304.3v2.9h-0.9v-7.5h0.9v0.8c0.2-0.3,0.4-0.6,0.7-0.7c0.3-0.2,0.6-0.2,1-0.2c0.7,0,1.2,0.3,1.6,0.8s0.6,1.2,0.6,2.1
	s-0.2,1.5-0.6,2.1s-1,0.8-1.6,0.8c-0.4,0-0.7-0.1-1-0.2S287.3,304.6,287.1,304.3z M290.2,302.4c0-0.7-0.1-1.2-0.4-1.6
	s-0.6-0.6-1.1-0.6s-0.9,0.2-1.1,0.6c-0.3,0.4-0.4,0.9-0.4,1.6s0.1,1.2,0.4,1.6s0.6,0.6,1.1,0.6s0.9-0.2,1.1-0.6
	C290,303.6,290.2,303.1,290.2,302.4z"/>
<path d="M269,312.9c0.2,0.1,0.4,0.2,0.6,0.5s0.4,0.6,0.6,1l1,2h-1.1l-0.9-1.9c-0.2-0.5-0.5-0.8-0.7-1s-0.5-0.2-0.9-0.2h-1.1v3.1h-1
	V309h2.2c0.8,0,1.5,0.2,1.9,0.5s0.6,0.9,0.6,1.6c0,0.5-0.1,0.8-0.3,1.1C269.7,312.6,269.4,312.8,269,312.9L269,312.9z M266.5,309.9
	v2.6h1.2c0.5,0,0.8-0.1,1.1-0.3c0.2-0.2,0.4-0.5,0.4-1s-0.1-0.8-0.4-1c-0.2-0.2-0.6-0.3-1.1-0.3L266.5,309.9L266.5,309.9z"/>
<path d="M276.7,313.4v0.4h-4.1c0,0.6,0.2,1.1,0.6,1.4s0.8,0.5,1.4,0.5c0.3,0,0.7,0,1-0.1c0.3-0.1,0.6-0.2,1-0.4v0.9
	c-0.3,0.1-0.6,0.2-1,0.3s-0.7,0.1-1,0.1c-0.9,0-1.6-0.2-2.1-0.8s-0.8-1.2-0.8-2.1s0.2-1.6,0.7-2.1c0.5-0.5,1.1-0.8,2-0.8
	c0.7,0,1.3,0.2,1.8,0.7S276.7,312.6,276.7,313.4L276.7,313.4z M275.8,313.1c0-0.5-0.1-0.9-0.4-1.2s-0.6-0.4-1.1-0.4
	c-0.5,0-0.9,0.1-1.2,0.4c-0.3,0.3-0.5,0.7-0.5,1.2L275.8,313.1L275.8,313.1z"/>
<path d="M281.6,311v0.9c-0.2-0.1-0.5-0.2-0.8-0.3s-0.6-0.1-0.9-0.1c-0.5,0-0.8,0.1-1,0.2c-0.2,0.1-0.3,0.3-0.3,0.6
	c0,0.2,0.1,0.4,0.2,0.5s0.5,0.2,1,0.3l0.3,0.1c0.6,0.1,1.1,0.3,1.4,0.6s0.4,0.6,0.4,1c0,0.5-0.2,0.9-0.6,1.2s-1,0.4-1.7,0.4
	c-0.3,0-0.6,0-0.9-0.1c-0.3-0.1-0.6-0.1-1-0.3v-0.9c0.3,0.2,0.7,0.3,1,0.4c0.3,0.1,0.6,0.1,1,0.1c0.4,0,0.8-0.1,1-0.2
	c0.2-0.1,0.3-0.4,0.3-0.6c0-0.2-0.1-0.4-0.2-0.6c-0.2-0.1-0.5-0.3-1.1-0.4l-0.3-0.1c-0.6-0.1-1-0.3-1.2-0.5c-0.2-0.2-0.4-0.6-0.4-1
	c0-0.5,0.2-0.9,0.5-1.2c0.4-0.3,0.9-0.4,1.5-0.4c0.3,0,0.6,0,0.9,0.1S281.4,310.9,281.6,311L281.6,311z"/>
<path d="M283.4,309h1.3l3.2,6.1V309h1v7.3h-1.3l-3.2-6.1v6.1h-1V309z"/>
<path d="M295.5,313.4v0.4h-4.1c0,0.6,0.2,1.1,0.6,1.4s0.8,0.5,1.4,0.5c0.3,0,0.7,0,1-0.1c0.3-0.1,0.6-0.2,1-0.4v0.9
	c-0.3,0.1-0.6,0.2-1,0.3s-0.7,0.1-1,0.1c-0.9,0-1.6-0.2-2.1-0.8s-0.8-1.2-0.8-2.1s0.2-1.6,0.7-2.1c0.5-0.5,1.1-0.8,2-0.8
	c0.7,0,1.3,0.2,1.8,0.7S295.5,312.6,295.5,313.4L295.5,313.4z M294.6,313.1c0-0.5-0.1-0.9-0.4-1.2s-0.6-0.4-1.1-0.4
	c-0.5,0-0.9,0.1-1.2,0.4c-0.3,0.3-0.5,0.7-0.5,1.2L294.6,313.1L294.6,313.1z"/>
<path d="M297.9,309.3v1.5h1.9v0.7h-1.9v3c0,0.5,0.1,0.7,0.2,0.9s0.4,0.2,0.8,0.2h0.9v0.8h-0.9c-0.7,0-1.2-0.1-1.4-0.4
	c-0.3-0.3-0.4-0.7-0.4-1.4v-3h-0.7v-0.7h0.7v-1.5L297.9,309.3L297.9,309.3z"/>
<line class="st1" x1="332.7" y1="290.5" x2="332.7" y2="294"/>
<path d="M302.8,297.9h1l1.5,6.2l1.5-6.2h1.1l1.5,6.2l1.5-6.2h1l-1.8,7.3H309l-1.5-6.3l-1.5,6.3h-1.2L302.8,297.9L302.8,297.9z"/>
<path d="M313.1,297.5h0.9v1.1h-0.9V297.5z M313.1,299.7h0.9v5.5h-0.9V299.7z"/>
<path d="M319.5,300.5v-3h0.9v7.6h-0.9v-0.8c-0.2,0.3-0.4,0.6-0.7,0.7c-0.3,0.2-0.6,0.2-1,0.2c-0.7,0-1.2-0.3-1.6-0.8
	s-0.6-1.2-0.6-2.1s0.2-1.5,0.6-2.1s1-0.8,1.6-0.8c0.4,0,0.8,0.1,1,0.2S319.3,300.2,319.5,300.5z M316.5,302.4c0,0.7,0.1,1.2,0.4,1.6
	s0.6,0.6,1.1,0.6s0.9-0.2,1.1-0.6c0.3-0.4,0.4-0.9,0.4-1.6s-0.1-1.2-0.4-1.6s-0.6-0.6-1.1-0.6s-0.9,0.2-1.1,0.6
	C316.6,301.2,316.5,301.7,316.5,302.4z"/>
<path d="M326.9,302.2v0.4h-4.1c0,0.6,0.2,1.1,0.6,1.4s0.8,0.5,1.4,0.5c0.3,0,0.7,0,1-0.1c0.3-0.1,0.6-0.2,1-0.4v0.9
	c-0.3,0.1-0.6,0.2-1,0.3s-0.7,0.1-1,0.1c-0.9,0-1.6-0.2-2.1-0.8s-0.8-1.2-0.8-2.1s0.2-1.6,0.7-2.1c0.5-0.5,1.1-0.8,2-0.8
	c0.7,0,1.3,0.2,1.8,0.7S326.9,301.4,326.9,302.2L326.9,302.2z M326,301.9c0-0.5-0.1-0.9-0.4-1.2s-0.6-0.4-1.1-0.4
	c-0.5,0-0.9,0.1-1.2,0.4c-0.3,0.3-0.5,0.7-0.5,1.2L326,301.9L326,301.9z"/>
<path d="M331.9,301.7c0.2,0.1,0.4,0.2,0.6,0.5s0.4,0.6,0.6,1l1,2h-1.1l-0.9-1.9c-0.2-0.5-0.5-0.8-0.7-1s-0.5-0.2-0.9-0.2h-1.1v3.1
	h-1v-7.3h2.2c0.8,0,1.5,0.2,1.9,0.5s0.6,0.9,0.6,1.6c0,0.5-0.1,0.8-0.3,1.1C332.6,301.4,332.3,301.6,331.9,301.7L331.9,301.7z
	 M329.4,298.7v2.6h1.2c0.5,0,0.8-0.1,1.1-0.3c0.2-0.2,0.4-0.5,0.4-1s-0.1-0.8-0.4-1c-0.2-0.2-0.6-0.3-1.1-0.3L329.4,298.7
	L329.4,298.7z"/>
<path d="M339.6,302.2v0.4h-4.1c0,0.6,0.2,1.1,0.6,1.4s0.8,0.5,1.4,0.5c0.4,0,0.7,0,1-0.1c0.3-0.1,0.6-0.2,1-0.4v0.9
	c-0.3,0.1-0.6,0.2-1,0.3s-0.7,0.1-1,0.1c-0.9,0-1.6-0.2-2.1-0.8s-0.8-1.2-0.8-2.1s0.2-1.6,0.7-2.1c0.5-0.5,1.1-0.8,2-0.8
	c0.7,0,1.3,0.2,1.8,0.7S339.6,301.4,339.6,302.2L339.6,302.2z M338.7,301.9c0-0.5-0.1-0.9-0.4-1.2s-0.6-0.4-1.1-0.4
	c-0.5,0-0.9,0.1-1.2,0.4c-0.3,0.3-0.5,0.7-0.5,1.2L338.7,301.9L338.7,301.9z"/>
<path d="M344.6,299.8v0.9c-0.2-0.1-0.5-0.2-0.8-0.3s-0.6-0.1-0.9-0.1c-0.5,0-0.8,0.1-1,0.2c-0.2,0.1-0.3,0.3-0.3,0.6
	c0,0.2,0.1,0.4,0.2,0.5s0.5,0.2,1,0.3l0.3,0.1c0.6,0.1,1.1,0.3,1.4,0.6s0.4,0.6,0.4,1c0,0.5-0.2,0.9-0.6,1.2s-1,0.4-1.7,0.4
	c-0.3,0-0.6,0-0.9-0.1c-0.3-0.1-0.6-0.1-1-0.3V304c0.3,0.2,0.7,0.3,1,0.4c0.3,0.1,0.6,0.1,1,0.1c0.4,0,0.8-0.1,1-0.2
	c0.2-0.1,0.3-0.4,0.3-0.6c0-0.2-0.1-0.4-0.2-0.6s-0.5-0.3-1.1-0.4l-0.3-0.1c-0.6-0.1-1-0.3-1.2-0.5c-0.2-0.2-0.4-0.6-0.4-1
	c0-0.5,0.2-0.9,0.5-1.2s0.9-0.4,1.5-0.4c0.3,0,0.6,0,0.9,0.1S344.3,299.7,344.6,299.8L344.6,299.8z"/>
<path d="M346.3,297.9h1.3l3.2,6.1v-6.1h1v7.3h-1.3l-3.2-6.1v6.1h-1V297.9z"/>
<path d="M358.5,302.2v0.4h-4.1c0,0.6,0.2,1.1,0.6,1.4s0.8,0.5,1.4,0.5c0.4,0,0.7,0,1-0.1c0.3-0.1,0.6-0.2,1-0.4v0.9
	c-0.3,0.1-0.6,0.2-1,0.3s-0.7,0.1-1,0.1c-0.9,0-1.6-0.2-2.1-0.8s-0.8-1.2-0.8-2.1s0.2-1.6,0.7-2.1c0.5-0.5,1.1-0.8,2-0.8
	c0.7,0,1.3,0.2,1.8,0.7S358.5,301.4,358.5,302.2L358.5,302.2z M357.6,301.9c0-0.5-0.1-0.9-0.4-1.2s-0.6-0.4-1.1-0.4
	c-0.5,0-0.9,0.1-1.2,0.4c-0.3,0.3-0.5,0.7-0.5,1.2L357.6,301.9L357.6,301.9z"/>
<path d="M360.8,298.1v1.5h1.9v0.7h-1.9v3c0,0.5,0.1,0.7,0.2,0.9s0.4,0.2,0.7,0.2h0.9v0.8h-0.9c-0.7,0-1.2-0.1-1.4-0.4
	c-0.3-0.3-0.4-0.7-0.4-1.4v-3h-0.7v-0.7h0.7v-1.5L360.8,298.1L360.8,298.1z"/>
<line class="st1" x1="373" y1="290.5" x2="373" y2="294"/>
<path d="M368.1,305.1l-2.8-7.3h1l2.3,6.1l2.3-6.1h1l-2.8,7.3H368.1z"/>
<path d="M372.9,297.5h0.9v1.1h-0.9V297.5z M372.9,299.7h0.9v5.5h-0.9V299.7z"/>
<path d="M374.7,297.9h6.2v0.8h-2.6v6.5h-1v-6.5h-2.6L374.7,297.9L374.7,297.9z"/>
<line class="st1" x1="403.3" y1="290.5" x2="403.3" y2="294"/>
<path d="M400.3,298.4v1c-0.3-0.3-0.7-0.5-1.1-0.7s-0.8-0.2-1.2-0.2c-0.8,0-1.5,0.2-1.9,0.8s-0.7,1.2-0.7,2.2s0.2,1.7,0.7,2.2
	c0.4,0.5,1.1,0.8,1.9,0.8c0.4,0,0.8-0.1,1.2-0.2s0.7-0.4,1.1-0.7v1c-0.4,0.2-0.7,0.4-1.1,0.5s-0.8,0.2-1.2,0.2c-1.1,0-2-0.3-2.6-1
	c-0.6-0.7-1-1.6-1-2.8s0.3-2.1,1-2.8c0.6-0.7,1.5-1,2.6-1c0.4,0,0.9,0.1,1.2,0.2C399.6,298,400,298.2,400.3,298.4z"/>
<path d="M401.8,297.5h0.9v7.6h-0.9V297.5z"/>
<path d="M404.6,297.5h0.9v1.1h-0.9V297.5z M404.6,299.7h0.9v5.5h-0.9V299.7z"/>
<path d="M408.2,304.3v2.9h-0.9v-7.5h0.9v0.8c0.2-0.3,0.4-0.6,0.7-0.7c0.3-0.2,0.6-0.2,1-0.2c0.7,0,1.2,0.3,1.6,0.8s0.6,1.2,0.6,2.1
	s-0.2,1.5-0.6,2.1s-1,0.8-1.6,0.8c-0.4,0-0.8-0.1-1-0.2C408.6,304.9,408.4,304.6,408.2,304.3z M411.3,302.4c0-0.7-0.1-1.2-0.4-1.6
	s-0.6-0.6-1.1-0.6s-0.9,0.2-1.1,0.6c-0.3,0.4-0.4,0.9-0.4,1.6s0.1,1.2,0.4,1.6s0.6,0.6,1.1,0.6s0.9-0.2,1.1-0.6
	C411.1,303.6,411.3,303.1,411.3,302.4z"/>
<path d="M398.4,316.3l-2.8-7.3h1l2.3,6.1l2.3-6.1h1l-2.8,7.3H398.4z"/>
<path d="M403.1,308.7h0.9v1.1h-0.9V308.7z M403.1,310.9h0.9v5.5h-0.9V310.9z"/>
<path d="M404.9,309h6.2v0.8h-2.6v6.5h-1v-6.5h-2.6L404.9,309L404.9,309z"/>
<line class="st1" x1="443.7" y1="290.5" x2="443.7" y2="294"/>
<path d="M424.2,298.4v1c-0.3-0.3-0.7-0.5-1.1-0.7s-0.8-0.2-1.2-0.2c-0.8,0-1.5,0.2-1.9,0.8s-0.7,1.2-0.7,2.2s0.2,1.7,0.7,2.2
	c0.4,0.5,1.1,0.8,1.9,0.8c0.4,0,0.8-0.1,1.2-0.2s0.7-0.4,1.1-0.7v1c-0.4,0.2-0.7,0.4-1.1,0.5s-0.8,0.2-1.2,0.2c-1.1,0-2-0.3-2.6-1
	c-0.6-0.7-1-1.6-1-2.8s0.3-2.1,1-2.8c0.6-0.7,1.5-1,2.6-1c0.4,0,0.9,0.1,1.2,0.2C423.5,298,423.8,298.2,424.2,298.4z"/>
<path d="M427.8,299.5c0.8,0,1.4,0.2,1.8,0.8c0.5,0.5,0.7,1.2,0.7,2.1s-0.2,1.6-0.7,2.1c-0.5,0.5-1.1,0.8-1.8,0.8s-1.4-0.2-1.8-0.8
	s-0.7-1.2-0.7-2.1s0.2-1.6,0.7-2.1S427,299.5,427.8,299.5z M427.8,300.3c-0.5,0-0.9,0.2-1.1,0.6c-0.3,0.4-0.4,0.9-0.4,1.5
	s0.1,1.2,0.4,1.5c0.3,0.4,0.7,0.6,1.1,0.6s0.9-0.2,1.1-0.6c0.3-0.4,0.4-0.9,0.4-1.5s-0.1-1.2-0.4-1.5S428.3,300.3,427.8,300.3
	L427.8,300.3z"/>
<path d="M436.3,301.8v3.3h-0.9v-3.3c0-0.5-0.1-0.9-0.3-1.2c-0.2-0.3-0.5-0.4-0.9-0.4c-0.5,0-0.9,0.1-1.1,0.5s-0.4,0.7-0.4,1.3v3.1
	h-0.9v-5.5h0.9v0.9c0.2-0.3,0.5-0.6,0.8-0.7c0.3-0.2,0.6-0.2,1-0.2c0.6,0,1.1,0.2,1.4,0.6C436.2,300.5,436.3,301.1,436.3,301.8
	L436.3,301.8z"/>
<path d="M437.5,299.7h1l1.7,4.6l1.7-4.6h1l-2,5.5h-1.2L437.5,299.7L437.5,299.7z"/>
<path d="M444.1,297.9h1.3l3.2,6.1v-6.1h1v7.3h-1.3L445,299v6.1h-1V297.9z"/>
<path d="M456.2,302.2v0.4h-4.1c0,0.6,0.2,1.1,0.6,1.4s0.8,0.5,1.4,0.5c0.3,0,0.7,0,1-0.1c0.3-0.1,0.6-0.2,1-0.4v0.9
	c-0.3,0.1-0.6,0.2-1,0.3s-0.7,0.1-1,0.1c-0.9,0-1.6-0.2-2.1-0.8s-0.8-1.2-0.8-2.1s0.2-1.6,0.7-2.1c0.5-0.5,1.1-0.8,2-0.8
	c0.7,0,1.3,0.2,1.8,0.7S456.2,301.4,456.2,302.2L456.2,302.2z M455.3,301.9c0-0.5-0.1-0.9-0.4-1.2s-0.6-0.4-1.1-0.4
	c-0.5,0-0.9,0.1-1.2,0.4c-0.3,0.3-0.5,0.7-0.5,1.2L455.3,301.9L455.3,301.9z"/>
<path d="M457.4,297.9h1.1l1.8,2.7l1.8-2.7h1.1l-2.3,3.5l2.5,3.8h-1.1l-2-3.1l-2.1,3.1H457l2.6-3.9L457.4,297.9L457.4,297.9z"/>
<path d="M463.4,297.9h6.2v0.8H467v6.5h-1v-6.5h-2.6L463.4,297.9L463.4,297.9z"/>
<path d="M196.8,319.9h1.5l1.9,5l1.9-5h1.5v7.3h-1v-6.4l-1.9,5h-1l-1.9-5v6.4h-1L196.8,319.9L196.8,319.9z"/>
<path d="M207.6,321.6c0.8,0,1.4,0.2,1.8,0.8s0.7,1.2,0.7,2.1s-0.2,1.6-0.7,2.1c-0.4,0.5-1.1,0.8-1.8,0.8s-1.4-0.2-1.8-0.8
	s-0.7-1.2-0.7-2.1s0.2-1.6,0.7-2.1S206.8,321.6,207.6,321.6z M207.6,322.4c-0.5,0-0.9,0.2-1.1,0.6c-0.3,0.4-0.4,0.9-0.4,1.5
	s0.1,1.2,0.4,1.5c0.3,0.4,0.7,0.6,1.1,0.6s0.9-0.2,1.1-0.6s0.4-0.9,0.4-1.5s-0.1-1.2-0.4-1.5S208,322.3,207.6,322.4L207.6,322.4z"/>
<path d="M215.1,322.6v-3h0.9v7.6h-0.9v-0.8c-0.2,0.3-0.4,0.6-0.7,0.7c-0.3,0.2-0.6,0.2-1,0.2c-0.7,0-1.2-0.3-1.6-0.8
	s-0.6-1.2-0.6-2.1s0.2-1.5,0.6-2.1s0.9-0.8,1.6-0.8c0.4,0,0.8,0.1,1,0.2S215,322.2,215.1,322.6z M212.1,324.5c0,0.7,0.1,1.2,0.4,1.6
	s0.6,0.6,1.1,0.6s0.9-0.2,1.1-0.6c0.3-0.4,0.4-0.9,0.4-1.6s-0.1-1.2-0.4-1.6s-0.6-0.6-1.1-0.6s-0.9,0.2-1.1,0.6
	C212.2,323.3,212.1,323.8,212.1,324.5z"/>
<path d="M222.6,324.2v0.4h-4.1c0,0.6,0.2,1.1,0.6,1.4s0.8,0.5,1.4,0.5c0.4,0,0.7,0,1-0.1s0.6-0.2,1-0.4v0.9c-0.3,0.1-0.6,0.2-1,0.3
	s-0.7,0.1-1,0.1c-0.9,0-1.6-0.2-2.1-0.8s-0.8-1.2-0.8-2.1s0.2-1.6,0.7-2.1c0.5-0.5,1.1-0.8,2-0.8c0.7,0,1.3,0.2,1.8,0.7
	S222.6,323.4,222.6,324.2L222.6,324.2z M221.7,324c0-0.5-0.1-0.9-0.4-1.2s-0.6-0.4-1.1-0.4c-0.5,0-0.9,0.1-1.2,0.4s-0.5,0.7-0.5,1.2
	L221.7,324L221.7,324z"/>
<path d="M224.1,319.6h0.9v7.6h-0.9V319.6z"/>
<path d="M232.2,319.6c-0.4,0.8-0.8,1.5-1,2.2s-0.3,1.5-0.3,2.2s0.1,1.5,0.3,2.2c0.2,0.7,0.5,1.5,1,2.2h-0.8
	c-0.5-0.8-0.9-1.5-1.1-2.3s-0.4-1.5-0.4-2.2s0.1-1.5,0.4-2.2s0.6-1.5,1.1-2.3L232.2,319.6L232.2,319.6z"/>
<path d="M236.9,319.8c1,0,1.8,0.3,2.4,1s0.9,1.6,0.9,2.8s-0.3,2.1-0.9,2.8c-0.6,0.7-1.4,1-2.4,1s-1.8-0.3-2.5-1s-0.9-1.6-0.9-2.8
	s0.3-2.1,0.9-2.8C235.1,320.1,235.9,319.8,236.9,319.8z M236.9,320.6c-0.7,0-1.3,0.3-1.7,0.8s-0.6,1.3-0.6,2.2s0.2,1.6,0.6,2.2
	s1,0.8,1.7,0.8s1.3-0.3,1.7-0.8s0.6-1.3,0.6-2.2s-0.2-1.6-0.6-2.2S237.6,320.6,236.9,320.6z"/>
<path d="M244.9,322.6c-0.1-0.1-0.2-0.1-0.3-0.1s-0.2,0-0.4,0c-0.5,0-0.9,0.2-1.2,0.5s-0.4,0.8-0.4,1.4v2.9h-0.9v-5.5h0.9v0.9
	c0.2-0.3,0.4-0.6,0.7-0.7c0.3-0.2,0.7-0.2,1.1-0.2c0.1,0,0.1,0,0.2,0c0.1,0,0.2,0,0.2,0L244.9,322.6L244.9,322.6z"/>
<path d="M249.3,322.6v-3h0.9v7.6h-0.9v-0.8c-0.2,0.3-0.4,0.6-0.7,0.7c-0.3,0.2-0.6,0.2-1,0.2c-0.7,0-1.2-0.3-1.6-0.8
	s-0.6-1.2-0.6-2.1s0.2-1.5,0.6-2.1s0.9-0.8,1.6-0.8c0.4,0,0.8,0.1,1,0.2S249.1,322.2,249.3,322.6z M246.3,324.5
	c0,0.7,0.1,1.2,0.4,1.6s0.6,0.6,1.1,0.6s0.9-0.2,1.1-0.6c0.3-0.4,0.4-0.9,0.4-1.6s-0.1-1.2-0.4-1.6s-0.6-0.6-1.1-0.6
	s-0.9,0.2-1.1,0.6C246.4,323.3,246.3,323.8,246.3,324.5z"/>
<path d="M256.8,324.2v0.4h-4.1c0,0.6,0.2,1.1,0.6,1.4s0.8,0.5,1.4,0.5c0.3,0,0.7,0,1-0.1c0.3-0.1,0.7-0.2,1-0.4v0.9
	c-0.3,0.1-0.6,0.2-1,0.3c-0.3,0.1-0.7,0.1-1,0.1c-0.9,0-1.6-0.2-2.1-0.8c-0.5-0.5-0.8-1.2-0.8-2.1s0.2-1.6,0.7-2.1
	c0.5-0.5,1.1-0.8,2-0.8c0.7,0,1.3,0.2,1.7,0.7C256.5,322.8,256.8,323.4,256.8,324.2L256.8,324.2z M255.9,324c0-0.5-0.1-0.9-0.4-1.2
	s-0.6-0.4-1.1-0.4c-0.5,0-0.9,0.1-1.2,0.4s-0.5,0.7-0.5,1.2L255.9,324L255.9,324z"/>
<path d="M261.4,322.6c-0.1-0.1-0.2-0.1-0.3-0.1s-0.2,0-0.4,0c-0.5,0-0.9,0.2-1.2,0.5c-0.3,0.3-0.4,0.8-0.4,1.4v2.9h-0.9v-5.5h0.9
	v0.9c0.2-0.3,0.4-0.6,0.7-0.7c0.3-0.2,0.7-0.2,1.1-0.2c0.1,0,0.1,0,0.2,0c0.1,0,0.2,0,0.2,0L261.4,322.6L261.4,322.6z"/>
<path d="M266.8,324.2v0.4h-4.1c0,0.6,0.2,1.1,0.6,1.4s0.8,0.5,1.4,0.5c0.4,0,0.7,0,1-0.1c0.3-0.1,0.6-0.2,1-0.4v0.9
	c-0.3,0.1-0.6,0.2-1,0.3s-0.7,0.1-1,0.1c-0.9,0-1.6-0.2-2.1-0.8s-0.8-1.2-0.8-2.1s0.2-1.6,0.7-2.1c0.5-0.5,1.1-0.8,2-0.8
	c0.7,0,1.3,0.2,1.8,0.7S266.8,323.4,266.8,324.2L266.8,324.2z M265.9,324c0-0.5-0.1-0.9-0.4-1.2s-0.6-0.4-1.1-0.4
	c-0.5,0-0.9,0.1-1.2,0.4c-0.3,0.3-0.5,0.7-0.5,1.2L265.9,324L265.9,324z"/>
<path d="M271.9,322.6v-3h0.9v7.6h-0.9v-0.8c-0.2,0.3-0.4,0.6-0.7,0.7c-0.3,0.2-0.6,0.2-1,0.2c-0.7,0-1.2-0.3-1.6-0.8
	s-0.6-1.2-0.6-2.1s0.2-1.5,0.6-2.1s1-0.8,1.6-0.8c0.4,0,0.8,0.1,1,0.2S271.7,322.2,271.9,322.6z M268.8,324.5c0,0.7,0.1,1.2,0.4,1.6
	s0.6,0.6,1.1,0.6s0.9-0.2,1.1-0.6c0.3-0.4,0.4-0.9,0.4-1.6s-0.1-1.2-0.4-1.6s-0.6-0.6-1.1-0.6s-0.9,0.2-1.1,0.6
	C268.9,323.3,268.8,323.8,268.8,324.5z"/>
<path d="M278.7,322.6c0.2-0.3,0.4-0.6,0.7-0.7c0.3-0.2,0.6-0.2,1-0.2c0.7,0,1.2,0.3,1.6,0.8s0.6,1.2,0.6,2.1s-0.2,1.5-0.6,2.1
	s-1,0.8-1.6,0.8c-0.4,0-0.7-0.1-1-0.2s-0.5-0.4-0.7-0.7v0.8h-0.9v-7.6h0.9V322.6z M281.7,324.5c0-0.7-0.1-1.2-0.4-1.6
	s-0.6-0.6-1.1-0.6s-0.9,0.2-1.1,0.6c-0.3,0.4-0.4,0.9-0.4,1.6s0.1,1.2,0.4,1.6s0.6,0.6,1.1,0.6s0.9-0.2,1.1-0.6
	C281.6,325.6,281.7,325.1,281.7,324.5z"/>
<path d="M286.4,327.7c-0.2,0.6-0.5,1.1-0.7,1.3c-0.2,0.2-0.6,0.3-1,0.3H284v-0.8h0.5c0.2,0,0.4-0.1,0.6-0.2s0.3-0.4,0.5-0.8l0.2-0.4
	l-2.2-5.4h1l1.7,4.3l1.7-4.3h1L286.4,327.7L286.4,327.7z"/>
<path d="M297.6,320.1v1c-0.4-0.2-0.7-0.3-1.1-0.4s-0.6-0.1-1-0.1c-0.5,0-1,0.1-1.2,0.3c-0.3,0.2-0.4,0.5-0.4,0.9
	c0,0.3,0.1,0.6,0.3,0.7s0.6,0.3,1.1,0.4l0.6,0.1c0.7,0.1,1.3,0.4,1.6,0.7c0.4,0.4,0.5,0.8,0.5,1.4c0,0.7-0.2,1.2-0.7,1.6
	s-1.2,0.5-2.1,0.5c-0.3,0-0.7,0-1.1-0.1s-0.8-0.2-1.2-0.4v-1c0.4,0.2,0.8,0.4,1.2,0.5c0.4,0.1,0.8,0.2,1.1,0.2c0.6,0,1-0.1,1.3-0.3
	c0.3-0.2,0.5-0.5,0.5-1c0-0.4-0.1-0.6-0.3-0.8s-0.6-0.4-1.1-0.5l-0.6-0.1c-0.7-0.1-1.3-0.4-1.6-0.7c-0.3-0.3-0.5-0.8-0.5-1.3
	c0-0.6,0.2-1.1,0.7-1.5s1.1-0.6,1.9-0.6c0.3,0,0.7,0,1,0.1C296.9,319.9,297.3,320,297.6,320.1L297.6,320.1z"/>
<path d="M303.5,321.9v0.8c-0.2-0.1-0.5-0.2-0.8-0.3c-0.3-0.1-0.5-0.1-0.8-0.1c-0.6,0-1,0.2-1.4,0.5c-0.3,0.4-0.5,0.9-0.5,1.6
	s0.2,1.2,0.5,1.6s0.8,0.5,1.4,0.5c0.3,0,0.5,0,0.8-0.1c0.2-0.1,0.5-0.2,0.8-0.3v0.8c-0.2,0.1-0.5,0.2-0.8,0.3s-0.5,0.1-0.9,0.1
	c-0.8,0-1.5-0.3-2-0.8c-0.5-0.5-0.7-1.2-0.7-2.1s0.2-1.6,0.7-2.1s1.2-0.8,2-0.8c0.3,0,0.5,0,0.8,0.1
	C303,321.7,303.3,321.8,303.5,321.9L303.5,321.9z"/>
<path d="M309.4,324.1v3.1h-0.9v-0.8c-0.2,0.3-0.5,0.6-0.8,0.7c-0.3,0.2-0.7,0.2-1.1,0.2c-0.6,0-1-0.2-1.3-0.5s-0.5-0.7-0.5-1.3
	c0-0.6,0.2-1.1,0.6-1.4c0.4-0.3,1-0.5,1.8-0.5h1.3v-0.1c0-0.4-0.1-0.7-0.4-1c-0.3-0.2-0.6-0.3-1.1-0.3c-0.3,0-0.6,0-0.9,0.1
	c-0.3,0.1-0.6,0.2-0.9,0.3V322c0.3-0.1,0.6-0.2,1-0.3c0.3-0.1,0.6-0.1,0.9-0.1c0.8,0,1.4,0.2,1.8,0.6S309.4,323.2,309.4,324.1
	L309.4,324.1z M307.6,324.4c-0.7,0-1.2,0.1-1.5,0.2s-0.4,0.5-0.4,0.9c0,0.3,0.1,0.6,0.3,0.8c0.2,0.2,0.5,0.3,0.9,0.3
	c0.5,0,0.9-0.2,1.2-0.5c0.3-0.4,0.5-0.8,0.5-1.4v-0.2H307.6L307.6,324.4z"/>
<path d="M311.2,319.6h0.9v7.6h-0.9V319.6z"/>
<path d="M318.7,324.2v0.4h-4.1c0,0.6,0.2,1.1,0.6,1.4s0.8,0.5,1.4,0.5c0.4,0,0.7,0,1-0.1c0.3-0.1,0.6-0.2,1-0.4v0.9
	c-0.3,0.1-0.6,0.2-1,0.3s-0.7,0.1-1,0.1c-0.9,0-1.6-0.2-2.1-0.8s-0.8-1.2-0.8-2.1s0.2-1.6,0.7-2.1c0.5-0.5,1.1-0.8,2-0.8
	c0.7,0,1.3,0.2,1.8,0.7S318.7,323.4,318.7,324.2L318.7,324.2z M317.8,324c0-0.5-0.1-0.9-0.4-1.2s-0.6-0.4-1.1-0.4
	c-0.5,0-0.9,0.1-1.2,0.4c-0.3,0.3-0.5,0.7-0.5,1.2L317.8,324L317.8,324z"/>
<path d="M320,319.6h0.8c0.5,0.8,0.9,1.5,1.1,2.3c0.2,0.7,0.4,1.5,0.4,2.2s-0.1,1.5-0.4,2.2c-0.2,0.7-0.6,1.5-1.1,2.3H320
	c0.4-0.8,0.8-1.5,1-2.2c0.2-0.7,0.3-1.5,0.3-2.2s-0.1-1.5-0.3-2.2C320.8,321.1,320.4,320.4,320,319.6L320,319.6z"/>
<g>
	<defs>
		<rect id="SVGID_1_" x="50.1" y="11" width="418.8" height="279.5"/>
	</defs>
	<clipPath id="SVGID_00000095330620539709309830000005108089891338803121_">
		<use xlink:href="#SVGID_1_"  style="overflow:visible;"/>
	</clipPath>
	<g style="clip-path:url(#SVGID_00000095330620539709309830000005108089891338803121_);">
		<line class="st3" x1="50.1" y1="274.1" x2="468.9" y2="274.1"/>
	</g>
</g>
<line class="st1" x1="50.1" y1="274.1" x2="46.6" y2="274.1"/>
<path d="M24,270.5c0.8,0,1.4,0.3,1.9,1s0.6,1.6,0.6,2.8s-0.2,2.2-0.6,2.8s-1.1,1-1.9,1s-1.4-0.3-1.9-1s-0.6-1.6-0.6-2.8
	s0.2-2.2,0.6-2.8S23.2,270.5,24,270.5z M24,271.3c-0.5,0-0.9,0.2-1.1,0.8s-0.4,1.2-0.4,2.2s0.1,1.8,0.4,2.2c0.3,0.5,0.6,0.8,1.1,0.8
	s0.9-0.2,1.1-0.8s0.4-1.2,0.4-2.2s-0.1-1.8-0.4-2.2C24.9,271.5,24.6,271.3,24,271.3z"/>
<path d="M28.3,276.7h1v1.2h-1V276.7z"/>
<path d="M31.5,270.6h3.9v0.8h-3v1.8c0.1,0,0.3-0.1,0.4-0.1c0.1,0,0.3,0,0.4,0c0.8,0,1.5,0.2,1.9,0.7s0.7,1,0.7,1.8s-0.2,1.4-0.7,1.8
	c-0.5,0.4-1.2,0.6-2.1,0.6c-0.3,0-0.6,0-0.9-0.1s-0.6-0.1-1-0.2v-1c0.3,0.2,0.6,0.3,0.9,0.4c0.3,0.1,0.6,0.1,1,0.1
	c0.6,0,1-0.1,1.3-0.4s0.5-0.7,0.5-1.2s-0.2-0.9-0.5-1.2s-0.8-0.4-1.3-0.4c-0.3,0-0.5,0-0.8,0.1s-0.5,0.1-0.8,0.3L31.5,270.6
	L31.5,270.6z"/>
<path d="M40,270.5c0.8,0,1.4,0.3,1.9,1s0.7,1.6,0.7,2.8s-0.2,2.2-0.7,2.8s-1.1,1-1.9,1s-1.4-0.3-1.9-1s-0.7-1.6-0.7-2.8
	s0.2-2.2,0.7-2.8S39.1,270.5,40,270.5z M40,271.3c-0.5,0-0.9,0.2-1.2,0.8c-0.3,0.5-0.4,1.2-0.4,2.2s0.1,1.8,0.4,2.2
	c0.3,0.5,0.6,0.8,1.2,0.8s0.9-0.2,1.2-0.8c0.3-0.5,0.4-1.2,0.4-2.2s-0.1-1.8-0.4-2.2C40.8,271.5,40.5,271.3,40,271.3z"/>
<g>
	<defs>
		<rect id="SVGID_00000030468055845871268480000015127756573391159470_" x="50.1" y="11" width="418.8" height="279.5"/>
	</defs>
	<clipPath id="SVGID_00000113329075583569650260000004351176523530960513_">
		<use xlink:href="#SVGID_00000030468055845871268480000015127756573391159470_"  style="overflow:visible;"/>
	</clipPath>
	<g style="clip-path:url(#SVGID_00000113329075583569650260000004351176523530960513_);">
		<line class="st3" x1="50.1" y1="241.2" x2="468.9" y2="241.2"/>
	</g>
</g>
<line class="st1" x1="50.1" y1="241.2" x2="46.6" y2="241.2"/>
<path d="M24,237.6c0.8,0,1.4,0.3,1.9,1s0.6,1.6,0.6,2.8s-0.2,2.2-0.6,2.8s-1.1,1-1.9,1s-1.4-0.3-1.9-1s-0.6-1.6-0.6-2.8
	s0.2-2.2,0.6-2.8C22.6,237.9,23.2,237.6,24,237.6z M24,238.4c-0.5,0-0.9,0.2-1.1,0.8s-0.4,1.2-0.4,2.2s0.1,1.8,0.4,2.2
	c0.3,0.5,0.6,0.8,1.1,0.8s0.9-0.2,1.1-0.8s0.4-1.2,0.4-2.2s-0.1-1.8-0.4-2.2C24.9,238.6,24.6,238.4,24,238.4z"/>
<path d="M28.3,243.8h1v1.2h-1V243.8z"/>
<path d="M31.5,237.7h3.9v0.8h-3v1.8c0.1-0.1,0.3-0.1,0.4-0.1c0.1,0,0.3,0,0.4,0c0.8,0,1.5,0.2,1.9,0.7s0.7,1.1,0.7,1.8
	s-0.2,1.4-0.7,1.8c-0.5,0.4-1.2,0.6-2.1,0.6c-0.3,0-0.6,0-0.9-0.1s-0.6-0.1-1-0.2v-1c0.3,0.2,0.6,0.3,0.9,0.4c0.3,0.1,0.6,0.1,1,0.1
	c0.6,0,1-0.1,1.3-0.4s0.5-0.7,0.5-1.2s-0.2-0.9-0.5-1.2s-0.8-0.4-1.3-0.4c-0.3,0-0.5,0-0.8,0.1s-0.5,0.1-0.8,0.3L31.5,237.7
	L31.5,237.7z"/>
<path d="M37.8,237.7h3.9v0.8h-3v1.8c0.1-0.1,0.3-0.1,0.4-0.1c0.1,0,0.3,0,0.4,0c0.8,0,1.5,0.2,1.9,0.7s0.7,1.1,0.7,1.8
	s-0.2,1.4-0.7,1.8c-0.5,0.4-1.2,0.6-2.1,0.6c-0.3,0-0.6,0-0.9-0.1s-0.7-0.1-1-0.2v-1c0.3,0.2,0.6,0.3,0.9,0.4s0.6,0.1,1,0.1
	c0.6,0,1-0.1,1.3-0.4s0.5-0.7,0.5-1.2s-0.2-0.9-0.5-1.2S40,241,39.4,241c-0.3,0-0.5,0-0.8,0.1s-0.5,0.1-0.8,0.3L37.8,237.7
	L37.8,237.7z"/>
<g>
	<defs>
		<rect id="SVGID_00000003798924722782790630000008348578820419626151_" x="50.1" y="11" width="418.8" height="279.5"/>
	</defs>
	<clipPath id="SVGID_00000038414682886438127770000014265507142702077345_">
		<use xlink:href="#SVGID_00000003798924722782790630000008348578820419626151_"  style="overflow:visible;"/>
	</clipPath>
	<g style="clip-path:url(#SVGID_00000038414682886438127770000014265507142702077345_);">
		<line class="st3" x1="50.1" y1="208.3" x2="468.9" y2="208.3"/>
	</g>
</g>
<line class="st1" x1="50.1" y1="208.3" x2="46.6" y2="208.3"/>
<path d="M24,204.7c0.8,0,1.4,0.3,1.9,1s0.6,1.6,0.6,2.8s-0.2,2.2-0.6,2.8s-1.1,1-1.9,1s-1.4-0.3-1.9-1s-0.6-1.6-0.6-2.8
	s0.2-2.2,0.6-2.8C22.6,205,23.2,204.7,24,204.7z M24,205.5c-0.5,0-0.9,0.2-1.1,0.8s-0.4,1.2-0.4,2.2s0.1,1.8,0.4,2.2
	c0.3,0.5,0.6,0.8,1.1,0.8s0.9-0.2,1.1-0.8s0.4-1.2,0.4-2.2s-0.1-1.8-0.4-2.2C24.9,205.7,24.6,205.5,24,205.5z"/>
<path d="M28.3,210.9h1v1.2h-1V210.9z"/>
<path d="M35.7,205v0.9c-0.2-0.1-0.5-0.2-0.8-0.3s-0.5-0.1-0.8-0.1c-0.7,0-1.2,0.2-1.5,0.7s-0.5,1.1-0.6,2c0.2-0.3,0.4-0.5,0.7-0.6
	s0.6-0.2,1-0.2c0.7,0,1.3,0.2,1.7,0.7c0.4,0.4,0.6,1.1,0.6,1.8s-0.2,1.4-0.7,1.8s-1,0.7-1.8,0.7c-0.8,0-1.5-0.3-1.9-1
	c-0.5-0.6-0.7-1.6-0.7-2.8c0-1.1,0.3-2.1,0.8-2.8c0.6-0.7,1.3-1,2.2-1c0.2,0,0.5,0,0.8,0.1S35.4,204.9,35.7,205L35.7,205z
	 M33.7,208.1c-0.4,0-0.8,0.1-1,0.4s-0.4,0.7-0.4,1.2s0.1,0.9,0.4,1.2s0.6,0.5,1,0.5s0.8-0.1,1-0.5c0.3-0.3,0.4-0.7,0.4-1.2
	s-0.1-0.9-0.4-1.2S34.1,208.1,33.7,208.1z"/>
<path d="M40,204.7c0.8,0,1.4,0.3,1.9,1s0.7,1.6,0.7,2.8s-0.2,2.2-0.7,2.8s-1.1,1-1.9,1s-1.4-0.3-1.9-1s-0.7-1.6-0.7-2.8
	s0.2-2.2,0.7-2.8C38.5,205,39.1,204.7,40,204.7z M40,205.5c-0.5,0-0.9,0.2-1.2,0.8c-0.3,0.5-0.4,1.2-0.4,2.2s0.1,1.8,0.4,2.2
	c0.3,0.5,0.6,0.8,1.2,0.8s0.9-0.2,1.2-0.8c0.3-0.5,0.4-1.2,0.4-2.2s-0.1-1.8-0.4-2.2C40.8,205.7,40.5,205.5,40,205.5z"/>
<g>
	<defs>
		<rect id="SVGID_00000115505819569534126990000006243040549792825497_" x="50.1" y="11" width="418.8" height="279.5"/>
	</defs>
	<clipPath id="SVGID_00000152949946233501891360000009570028122290963083_">
		<use xlink:href="#SVGID_00000115505819569534126990000006243040549792825497_"  style="overflow:visible;"/>
	</clipPath>
	<g style="clip-path:url(#SVGID_00000152949946233501891360000009570028122290963083_);">
		<line class="st3" x1="50.1" y1="175.4" x2="468.9" y2="175.4"/>
	</g>
</g>
<line class="st1" x1="50.1" y1="175.4" x2="46.6" y2="175.4"/>
<path d="M24,171.8c0.8,0,1.4,0.3,1.9,1s0.6,1.6,0.6,2.8s-0.2,2.2-0.6,2.8s-1.1,1-1.9,1s-1.4-0.3-1.9-1s-0.6-1.6-0.6-2.8
	s0.2-2.2,0.6-2.8C22.6,172.1,23.2,171.8,24,171.8z M24,172.6c-0.5,0-0.9,0.2-1.1,0.8s-0.4,1.2-0.4,2.2s0.1,1.8,0.4,2.2
	c0.3,0.5,0.6,0.8,1.1,0.8s0.9-0.2,1.1-0.8s0.4-1.2,0.4-2.2s-0.1-1.8-0.4-2.2C24.9,172.8,24.6,172.6,24,172.6z"/>
<path d="M28.3,178h1v1.2h-1V178z"/>
<path d="M35.7,172.1v0.9c-0.2-0.1-0.5-0.2-0.8-0.3s-0.5-0.1-0.8-0.1c-0.7,0-1.2,0.2-1.5,0.7s-0.5,1.1-0.6,2c0.2-0.3,0.4-0.5,0.7-0.6
	s0.6-0.2,1-0.2c0.7,0,1.3,0.2,1.7,0.7c0.4,0.4,0.6,1.1,0.6,1.8s-0.2,1.4-0.7,1.8s-1,0.7-1.8,0.7c-0.8,0-1.5-0.3-1.9-1
	c-0.5-0.6-0.7-1.6-0.7-2.8c0-1.1,0.3-2.1,0.8-2.8c0.6-0.7,1.3-1,2.2-1c0.2,0,0.5,0,0.8,0.1S35.4,172,35.7,172.1L35.7,172.1z
	 M33.7,175.2c-0.4,0-0.8,0.1-1,0.4s-0.4,0.7-0.4,1.2s0.1,0.9,0.4,1.2s0.6,0.5,1,0.5s0.8-0.1,1-0.5c0.3-0.3,0.4-0.7,0.4-1.2
	s-0.1-0.9-0.4-1.2S34.1,175.2,33.7,175.2z"/>
<path d="M37.8,171.9h3.9v0.8h-3v1.8c0.1-0.1,0.3-0.1,0.4-0.1c0.1,0,0.3,0,0.4,0c0.8,0,1.5,0.2,1.9,0.7s0.7,1.1,0.7,1.8
	s-0.2,1.4-0.7,1.8c-0.5,0.4-1.2,0.6-2.1,0.6c-0.3,0-0.6,0-0.9-0.1s-0.7-0.1-1-0.2v-1c0.3,0.2,0.6,0.3,0.9,0.4s0.6,0.1,1,0.1
	c0.6,0,1-0.1,1.3-0.4s0.5-0.7,0.5-1.2s-0.2-0.9-0.5-1.2s-0.8-0.4-1.3-0.4c-0.3,0-0.5,0-0.8,0.1s-0.5,0.1-0.8,0.3L37.8,171.9
	L37.8,171.9z"/>
<g>
	<defs>
		<rect id="SVGID_00000006674985919636671250000004513731095767511733_" x="50.1" y="11" width="418.8" height="279.5"/>
	</defs>
	<clipPath id="SVGID_00000074413106480161352800000002414789485795734923_">
		<use xlink:href="#SVGID_00000006674985919636671250000004513731095767511733_"  style="overflow:visible;"/>
	</clipPath>
	<g style="clip-path:url(#SVGID_00000074413106480161352800000002414789485795734923_);">
		<line class="st3" x1="50.1" y1="142.6" x2="468.9" y2="142.6"/>
	</g>
</g>
<line class="st1" x1="50.1" y1="142.6" x2="46.6" y2="142.6"/>
<path d="M24,138.9c0.8,0,1.4,0.3,1.9,1s0.6,1.6,0.6,2.8s-0.2,2.2-0.6,2.8s-1.1,1-1.9,1s-1.4-0.3-1.9-1s-0.6-1.6-0.6-2.8
	s0.2-2.2,0.6-2.8C22.6,139.2,23.2,138.9,24,138.9z M24,139.7c-0.5,0-0.9,0.2-1.1,0.8s-0.4,1.2-0.4,2.2s0.1,1.8,0.4,2.2
	c0.3,0.5,0.6,0.8,1.1,0.8s0.9-0.2,1.1-0.8s0.4-1.2,0.4-2.2s-0.1-1.8-0.4-2.2C24.9,140,24.6,139.7,24,139.7z"/>
<path d="M28.3,145.1h1v1.2h-1V145.1z"/>
<path d="M31.2,139.1h4.7v0.4l-2.7,6.9h-1l2.5-6.5h-3.5V139.1L31.2,139.1z"/>
<path d="M40,138.9c0.8,0,1.4,0.3,1.9,1s0.7,1.6,0.7,2.8s-0.2,2.2-0.7,2.8s-1.1,1-1.9,1s-1.4-0.3-1.9-1s-0.7-1.6-0.7-2.8
	s0.2-2.2,0.7-2.8C38.5,139.2,39.1,138.9,40,138.9z M40,139.7c-0.5,0-0.9,0.2-1.2,0.8c-0.3,0.5-0.4,1.2-0.4,2.2s0.1,1.8,0.4,2.2
	c0.3,0.5,0.6,0.8,1.2,0.8s0.9-0.2,1.2-0.8c0.3-0.5,0.4-1.2,0.4-2.2s-0.1-1.8-0.4-2.2C40.8,140,40.5,139.7,40,139.7z"/>
<g>
	<defs>
		<rect id="SVGID_00000176755679383982805450000005844681623306057137_" x="50.1" y="11" width="418.8" height="279.5"/>
	</defs>
	<clipPath id="SVGID_00000136387924476310036050000013996846040587825309_">
		<use xlink:href="#SVGID_00000176755679383982805450000005844681623306057137_"  style="overflow:visible;"/>
	</clipPath>
	<g style="clip-path:url(#SVGID_00000136387924476310036050000013996846040587825309_);">
		<line class="st3" x1="50.1" y1="109.7" x2="468.9" y2="109.7"/>
	</g>
</g>
<line class="st1" x1="50.1" y1="109.7" x2="46.6" y2="109.7"/>
<path d="M24,106c0.8,0,1.4,0.3,1.9,1s0.6,1.6,0.6,2.8s-0.2,2.2-0.6,2.8c-0.4,0.7-1.1,1-1.9,1s-1.4-0.3-1.9-1s-0.6-1.6-0.6-2.8
	s0.2-2.2,0.6-2.8S23.2,106,24,106z M24,106.8c-0.5,0-0.9,0.2-1.1,0.8s-0.4,1.2-0.4,2.2s0.1,1.8,0.4,2.2c0.3,0.5,0.6,0.8,1.1,0.8
	s0.9-0.2,1.1-0.8s0.4-1.2,0.4-2.2s-0.1-1.8-0.4-2.2C24.9,107.1,24.6,106.8,24,106.8z"/>
<path d="M28.3,112.2h1v1.2h-1V112.2z"/>
<path d="M31.2,106.2h4.7v0.4l-2.7,6.9h-1l2.5-6.5h-3.5V106.2z"/>
<path d="M37.8,106.2h3.9v0.8h-3v1.8c0.1-0.1,0.3-0.1,0.4-0.1c0.1,0,0.3,0,0.4,0c0.8,0,1.5,0.2,1.9,0.7s0.7,1.1,0.7,1.8
	s-0.2,1.4-0.7,1.8c-0.5,0.4-1.2,0.7-2.1,0.7c-0.3,0-0.6,0-0.9-0.1s-0.7-0.1-1-0.2v-1c0.3,0.2,0.6,0.3,0.9,0.4s0.6,0.1,1,0.1
	c0.6,0,1-0.2,1.3-0.4s0.5-0.7,0.5-1.2s-0.2-0.9-0.5-1.2s-0.8-0.4-1.3-0.4c-0.3,0-0.5,0-0.8,0.1s-0.5,0.2-0.8,0.3L37.8,106.2
	L37.8,106.2z"/>
<g>
	<defs>
		<rect id="SVGID_00000130632288333127087620000004955044115170539181_" x="50.1" y="11" width="418.8" height="279.5"/>
	</defs>
	<clipPath id="SVGID_00000181049239795045225830000018332969901784590247_">
		<use xlink:href="#SVGID_00000130632288333127087620000004955044115170539181_"  style="overflow:visible;"/>
	</clipPath>
	<g style="clip-path:url(#SVGID_00000181049239795045225830000018332969901784590247_);">
		<line class="st3" x1="50.1" y1="76.8" x2="468.9" y2="76.8"/>
	</g>
</g>
<line class="st1" x1="50.1" y1="76.8" x2="46.6" y2="76.8"/>
<path d="M24,73.2c0.8,0,1.4,0.3,1.9,1s0.6,1.6,0.6,2.8s-0.2,2.2-0.6,2.8c-0.4,0.7-1.1,1-1.9,1s-1.4-0.3-1.9-1s-0.6-1.6-0.6-2.8
	s0.2-2.2,0.6-2.8S23.2,73.2,24,73.2z M24,73.9c-0.5,0-0.9,0.2-1.1,0.8s-0.4,1.2-0.4,2.2s0.1,1.8,0.4,2.2c0.3,0.5,0.6,0.8,1.1,0.8
	s0.9-0.2,1.1-0.8s0.4-1.2,0.4-2.2s-0.1-1.8-0.4-2.2C24.9,74.2,24.6,73.9,24,73.9z"/>
<path d="M28.3,79.3h1v1.2h-1V79.3z"/>
<path d="M32.6,76.7c-0.4-0.1-0.8-0.3-1-0.6s-0.4-0.6-0.4-1.1c0-0.6,0.2-1,0.6-1.4s1-0.5,1.7-0.5s1.3,0.2,1.7,0.5s0.6,0.8,0.6,1.4
	c0,0.4-0.1,0.8-0.3,1.1s-0.6,0.5-1,0.6c0.5,0.1,0.8,0.3,1.1,0.7s0.4,0.7,0.4,1.2c0,0.7-0.2,1.2-0.7,1.6s-1,0.6-1.8,0.6
	s-1.4-0.2-1.9-0.6s-0.6-0.9-0.6-1.6c0-0.5,0.1-0.9,0.4-1.2S32.2,76.8,32.6,76.7L32.6,76.7z M33.6,77.1c-0.5,0-0.8,0.1-1.1,0.4
	s-0.4,0.6-0.4,1s0.1,0.8,0.4,1s0.6,0.4,1.1,0.4s0.8-0.1,1.1-0.4s0.4-0.6,0.4-1s-0.1-0.8-0.4-1S34.1,77.1,33.6,77.1L33.6,77.1z
	 M32.3,75.1c0,0.4,0.1,0.7,0.3,0.9s0.6,0.3,1,0.3s0.8-0.1,1-0.3s0.4-0.5,0.4-0.9s-0.1-0.7-0.4-0.9s-0.6-0.3-1-0.3s-0.8,0.1-1,0.3
	S32.3,74.8,32.3,75.1z"/>
<path d="M40,73.2c0.8,0,1.4,0.3,1.9,1s0.7,1.6,0.7,2.8s-0.2,2.2-0.7,2.8c-0.4,0.7-1.1,1-1.9,1s-1.4-0.3-1.9-1s-0.7-1.6-0.7-2.8
	s0.2-2.2,0.7-2.8S39.1,73.2,40,73.2z M40,73.9c-0.5,0-0.9,0.2-1.2,0.8c-0.3,0.5-0.4,1.2-0.4,2.2s0.1,1.8,0.4,2.2
	c0.3,0.5,0.6,0.8,1.2,0.8s0.9-0.2,1.2-0.8c0.3-0.5,0.4-1.2,0.4-2.2s-0.1-1.8-0.4-2.2C40.8,74.2,40.5,73.9,40,73.9z"/>
<g>
	<defs>
		<rect id="SVGID_00000075873046914768793180000006928065552281530005_" x="50.1" y="11" width="418.8" height="279.5"/>
	</defs>
	<clipPath id="SVGID_00000163065042576004444450000006031458730046087045_">
		<use xlink:href="#SVGID_00000075873046914768793180000006928065552281530005_"  style="overflow:visible;"/>
	</clipPath>
	<g style="clip-path:url(#SVGID_00000163065042576004444450000006031458730046087045_);">
		<line class="st3" x1="50.1" y1="43.9" x2="468.9" y2="43.9"/>
	</g>
</g>
<line class="st1" x1="50.1" y1="43.9" x2="46.6" y2="43.9"/>
<path d="M24,40.3c0.8,0,1.4,0.3,1.9,1s0.6,1.6,0.6,2.8s-0.2,2.2-0.6,2.8s-1.1,1-1.9,1s-1.4-0.3-1.9-1s-0.6-1.6-0.6-2.8
	s0.2-2.2,0.6-2.8C22.6,40.6,23.2,40.3,24,40.3z M24,41c-0.5,0-0.9,0.2-1.1,0.8S22.5,43,22.5,44s0.1,1.8,0.4,2.2
	c0.3,0.5,0.6,0.8,1.1,0.8s0.9-0.2,1.1-0.8s0.4-1.2,0.4-2.2s-0.1-1.8-0.4-2.2C24.9,41.3,24.6,41,24,41z"/>
<path d="M28.3,46.4h1v1.2h-1V46.4z"/>
<path d="M32.6,43.8c-0.4-0.1-0.8-0.3-1-0.6s-0.4-0.6-0.4-1.1c0-0.6,0.2-1,0.6-1.4s1-0.5,1.7-0.5s1.3,0.2,1.7,0.5s0.6,0.8,0.6,1.4
	c0,0.4-0.1,0.8-0.3,1.1s-0.6,0.5-1,0.6c0.5,0.1,0.8,0.3,1.1,0.7s0.4,0.7,0.4,1.2c0,0.7-0.2,1.2-0.7,1.6s-1,0.6-1.8,0.6
	s-1.4-0.2-1.9-0.6s-0.6-0.9-0.6-1.6c0-0.5,0.1-0.9,0.4-1.2S32.2,43.9,32.6,43.8L32.6,43.8z M33.6,44.2c-0.5,0-0.8,0.1-1.1,0.4
	s-0.4,0.6-0.4,1s0.1,0.8,0.4,1s0.6,0.4,1.1,0.4s0.8-0.1,1.1-0.4s0.4-0.6,0.4-1s-0.1-0.8-0.4-1S34.1,44.2,33.6,44.2L33.6,44.2z
	 M32.3,42.2c0,0.4,0.1,0.7,0.3,0.9s0.6,0.3,1,0.3s0.8-0.1,1-0.3s0.4-0.5,0.4-0.9s-0.1-0.7-0.4-0.9S34,41,33.6,41s-0.8,0.1-1,0.3
	S32.3,41.9,32.3,42.2z"/>
<path d="M37.8,40.4h3.9v0.8h-3V43c0.1,0,0.3-0.1,0.4-0.1c0.1,0,0.3,0,0.4,0c0.8,0,1.5,0.2,1.9,0.7s0.7,1,0.7,1.8s-0.2,1.4-0.7,1.8
	c-0.5,0.4-1.2,0.7-2.1,0.7c-0.3,0-0.6,0-0.9-0.1s-0.7-0.1-1-0.2v-1c0.3,0.2,0.6,0.3,0.9,0.4s0.6,0.1,1,0.1c0.6,0,1-0.2,1.3-0.4
	s0.5-0.7,0.5-1.2s-0.2-0.9-0.5-1.2s-0.8-0.4-1.3-0.4c-0.3,0-0.5,0-0.8,0.1s-0.5,0.2-0.8,0.3L37.8,40.4L37.8,40.4z"/>
<g>
	<defs>
		<rect id="SVGID_00000101789795957197153680000015928376437757124031_" x="50.1" y="11" width="418.8" height="279.5"/>
	</defs>
	<clipPath id="SVGID_00000160162457279278319980000016418566906434352268_">
		<use xlink:href="#SVGID_00000101789795957197153680000015928376437757124031_"  style="overflow:visible;"/>
	</clipPath>
	<g style="clip-path:url(#SVGID_00000160162457279278319980000016418566906434352268_);">
		<line class="st3" x1="50.1" y1="11" x2="468.9" y2="11"/>
	</g>
</g>
<line class="st1" x1="50.1" y1="11" x2="46.6" y2="11"/>
<path d="M24,7.4c0.8,0,1.4,0.3,1.9,1s0.6,1.6,0.6,2.8s-0.2,2.2-0.6,2.8s-1.1,1-1.9,1s-1.4-0.3-1.9-1c-0.4-0.6-0.6-1.6-0.6-2.8
	s0.2-2.2,0.6-2.8S23.2,7.4,24,7.4z M24,8.1c-0.5,0-0.9,0.2-1.1,0.8s-0.4,1.2-0.4,2.2s0.1,1.8,0.4,2.2c0.3,0.5,0.6,0.8,1.1,0.8
	s0.9-0.2,1.1-0.8s0.4-1.2,0.4-2.2s-0.1-1.8-0.4-2.2C24.9,8.4,24.6,8.1,24,8.1z"/>
<path d="M28.3,13.6h1v1.2h-1V13.6z"/>
<path d="M31.5,14.6v-0.9c0.2,0.1,0.5,0.2,0.8,0.3s0.5,0.1,0.8,0.1c0.7,0,1.2-0.2,1.5-0.7s0.5-1.1,0.6-2c-0.2,0.3-0.4,0.5-0.7,0.6
	s-0.6,0.2-1,0.2c-0.7,0-1.3-0.2-1.7-0.7c-0.4-0.4-0.6-1-0.6-1.8s0.2-1.4,0.7-1.8c0.4-0.4,1-0.7,1.8-0.7c0.8,0,1.5,0.3,1.9,1
	s0.7,1.6,0.7,2.8c0,1.1-0.3,2.1-0.8,2.8c-0.5,0.7-1.3,1-2.2,1c-0.2,0-0.5,0-0.8-0.1S31.8,14.7,31.5,14.6z M33.5,11.6
	c0.4,0,0.8-0.1,1-0.4s0.4-0.7,0.4-1.2s-0.1-0.9-0.4-1.2s-0.6-0.5-1-0.5s-0.8,0.1-1,0.5C32.2,8.9,32,9.3,32,9.9s0.1,0.9,0.4,1.2
	S33,11.6,33.5,11.6z"/>
<path d="M40,7.4c0.8,0,1.4,0.3,1.9,1s0.7,1.6,0.7,2.8s-0.2,2.2-0.7,2.8s-1.1,1-1.9,1s-1.4-0.3-1.9-1c-0.4-0.6-0.7-1.6-0.7-2.8
	s0.2-2.2,0.7-2.8S39.1,7.4,40,7.4z M40,8.1c-0.5,0-0.9,0.2-1.2,0.8c-0.3,0.5-0.4,1.2-0.4,2.2s0.1,1.8,0.4,2.2
	c0.3,0.5,0.6,0.8,1.2,0.8s0.9-0.2,1.2-0.8c0.3-0.5,0.4-1.2,0.4-2.2s-0.1-1.8-0.4-2.2C40.8,8.4,40.5,8.1,40,8.1z"/>
<path d="M7.5,195.5v-2.2c0-0.8,0.2-1.4,0.6-1.9c0.4-0.4,0.9-0.6,1.6-0.6s1.3,0.2,1.6,0.6s0.6,1,0.6,1.9v1.2h2.9v1L7.5,195.5
	L7.5,195.5z M8.3,194.5h2.7v-1.2c0-0.5-0.1-0.8-0.4-1.1s-0.6-0.4-1-0.4s-0.8,0.1-1,0.4s-0.4,0.6-0.4,1.1L8.3,194.5L8.3,194.5z"/>
<path d="M10.2,186.5c-0.1,0.1-0.1,0.2-0.1,0.3s0,0.2,0,0.4c0,0.5,0.2,0.9,0.5,1.2s0.8,0.4,1.4,0.4h2.9v0.9H9.3v-0.9h0.9
	c-0.3-0.2-0.6-0.4-0.7-0.7c-0.2-0.3-0.2-0.7-0.2-1.1c0-0.1,0-0.1,0-0.2c0-0.1,0-0.2,0-0.2L10.2,186.5L10.2,186.5z"/>
<path d="M9.2,183.6c0-0.8,0.2-1.4,0.8-1.8c0.5-0.4,1.2-0.7,2.1-0.7s1.6,0.2,2.1,0.7c0.5,0.4,0.8,1.1,0.8,1.8s-0.2,1.4-0.8,1.8
	s-1.2,0.7-2.1,0.7s-1.6-0.2-2.1-0.7S9.2,184.4,9.2,183.6z M9.9,183.6c0,0.5,0.2,0.9,0.6,1.1c0.4,0.3,0.9,0.4,1.6,0.4
	s1.2-0.1,1.6-0.4s0.6-0.7,0.6-1.1s-0.2-0.9-0.6-1.1s-0.9-0.4-1.5-0.4s-1.2,0.1-1.5,0.4S10,183.2,9.9,183.6z"/>
<path d="M14,178.8h2.9v0.9H9.3v-0.9h0.8c-0.3-0.2-0.6-0.4-0.7-0.7c-0.2-0.3-0.2-0.6-0.2-1c0-0.7,0.3-1.2,0.8-1.6s1.2-0.6,2.1-0.6
	s1.6,0.2,2.1,0.6s0.8,0.9,0.8,1.6c0,0.4-0.1,0.8-0.2,1C14.5,178.3,14.3,178.6,14,178.8z M12.1,175.7c-0.7,0-1.2,0.1-1.6,0.4
	s-0.6,0.6-0.6,1.1s0.2,0.9,0.6,1.1c0.4,0.3,0.9,0.4,1.6,0.4s1.2-0.1,1.6-0.4c0.4-0.3,0.6-0.6,0.6-1.1s-0.2-0.9-0.6-1.1
	C13.2,175.9,12.7,175.7,12.1,175.7z"/>
<path d="M9.2,171.2c0-0.8,0.2-1.4,0.8-1.8s1.2-0.7,2.1-0.7s1.6,0.2,2.1,0.7c0.5,0.4,0.8,1.1,0.8,1.8s-0.2,1.4-0.8,1.8
	s-1.2,0.7-2.1,0.7s-1.6-0.2-2.1-0.7S9.2,171.9,9.2,171.2z M9.9,171.2c0,0.5,0.2,0.9,0.6,1.1c0.4,0.3,0.9,0.4,1.6,0.4
	s1.2-0.1,1.6-0.4s0.6-0.7,0.6-1.1s-0.2-0.9-0.6-1.1s-0.9-0.4-1.5-0.4s-1.2,0.1-1.5,0.4S10,170.7,9.9,171.2L9.9,171.2z"/>
<path d="M10.2,164c-0.1,0.1-0.1,0.2-0.1,0.3s0,0.2,0,0.4c0,0.5,0.2,0.9,0.5,1.2s0.8,0.4,1.4,0.4h2.9v0.9H9.3v-0.9h0.9
	c-0.3-0.2-0.6-0.4-0.7-0.7c-0.2-0.3-0.2-0.7-0.2-1.1c0-0.1,0-0.1,0-0.2c0-0.1,0-0.2,0-0.2L10.2,164L10.2,164z"/>
<path d="M7.8,162.2h1.5v-1.9H10v1.9h3c0.4,0,0.7-0.1,0.9-0.2s0.2-0.4,0.2-0.7v-0.9h0.8v0.9c0,0.7-0.1,1.2-0.4,1.4
	c-0.3,0.3-0.7,0.4-1.4,0.4h-3v0.7H9.3v-0.7H7.8L7.8,162.2L7.8,162.2z"/>
<path d="M7.2,159.1v-0.9h1.1v0.9C8.3,159.1,7.2,159.1,7.2,159.1z M9.3,159.1v-0.9h5.5v0.9H9.3z"/>
<path d="M9.2,154.2c0-0.8,0.2-1.4,0.8-1.8s1.2-0.7,2.1-0.7s1.6,0.2,2.1,0.7c0.5,0.4,0.8,1.1,0.8,1.8s-0.2,1.4-0.8,1.8
	s-1.2,0.7-2.1,0.7s-1.6-0.2-2.1-0.7S9.2,155,9.2,154.2z M9.9,154.2c0,0.5,0.2,0.9,0.6,1.1c0.4,0.3,0.9,0.4,1.6,0.4s1.2-0.1,1.6-0.4
	s0.6-0.7,0.6-1.1s-0.2-0.9-0.6-1.1s-0.9-0.4-1.5-0.4s-1.2,0.1-1.5,0.4S10,153.8,9.9,154.2L9.9,154.2z"/>
<path d="M11.5,145.7h3.3v0.9h-3.3c-0.5,0-0.9,0.1-1.2,0.3s-0.4,0.5-0.4,0.9c0,0.5,0.1,0.9,0.5,1.1s0.7,0.4,1.3,0.4h3.1v0.9H9.3v-0.9
	h0.9c-0.3-0.2-0.6-0.5-0.7-0.8s-0.2-0.6-0.2-1c0-0.6,0.2-1.1,0.6-1.4C10.2,145.9,10.7,145.7,11.5,145.7L11.5,145.7z"/>
<path d="M8.1,135.2h1c-0.3,0.3-0.5,0.7-0.7,1.1s-0.2,0.8-0.2,1.2c0,0.8,0.2,1.5,0.8,1.9s1.2,0.7,2.2,0.7s1.7-0.2,2.2-0.7
	c0.5-0.4,0.8-1.1,0.8-1.9c0-0.4-0.1-0.8-0.2-1.2s-0.4-0.7-0.7-1.1h1c0.2,0.4,0.4,0.7,0.5,1.1s0.2,0.8,0.2,1.2c0,1.1-0.3,2-1,2.6
	c-0.7,0.6-1.6,0.9-2.8,0.9s-2.1-0.3-2.8-0.9c-0.7-0.6-1-1.5-1-2.6c0-0.4,0.1-0.9,0.2-1.2C7.7,135.9,7.8,135.6,8.1,135.2L8.1,135.2z"
	/>
<path d="M9.2,131.6c0-0.8,0.2-1.4,0.8-1.8s1.2-0.7,2.1-0.7s1.6,0.2,2.1,0.7c0.5,0.4,0.8,1.1,0.8,1.8s-0.2,1.4-0.8,1.8
	s-1.2,0.7-2.1,0.7s-1.6-0.2-2.1-0.7S9.2,132.4,9.2,131.6z M9.9,131.6c0,0.5,0.2,0.9,0.6,1.1c0.4,0.3,0.9,0.4,1.6,0.4
	s1.2-0.1,1.6-0.4s0.6-0.7,0.6-1.1s-0.2-0.9-0.6-1.1s-0.9-0.4-1.5-0.4s-1.2,0.1-1.5,0.4S10,131.1,9.9,131.6L9.9,131.6z"/>
<path d="M10.2,124.5c-0.1,0.1-0.1,0.2-0.1,0.3s0,0.2,0,0.4c0,0.5,0.2,0.9,0.5,1.2s0.8,0.4,1.4,0.4h2.9v0.9H9.3v-0.9h0.9
	c-0.3-0.2-0.6-0.4-0.7-0.7c-0.2-0.3-0.2-0.7-0.2-1.1c0-0.1,0-0.1,0-0.2c0-0.1,0-0.2,0-0.2C9.3,124.5,10.2,124.5,10.2,124.5z"/>
<path d="M10.2,120.5c-0.1,0.1-0.1,0.2-0.1,0.3s0,0.2,0,0.4c0,0.5,0.2,0.9,0.5,1.2s0.8,0.4,1.4,0.4h2.9v0.9H9.3v-0.9h0.9
	c-0.3-0.2-0.6-0.4-0.7-0.7c-0.2-0.3-0.2-0.7-0.2-1.1c0-0.1,0-0.1,0-0.2c0-0.1,0-0.2,0-0.2C9.3,120.5,10.2,120.5,10.2,120.5z"/>
<path d="M11.8,115.1h0.4v4.1c0.6,0,1.1-0.2,1.4-0.6c0.3-0.3,0.5-0.8,0.5-1.4c0-0.3,0-0.7-0.1-1s-0.2-0.7-0.4-1h0.9
	c0.1,0.3,0.2,0.7,0.3,1s0.1,0.7,0.1,1c0,0.9-0.2,1.6-0.8,2.1s-1.2,0.8-2.1,0.8s-1.6-0.2-2.1-0.7c-0.5-0.5-0.8-1.1-0.8-2
	c0-0.7,0.2-1.3,0.7-1.8S11,115.1,11.8,115.1L11.8,115.1z M11.6,116c-0.5,0-0.9,0.1-1.2,0.4s-0.4,0.6-0.4,1.1c0,0.5,0.1,0.9,0.4,1.2
	s0.7,0.5,1.2,0.5V116z"/>
<path d="M9.5,109.7h0.8c-0.1,0.2-0.2,0.5-0.3,0.8c-0.1,0.3-0.1,0.5-0.1,0.8c0,0.6,0.2,1,0.6,1.4s0.9,0.5,1.6,0.5s1.2-0.2,1.6-0.5
	c0.4-0.3,0.6-0.8,0.6-1.4c0-0.3,0-0.5-0.1-0.8c-0.1-0.3-0.2-0.5-0.3-0.8h0.8c0.1,0.2,0.2,0.5,0.3,0.8s0.1,0.6,0.1,0.9
	c0,0.8-0.3,1.5-0.8,2s-1.2,0.7-2.1,0.7s-1.6-0.2-2.1-0.7s-0.8-1.2-0.8-2c0-0.3,0-0.6,0.1-0.8C9.3,110.2,9.4,110,9.5,109.7L9.5,109.7
	z"/>
<path d="M7.8,107.3h1.5v-1.8H10v1.8h3c0.4,0,0.7-0.1,0.9-0.2s0.2-0.4,0.2-0.7v-0.9h0.8v0.9c0,0.7-0.1,1.2-0.4,1.4
	c-0.3,0.3-0.7,0.4-1.4,0.4h-3v0.7H9.3v-0.7H7.8L7.8,107.3L7.8,107.3z"/>
<g>
	<defs>
		<rect id="SVGID_00000027565957087447037370000010832681189134478977_" x="50.1" y="11" width="418.8" height="279.5"/>
	</defs>
	<clipPath id="SVGID_00000120545370633842075550000006289415608385903791_">
		<use xlink:href="#SVGID_00000027565957087447037370000010832681189134478977_"  style="overflow:visible;"/>
	</clipPath>
	<g style="clip-path:url(#SVGID_00000120545370633842075550000006289415608385903791_);">
		<rect x="60.2" y="24.7" class="st13" width="20.2" height="578.3"/>
	</g>
</g>
<g>
	<defs>
		<rect id="SVGID_00000023271860799523199360000002588810153104260752_" x="50.1" y="11" width="418.8" height="279.5"/>
	</defs>
	<clipPath id="SVGID_00000103959556429851208760000003374811134105455804_">
		<use xlink:href="#SVGID_00000023271860799523199360000002588810153104260752_"  style="overflow:visible;"/>
	</clipPath>
	<g style="clip-path:url(#SVGID_00000103959556429851208760000003374811134105455804_);">
		<rect x="80.4" y="151.6" class="st15" width="20.2" height="451.4"/>
	</g>
</g>
<g>
	<defs>
		<rect id="SVGID_00000160152794194132133450000001723640567436874414_" x="50.1" y="11" width="418.8" height="279.5"/>
	</defs>
	<clipPath id="SVGID_00000043438588231037208550000000253046898901661600_">
		<use xlink:href="#SVGID_00000160152794194132133450000001723640567436874414_"  style="overflow:visible;"/>
	</clipPath>
	<g style="clip-path:url(#SVGID_00000043438588231037208550000000253046898901661600_);">
		<rect x="110.7" y="56.7" class="st13" width="20.2" height="546.3"/>
	</g>
</g>
<g>
	<defs>
		<rect id="SVGID_00000136382574981691349270000012404788483656553346_" x="50.1" y="11" width="418.8" height="279.5"/>
	</defs>
	<clipPath id="SVGID_00000139262836550040944190000001047459717735881885_">
		<use xlink:href="#SVGID_00000136382574981691349270000012404788483656553346_"  style="overflow:visible;"/>
	</clipPath>
	<g style="clip-path:url(#SVGID_00000139262836550040944190000001047459717735881885_);">
		<rect x="130.9" y="182" class="st15" width="20.2" height="421"/>
	</g>
</g>
<g>
	<defs>
		<rect id="SVGID_00000147194142214472453440000007020762025621704623_" x="50.1" y="11" width="418.8" height="279.5"/>
	</defs>
	<clipPath id="SVGID_00000092444938990589043190000000406460963013194660_">
		<use xlink:href="#SVGID_00000147194142214472453440000007020762025621704623_"  style="overflow:visible;"/>
	</clipPath>
	<g style="clip-path:url(#SVGID_00000092444938990589043190000000406460963013194660_);">
		<rect x="161.1" y="55.8" class="st13" width="20.2" height="547.2"/>
	</g>
</g>
<g>
	<defs>
		<rect id="SVGID_00000013190843408704472690000015193265758323415736_" x="50.1" y="11" width="418.8" height="279.5"/>
	</defs>
	<clipPath id="SVGID_00000037695079330107815420000014559551695741972615_">
		<use xlink:href="#SVGID_00000013190843408704472690000015193265758323415736_"  style="overflow:visible;"/>
	</clipPath>
	<g style="clip-path:url(#SVGID_00000037695079330107815420000014559551695741972615_);">
		<rect x="181.3" y="204.9" class="st15" width="20.2" height="398.1"/>
	</g>
</g>
<g>
	<defs>
		<rect id="SVGID_00000027578269365544496160000007077689473115484059_" x="50.1" y="11" width="418.8" height="279.5"/>
	</defs>
	<clipPath id="SVGID_00000037671930738695204390000005269688597325191078_">
		<use xlink:href="#SVGID_00000027578269365544496160000007077689473115484059_"  style="overflow:visible;"/>
	</clipPath>
	<g style="clip-path:url(#SVGID_00000037671930738695204390000005269688597325191078_);">
		<rect x="211.6" y="42.4" class="st13" width="20.2" height="560.6"/>
	</g>
</g>
<g>
	<defs>
		<rect id="SVGID_00000072270484051087694050000012974467384697315243_" x="50.1" y="11" width="418.8" height="279.5"/>
	</defs>
	<clipPath id="SVGID_00000085236856008088258840000007600344785988751510_">
		<use xlink:href="#SVGID_00000072270484051087694050000012974467384697315243_"  style="overflow:visible;"/>
	</clipPath>
	<g style="clip-path:url(#SVGID_00000085236856008088258840000007600344785988751510_);">
		<rect x="231.8" y="139.1" class="st15" width="20.2" height="463.9"/>
	</g>
</g>
<g>
	<defs>
		<rect id="SVGID_00000108291782777004458030000009271266645964251039_" x="50.1" y="11" width="418.8" height="279.5"/>
	</defs>
	<clipPath id="SVGID_00000101096422968425174760000018293935004213617847_">
		<use xlink:href="#SVGID_00000108291782777004458030000009271266645964251039_"  style="overflow:visible;"/>
	</clipPath>
	<g style="clip-path:url(#SVGID_00000101096422968425174760000018293935004213617847_);">
		<rect x="262" y="24.2" class="st13" width="20.2" height="578.8"/>
	</g>
</g>
<g>
	<defs>
		<rect id="SVGID_00000038390982648101888220000007042021832984092583_" x="50.1" y="11" width="418.8" height="279.5"/>
	</defs>
	<clipPath id="SVGID_00000162349546464003128730000005464573401359843501_">
		<use xlink:href="#SVGID_00000038390982648101888220000007042021832984092583_"  style="overflow:visible;"/>
	</clipPath>
	<g style="clip-path:url(#SVGID_00000162349546464003128730000005464573401359843501_);">
		<rect x="282.2" y="211.1" class="st15" width="20.2" height="391.8"/>
	</g>
</g>
<g>
	<defs>
		<rect id="SVGID_00000143604546659426897500000007434084798526516407_" x="50.1" y="11" width="418.8" height="279.5"/>
	</defs>
	<clipPath id="SVGID_00000146473763279785765040000004097677288579593913_">
		<use xlink:href="#SVGID_00000143604546659426897500000007434084798526516407_"  style="overflow:visible;"/>
	</clipPath>
	<g style="clip-path:url(#SVGID_00000146473763279785765040000004097677288579593913_);">
		<rect x="312.5" y="49.9" class="st13" width="20.2" height="553.1"/>
	</g>
</g>
<g>
	<defs>
		<rect id="SVGID_00000141419236365253490500000016314620653418751107_" x="50.1" y="11" width="418.8" height="279.5"/>
	</defs>
	<clipPath id="SVGID_00000143581542937243244850000006163204490378387617_">
		<use xlink:href="#SVGID_00000141419236365253490500000016314620653418751107_"  style="overflow:visible;"/>
	</clipPath>
	<g style="clip-path:url(#SVGID_00000143581542937243244850000006163204490378387617_);">
		<rect x="332.7" y="182.2" class="st15" width="20.2" height="420.8"/>
	</g>
</g>
<g>
	<defs>
		<rect id="SVGID_00000057140363980704884940000005043065033232959659_" x="50.1" y="11" width="418.8" height="279.5"/>
	</defs>
	<clipPath id="SVGID_00000119097282891217469850000007801320138877407923_">
		<use xlink:href="#SVGID_00000057140363980704884940000005043065033232959659_"  style="overflow:visible;"/>
	</clipPath>
	<g style="clip-path:url(#SVGID_00000119097282891217469850000007801320138877407923_);">
		<rect x="362.9" y="77" class="st13" width="20.2" height="525.9"/>
	</g>
</g>
<g>
	<defs>
		<rect id="SVGID_00000096771386677359465810000017240025378046150289_" x="50.1" y="11" width="418.8" height="279.5"/>
	</defs>
	<clipPath id="SVGID_00000080188351179146264770000012323331683405351066_">
		<use xlink:href="#SVGID_00000096771386677359465810000017240025378046150289_"  style="overflow:visible;"/>
	</clipPath>
	<g style="clip-path:url(#SVGID_00000080188351179146264770000012323331683405351066_);">
		<rect x="393.2" y="84.1" class="st13" width="20.2" height="518.9"/>
	</g>
</g>
<g>
	<defs>
		<rect id="SVGID_00000015326111410816063430000008687309056001782953_" x="50.1" y="11" width="418.8" height="279.5"/>
	</defs>
	<clipPath id="SVGID_00000031204607058418506630000003013759049363067569_">
		<use xlink:href="#SVGID_00000015326111410816063430000008687309056001782953_"  style="overflow:visible;"/>
	</clipPath>
	<g style="clip-path:url(#SVGID_00000031204607058418506630000003013759049363067569_);">
		<rect x="423.5" y="90.3" class="st13" width="20.2" height="512.6"/>
	</g>
</g>
<g>
	<defs>
		<rect id="SVGID_00000056427686725617791580000017469219445279304853_" x="50.1" y="11" width="418.8" height="279.5"/>
	</defs>
	<clipPath id="SVGID_00000142159467326649334030000011284713855006295205_">
		<use xlink:href="#SVGID_00000056427686725617791580000017469219445279304853_"  style="overflow:visible;"/>
	</clipPath>
	<g style="clip-path:url(#SVGID_00000142159467326649334030000011284713855006295205_);">
		<rect x="443.7" y="208.3" class="st15" width="20.2" height="394.7"/>
	</g>
</g>
<g>
	<defs>
		<rect id="SVGID_00000092419299630501923950000010628947321601013144_" x="50.1" y="11" width="418.8" height="279.5"/>
	</defs>
	<clipPath id="SVGID_00000105407425401296166900000005852977334204264895_">
		<use xlink:href="#SVGID_00000092419299630501923950000010628947321601013144_"  style="overflow:visible;"/>
	</clipPath>
	<g style="clip-path:url(#SVGID_00000105407425401296166900000005852977334204264895_);">
		<line class="st31" x1="70.3" y1="42.9" x2="70.3" y2="11.2"/>
		<line class="st31" x1="90.5" y1="177.5" x2="90.5" y2="126.9"/>
		<line class="st31" x1="120.8" y1="73.6" x2="120.8" y2="42.6"/>
		<line class="st31" x1="140.9" y1="200" x2="140.9" y2="164.2"/>
		<line class="st31" x1="171.2" y1="71.2" x2="171.2" y2="42.8"/>
		<line class="st31" x1="191.4" y1="221.4" x2="191.4" y2="189.2"/>
		<line class="st31" x1="221.7" y1="61.4" x2="221.7" y2="27.1"/>
		<line class="st31" x1="241.9" y1="159.4" x2="241.9" y2="120.6"/>
		<line class="st31" x1="272.1" y1="41.6" x2="272.1" y2="11.2"/>
		<line class="st31" x1="292.3" y1="233.2" x2="292.3" y2="189.8"/>
		<line class="st31" x1="322.6" y1="69.9" x2="322.6" y2="34.5"/>
		<line class="st31" x1="342.8" y1="205.5" x2="342.8" y2="160.6"/>
		<line class="st31" x1="373" y1="97.4" x2="373" y2="59"/>
		<line class="st31" x1="403.3" y1="108.6" x2="403.3" y2="62.7"/>
		<line class="st31" x1="433.6" y1="107.9" x2="433.6" y2="73.6"/>
		<line class="st31" x1="453.8" y1="227.9" x2="453.8" y2="188"/>
	</g>
</g>
<g>
	<defs>
		<rect id="SVGID_00000016054655329790830840000009888002309311799707_" x="50.1" y="11" width="418.8" height="279.5"/>
	</defs>
	<clipPath id="SVGID_00000046330944837704265750000016287559760892675484_">
		<use xlink:href="#SVGID_00000016054655329790830840000009888002309311799707_"  style="overflow:visible;"/>
	</clipPath>
	<g style="clip-path:url(#SVGID_00000046330944837704265750000016287559760892675484_);">
		<line class="st33" x1="36.7" y1="274.1" x2="477.8" y2="274.1"/>
	</g>
</g>
<g>
	<defs>
		<rect id="SVGID_00000072983047448663151740000005639009187273112498_" x="50.1" y="11" width="418.8" height="279.5"/>
	</defs>
	<clipPath id="SVGID_00000175285600464901694670000011639760814326567309_">
		<use xlink:href="#SVGID_00000072983047448663151740000005639009187273112498_"  style="overflow:visible;"/>
	</clipPath>
	<g style="clip-path:url(#SVGID_00000175285600464901694670000011639760814326567309_);">
		<g>
			<defs>
				<rect id="SVGID_00000139996642722708610160000009626063340659784338_" x="63.8" y="18.2" width="13" height="13"/>
			</defs>
			<clipPath id="SVGID_00000104694352445678498710000012883890190323345027_">
				<use xlink:href="#SVGID_00000139996642722708610160000009626063340659784338_"  style="overflow:visible;"/>
			</clipPath>
			<g style="clip-path:url(#SVGID_00000104694352445678498710000012883890190323345027_);">
				<path class="st36" d="M70.3,26.2c0.4,0,0.8-0.2,1.1-0.4s0.4-0.7,0.4-1.1s-0.2-0.8-0.4-1.1c-0.3-0.3-0.7-0.4-1.1-0.4
					s-0.8,0.2-1.1,0.4s-0.4,0.7-0.4,1.1s0.2,0.8,0.4,1.1C69.5,26,69.9,26.2,70.3,26.2z"/>
				<path class="st37" d="M70.3,26.2c0.4,0,0.8-0.2,1.1-0.4s0.4-0.7,0.4-1.1s-0.2-0.8-0.4-1.1c-0.3-0.3-0.7-0.4-1.1-0.4
					s-0.8,0.2-1.1,0.4s-0.4,0.7-0.4,1.1s0.2,0.8,0.4,1.1C69.5,26,69.9,26.2,70.3,26.2z"/>
			</g>
		</g>
		<g>
			<defs>
				<rect id="SVGID_00000104700755739081783850000004663185532466726550_" x="84" y="145.1" width="13" height="13"/>
			</defs>
			<clipPath id="SVGID_00000049908531866001758860000017803390666034247854_">
				<use xlink:href="#SVGID_00000104700755739081783850000004663185532466726550_"  style="overflow:visible;"/>
			</clipPath>
			<g style="clip-path:url(#SVGID_00000049908531866001758860000017803390666034247854_);">
				<path class="st36" d="M90.5,153.1c0.4,0,0.8-0.2,1.1-0.4s0.4-0.7,0.4-1.1s-0.2-0.8-0.4-1.1s-0.7-0.4-1.1-0.4s-0.8,0.2-1.1,0.4
					s-0.4,0.7-0.4,1.1s0.2,0.8,0.4,1.1S90.1,153.1,90.5,153.1z"/>
				<path class="st37" d="M90.5,153.1c0.4,0,0.8-0.2,1.1-0.4s0.4-0.7,0.4-1.1s-0.2-0.8-0.4-1.1s-0.7-0.4-1.1-0.4s-0.8,0.2-1.1,0.4
					s-0.4,0.7-0.4,1.1s0.2,0.8,0.4,1.1S90.1,153.1,90.5,153.1z"/>
			</g>
		</g>
		<g>
			<defs>
				<rect id="SVGID_00000135673636843568903300000009532992680601422005_" x="114.3" y="50.2" width="13" height="13"/>
			</defs>
			<clipPath id="SVGID_00000155837863203989446390000014215470546991867528_">
				<use xlink:href="#SVGID_00000135673636843568903300000009532992680601422005_"  style="overflow:visible;"/>
			</clipPath>
			<g style="clip-path:url(#SVGID_00000155837863203989446390000014215470546991867528_);">
				<path class="st36" d="M120.8,58.2c0.4,0,0.8-0.2,1.1-0.4s0.4-0.7,0.4-1.1s-0.2-0.8-0.4-1.1c-0.3-0.3-0.7-0.4-1.1-0.4
					s-0.8,0.2-1.1,0.4s-0.4,0.7-0.4,1.1s0.2,0.8,0.4,1.1C120,58,120.4,58.2,120.8,58.2z"/>
				<path class="st37" d="M120.8,58.2c0.4,0,0.8-0.2,1.1-0.4s0.4-0.7,0.4-1.1s-0.2-0.8-0.4-1.1c-0.3-0.3-0.7-0.4-1.1-0.4
					s-0.8,0.2-1.1,0.4s-0.4,0.7-0.4,1.1s0.2,0.8,0.4,1.1C120,58,120.4,58.2,120.8,58.2z"/>
			</g>
		</g>
		<g>
			<defs>
				<rect id="SVGID_00000127020702996765735410000007579621956547142047_" x="134.4" y="175.5" width="13" height="13"/>
			</defs>
			<clipPath id="SVGID_00000006699226174814824590000002341923178030119866_">
				<use xlink:href="#SVGID_00000127020702996765735410000007579621956547142047_"  style="overflow:visible;"/>
			</clipPath>
			<g style="clip-path:url(#SVGID_00000006699226174814824590000002341923178030119866_);">
				<path class="st36" d="M140.9,183.5c0.4,0,0.8-0.2,1.1-0.4s0.4-0.7,0.4-1.1s-0.2-0.8-0.4-1.1s-0.7-0.4-1.1-0.4s-0.8,0.2-1.1,0.4
					s-0.4,0.7-0.4,1.1s0.2,0.8,0.4,1.1S140.6,183.5,140.9,183.5z"/>
				<path class="st37" d="M140.9,183.5c0.4,0,0.8-0.2,1.1-0.4s0.4-0.7,0.4-1.1s-0.2-0.8-0.4-1.1s-0.7-0.4-1.1-0.4s-0.8,0.2-1.1,0.4
					s-0.4,0.7-0.4,1.1s0.2,0.8,0.4,1.1S140.6,183.5,140.9,183.5z"/>
			</g>
		</g>
		<g>
			<defs>
				<rect id="SVGID_00000096019853074265817640000005087538391612855686_" x="164.7" y="49.3" width="13" height="13"/>
			</defs>
			<clipPath id="SVGID_00000116921975496127412590000008696095376151365550_">
				<use xlink:href="#SVGID_00000096019853074265817640000005087538391612855686_"  style="overflow:visible;"/>
			</clipPath>
			<g style="clip-path:url(#SVGID_00000116921975496127412590000008696095376151365550_);">
				<path class="st36" d="M171.2,57.3c0.4,0,0.8-0.2,1.1-0.4s0.4-0.7,0.4-1.1s-0.2-0.8-0.4-1.1c-0.3-0.3-0.7-0.4-1.1-0.4
					s-0.8,0.2-1.1,0.4s-0.4,0.7-0.4,1.1s0.2,0.8,0.4,1.1C170.4,57.1,170.8,57.3,171.2,57.3z"/>
				<path class="st37" d="M171.2,57.3c0.4,0,0.8-0.2,1.1-0.4s0.4-0.7,0.4-1.1s-0.2-0.8-0.4-1.1c-0.3-0.3-0.7-0.4-1.1-0.4
					s-0.8,0.2-1.1,0.4s-0.4,0.7-0.4,1.1s0.2,0.8,0.4,1.1C170.4,57.1,170.8,57.3,171.2,57.3z"/>
			</g>
		</g>
		<g>
			<defs>
				<rect id="SVGID_00000003100452855292182240000004099094814685462662_" x="184.9" y="198.4" width="13" height="13"/>
			</defs>
			<clipPath id="SVGID_00000057105797100119307620000001877941573074020009_">
				<use xlink:href="#SVGID_00000003100452855292182240000004099094814685462662_"  style="overflow:visible;"/>
			</clipPath>
			<g style="clip-path:url(#SVGID_00000057105797100119307620000001877941573074020009_);">
				<path class="st36" d="M191.4,206.4c0.4,0,0.8-0.2,1.1-0.4s0.4-0.7,0.4-1.1s-0.2-0.8-0.4-1.1s-0.7-0.4-1.1-0.4s-0.8,0.2-1.1,0.4
					s-0.4,0.7-0.4,1.1s0.2,0.8,0.4,1.1S191,206.4,191.4,206.4z"/>
				<path class="st37" d="M191.4,206.4c0.4,0,0.8-0.2,1.1-0.4s0.4-0.7,0.4-1.1s-0.2-0.8-0.4-1.1s-0.7-0.4-1.1-0.4s-0.8,0.2-1.1,0.4
					s-0.4,0.7-0.4,1.1s0.2,0.8,0.4,1.1S191,206.4,191.4,206.4z"/>
			</g>
		</g>
		<g>
			<defs>
				<rect id="SVGID_00000043443442382781856820000003131975744059411858_" x="215.2" y="35.9" width="13" height="13"/>
			</defs>
			<clipPath id="SVGID_00000107572448197312234750000011604673684400744621_">
				<use xlink:href="#SVGID_00000043443442382781856820000003131975744059411858_"  style="overflow:visible;"/>
			</clipPath>
			<g style="clip-path:url(#SVGID_00000107572448197312234750000011604673684400744621_);">
				<path class="st36" d="M221.7,43.9c0.4,0,0.8-0.2,1.1-0.4s0.4-0.7,0.4-1.1s-0.2-0.8-0.4-1.1c-0.3-0.3-0.7-0.4-1.1-0.4
					s-0.8,0.2-1.1,0.4s-0.4,0.7-0.4,1.1s0.2,0.8,0.4,1.1C220.9,43.8,221.3,43.9,221.7,43.9z"/>
				<path class="st37" d="M221.7,43.9c0.4,0,0.8-0.2,1.1-0.4s0.4-0.7,0.4-1.1s-0.2-0.8-0.4-1.1c-0.3-0.3-0.7-0.4-1.1-0.4
					s-0.8,0.2-1.1,0.4s-0.4,0.7-0.4,1.1s0.2,0.8,0.4,1.1C220.9,43.8,221.3,43.9,221.7,43.9z"/>
			</g>
		</g>
		<g>
			<defs>
				<rect id="SVGID_00000110441031114202076210000002307844371698787261_" x="235.4" y="132.6" width="13" height="13"/>
			</defs>
			<clipPath id="SVGID_00000162335523527487616980000005856600964871408270_">
				<use xlink:href="#SVGID_00000110441031114202076210000002307844371698787261_"  style="overflow:visible;"/>
			</clipPath>
			<g style="clip-path:url(#SVGID_00000162335523527487616980000005856600964871408270_);">
				<path class="st36" d="M241.9,140.6c0.4,0,0.8-0.2,1.1-0.4s0.4-0.7,0.4-1.1s-0.2-0.8-0.4-1.1s-0.7-0.4-1.1-0.4s-0.8,0.2-1.1,0.4
					s-0.4,0.7-0.4,1.1s0.2,0.8,0.4,1.1S241.5,140.6,241.9,140.6z"/>
				<path class="st37" d="M241.9,140.6c0.4,0,0.8-0.2,1.1-0.4s0.4-0.7,0.4-1.1s-0.2-0.8-0.4-1.1s-0.7-0.4-1.1-0.4s-0.8,0.2-1.1,0.4
					s-0.4,0.7-0.4,1.1s0.2,0.8,0.4,1.1S241.5,140.6,241.9,140.6z"/>
			</g>
		</g>
		<g>
			<defs>
				<rect id="SVGID_00000165929269723603697140000015759411406736704443_" x="265.6" y="17.7" width="13" height="13"/>
			</defs>
			<clipPath id="SVGID_00000069392998012181372400000007390258476022899900_">
				<use xlink:href="#SVGID_00000165929269723603697140000015759411406736704443_"  style="overflow:visible;"/>
			</clipPath>
			<g style="clip-path:url(#SVGID_00000069392998012181372400000007390258476022899900_);">
				<path class="st36" d="M272.1,25.7c0.4,0,0.8-0.2,1.1-0.4s0.4-0.7,0.4-1.1s-0.2-0.8-0.4-1.1c-0.3-0.3-0.7-0.4-1.1-0.4
					s-0.8,0.2-1.1,0.4s-0.4,0.7-0.4,1.1s0.2,0.8,0.4,1.1C271.3,25.6,271.7,25.7,272.1,25.7z"/>
				<path class="st37" d="M272.1,25.7c0.4,0,0.8-0.2,1.1-0.4s0.4-0.7,0.4-1.1s-0.2-0.8-0.4-1.1c-0.3-0.3-0.7-0.4-1.1-0.4
					s-0.8,0.2-1.1,0.4s-0.4,0.7-0.4,1.1s0.2,0.8,0.4,1.1C271.3,25.6,271.7,25.7,272.1,25.7z"/>
			</g>
		</g>
		<g>
			<defs>
				<rect id="SVGID_00000092420867706096923680000017234562926973152388_" x="285.8" y="204.6" width="13" height="13"/>
			</defs>
			<clipPath id="SVGID_00000047022331977584375440000017142027368393978759_">
				<use xlink:href="#SVGID_00000092420867706096923680000017234562926973152388_"  style="overflow:visible;"/>
			</clipPath>
			<g style="clip-path:url(#SVGID_00000047022331977584375440000017142027368393978759_);">
				<path class="st36" d="M292.3,212.6c0.4,0,0.8-0.2,1.1-0.4s0.4-0.7,0.4-1.1s-0.2-0.8-0.4-1.1s-0.7-0.4-1.1-0.4s-0.8,0.2-1.1,0.4
					s-0.4,0.7-0.4,1.1s0.2,0.8,0.4,1.1S291.9,212.6,292.3,212.6z"/>
				<path class="st37" d="M292.3,212.6c0.4,0,0.8-0.2,1.1-0.4s0.4-0.7,0.4-1.1s-0.2-0.8-0.4-1.1s-0.7-0.4-1.1-0.4s-0.8,0.2-1.1,0.4
					s-0.4,0.7-0.4,1.1s0.2,0.8,0.4,1.1S291.9,212.6,292.3,212.6z"/>
			</g>
		</g>
		<g>
			<defs>
				<rect id="SVGID_00000076594621846225905320000013573932642260474272_" x="316.1" y="43.4" width="13" height="13"/>
			</defs>
			<clipPath id="SVGID_00000165940945703299078000000014738331706911988126_">
				<use xlink:href="#SVGID_00000076594621846225905320000013573932642260474272_"  style="overflow:visible;"/>
			</clipPath>
			<g style="clip-path:url(#SVGID_00000165940945703299078000000014738331706911988126_);">
				<path class="st36" d="M322.6,51.4c0.4,0,0.8-0.2,1.1-0.4s0.4-0.7,0.4-1.1s-0.2-0.8-0.4-1.1c-0.3-0.3-0.7-0.4-1.1-0.4
					s-0.8,0.2-1.1,0.4s-0.4,0.7-0.4,1.1s0.2,0.8,0.4,1.1C321.8,51.2,322.2,51.4,322.6,51.4z"/>
				<path class="st37" d="M322.6,51.4c0.4,0,0.8-0.2,1.1-0.4s0.4-0.7,0.4-1.1s-0.2-0.8-0.4-1.1c-0.3-0.3-0.7-0.4-1.1-0.4
					s-0.8,0.2-1.1,0.4s-0.4,0.7-0.4,1.1s0.2,0.8,0.4,1.1C321.8,51.2,322.2,51.4,322.6,51.4z"/>
			</g>
		</g>
		<g>
			<defs>
				<rect id="SVGID_00000121264363104982599300000017108448573267329673_" x="336.3" y="175.7" width="13" height="13"/>
			</defs>
			<clipPath id="SVGID_00000138562695665197387850000016501911129212715924_">
				<use xlink:href="#SVGID_00000121264363104982599300000017108448573267329673_"  style="overflow:visible;"/>
			</clipPath>
			<g style="clip-path:url(#SVGID_00000138562695665197387850000016501911129212715924_);">
				<path class="st36" d="M342.8,183.7c0.4,0,0.8-0.2,1.1-0.4s0.4-0.7,0.4-1.1s-0.2-0.8-0.4-1.1s-0.7-0.4-1.1-0.4s-0.8,0.2-1.1,0.4
					s-0.4,0.7-0.4,1.1s0.2,0.8,0.4,1.1S342.4,183.7,342.8,183.7z"/>
				<path class="st37" d="M342.8,183.7c0.4,0,0.8-0.2,1.1-0.4s0.4-0.7,0.4-1.1s-0.2-0.8-0.4-1.1s-0.7-0.4-1.1-0.4s-0.8,0.2-1.1,0.4
					s-0.4,0.7-0.4,1.1s0.2,0.8,0.4,1.1S342.4,183.7,342.8,183.7z"/>
			</g>
		</g>
		<g>
			<defs>
				<rect id="SVGID_00000130649216676055123620000002075846995427795376_" x="366.5" y="70.5" width="13" height="13"/>
			</defs>
			<clipPath id="SVGID_00000121275706530879444930000008055756841808148668_">
				<use xlink:href="#SVGID_00000130649216676055123620000002075846995427795376_"  style="overflow:visible;"/>
			</clipPath>
			<g style="clip-path:url(#SVGID_00000121275706530879444930000008055756841808148668_);">
				<path class="st36" d="M373,78.5c0.4,0,0.8-0.2,1.1-0.4s0.4-0.7,0.4-1.1s-0.2-0.8-0.4-1.1s-0.7-0.4-1.1-0.4s-0.8,0.2-1.1,0.4
					s-0.4,0.7-0.4,1.1s0.2,0.8,0.4,1.1S372.6,78.5,373,78.5z"/>
				<path class="st37" d="M373,78.5c0.4,0,0.8-0.2,1.1-0.4s0.4-0.7,0.4-1.1s-0.2-0.8-0.4-1.1s-0.7-0.4-1.1-0.4s-0.8,0.2-1.1,0.4
					s-0.4,0.7-0.4,1.1s0.2,0.8,0.4,1.1S372.6,78.5,373,78.5z"/>
			</g>
		</g>
		<g>
			<defs>
				<rect id="SVGID_00000050632775173791254850000012649019224894655911_" x="396.8" y="77.6" width="13" height="13"/>
			</defs>
			<clipPath id="SVGID_00000097479333224720845870000002793560301999834810_">
				<use xlink:href="#SVGID_00000050632775173791254850000012649019224894655911_"  style="overflow:visible;"/>
			</clipPath>
			<g style="clip-path:url(#SVGID_00000097479333224720845870000002793560301999834810_);">
				<path class="st36" d="M403.3,85.6c0.4,0,0.8-0.2,1.1-0.4s0.4-0.7,0.4-1.1s-0.2-0.8-0.4-1.1s-0.7-0.4-1.1-0.4s-0.8,0.2-1.1,0.4
					s-0.4,0.7-0.4,1.1s0.2,0.8,0.4,1.1S402.9,85.6,403.3,85.6z"/>
				<path class="st37" d="M403.3,85.6c0.4,0,0.8-0.2,1.1-0.4s0.4-0.7,0.4-1.1s-0.2-0.8-0.4-1.1s-0.7-0.4-1.1-0.4s-0.8,0.2-1.1,0.4
					s-0.4,0.7-0.4,1.1s0.2,0.8,0.4,1.1S402.9,85.6,403.3,85.6z"/>
			</g>
		</g>
		<g>
			<defs>
				<rect id="SVGID_00000099653765699485325870000005380469397439226279_" x="427.1" y="83.8" width="13" height="13"/>
			</defs>
			<clipPath id="SVGID_00000182526581052183198680000017516085156817218472_">
				<use xlink:href="#SVGID_00000099653765699485325870000005380469397439226279_"  style="overflow:visible;"/>
			</clipPath>
			<g style="clip-path:url(#SVGID_00000182526581052183198680000017516085156817218472_);">
				<path class="st36" d="M433.6,91.8c0.4,0,0.8-0.2,1.1-0.4s0.4-0.7,0.4-1.1s-0.2-0.8-0.4-1.1s-0.7-0.4-1.1-0.4s-0.8,0.2-1.1,0.4
					s-0.4,0.7-0.4,1.1s0.2,0.8,0.4,1.1S433.2,91.8,433.6,91.8z"/>
				<path class="st37" d="M433.6,91.8c0.4,0,0.8-0.2,1.1-0.4s0.4-0.7,0.4-1.1s-0.2-0.8-0.4-1.1s-0.7-0.4-1.1-0.4s-0.8,0.2-1.1,0.4
					s-0.4,0.7-0.4,1.1s0.2,0.8,0.4,1.1S433.2,91.8,433.6,91.8z"/>
			</g>
		</g>
		<g>
			<defs>
				<rect id="SVGID_00000032642424827934094980000009415952695964452224_" x="447.2" y="201.8" width="13" height="13"/>
			</defs>
			<clipPath id="SVGID_00000034779245238321882060000014725976514255699899_">
				<use xlink:href="#SVGID_00000032642424827934094980000009415952695964452224_"  style="overflow:visible;"/>
			</clipPath>
			<g style="clip-path:url(#SVGID_00000034779245238321882060000014725976514255699899_);">
				<path class="st36" d="M453.8,209.8c0.4,0,0.8-0.2,1.1-0.4s0.4-0.7,0.4-1.1s-0.2-0.8-0.4-1.1s-0.7-0.4-1.1-0.4s-0.8,0.2-1.1,0.4
					s-0.4,0.7-0.4,1.1s0.2,0.8,0.4,1.1S453.4,209.8,453.8,209.8z"/>
				<path class="st37" d="M453.8,209.8c0.4,0,0.8-0.2,1.1-0.4s0.4-0.7,0.4-1.1s-0.2-0.8-0.4-1.1s-0.7-0.4-1.1-0.4s-0.8,0.2-1.1,0.4
					s-0.4,0.7-0.4,1.1s0.2,0.8,0.4,1.1S453.4,209.8,453.8,209.8z"/>
			</g>
		</g>
	</g>
</g>
<line class="st53" x1="50.1" y1="290.5" x2="50.1" y2="11"/>
<line class="st53" x1="55.2" y1="290.5" x2="468.9" y2="290.5"/>
<path d="M117.1,264.1v1c-0.3-0.3-0.7-0.5-1.1-0.7s-0.8-0.2-1.2-0.2c-0.8,0-1.5,0.2-1.9,0.8s-0.7,1.2-0.7,2.2s0.2,1.7,0.7,2.2
	c0.4,0.5,1.1,0.8,1.9,0.8c0.4,0,0.8-0.1,1.2-0.2s0.7-0.4,1.1-0.7v1c-0.3,0.2-0.7,0.4-1.1,0.5s-0.8,0.2-1.2,0.2c-1.1,0-2-0.3-2.6-1
	c-0.6-0.7-0.9-1.6-0.9-2.8s0.3-2.1,0.9-2.8c0.6-0.7,1.5-1,2.6-1c0.4,0,0.8,0.1,1.2,0.2C116.4,263.7,116.8,263.9,117.1,264.1z"/>
<path d="M123.2,267.5v3.3h-0.9v-3.3c0-0.5-0.1-0.9-0.3-1.2s-0.5-0.4-0.9-0.4c-0.5,0-0.9,0.1-1.2,0.5s-0.4,0.7-0.4,1.3v3.1h-0.9v-7.6
	h0.9v3c0.2-0.3,0.5-0.6,0.8-0.7s0.6-0.2,1-0.2c0.6,0,1.1,0.2,1.4,0.6C123,266.2,123.2,266.7,123.2,267.5L123.2,267.5z"/>
<path d="M129.2,267.7v3.1h-0.9V270c-0.2,0.3-0.5,0.6-0.8,0.7c-0.3,0.2-0.7,0.2-1.1,0.2c-0.6,0-1-0.2-1.3-0.5
	c-0.3-0.3-0.5-0.7-0.5-1.3c0-0.6,0.2-1.1,0.6-1.4s1-0.5,1.8-0.5h1.3v-0.1c0-0.4-0.1-0.7-0.4-1c-0.3-0.2-0.7-0.3-1.2-0.3
	c-0.3,0-0.6,0-0.9,0.1s-0.6,0.2-0.8,0.3v-0.8c0.3-0.1,0.7-0.2,1-0.3c0.3-0.1,0.6-0.1,0.9-0.1c0.8,0,1.4,0.2,1.8,0.6
	S129.2,266.9,129.2,267.7L129.2,267.7z M127.4,268.1c-0.7,0-1.2,0.1-1.5,0.2s-0.4,0.5-0.4,0.9c0,0.3,0.1,0.6,0.3,0.8
	s0.5,0.3,0.9,0.3c0.5,0,0.9-0.2,1.2-0.5c0.3-0.4,0.4-0.8,0.4-1.4v-0.2C128.3,268.1,127.4,268.1,127.4,268.1z"/>
<path d="M135.6,267.5v3.3h-0.9v-3.3c0-0.5-0.1-0.9-0.3-1.2s-0.5-0.4-0.9-0.4c-0.5,0-0.9,0.1-1.1,0.5s-0.4,0.7-0.4,1.3v3.1H131v-5.5
	h0.9v0.9c0.2-0.3,0.5-0.6,0.8-0.7s0.6-0.2,1-0.2c0.6,0,1.1,0.2,1.4,0.6C135.5,266.2,135.6,266.7,135.6,267.5L135.6,267.5z"/>
<path d="M141.3,265.6v0.8c-0.2-0.1-0.5-0.2-0.8-0.3c-0.3-0.1-0.5-0.1-0.8-0.1c-0.6,0-1,0.2-1.4,0.5s-0.5,0.9-0.5,1.6
	s0.2,1.2,0.5,1.6c0.3,0.4,0.8,0.5,1.4,0.5c0.3,0,0.5,0,0.8-0.1c0.3-0.1,0.5-0.2,0.8-0.3v0.8c-0.2,0.1-0.5,0.2-0.8,0.3
	s-0.6,0.1-0.9,0.1c-0.8,0-1.5-0.3-2-0.8s-0.7-1.2-0.7-2.1s0.2-1.6,0.7-2.1s1.2-0.8,2-0.8c0.3,0,0.6,0,0.8,0.1
	C140.8,265.4,141.1,265.4,141.3,265.6L141.3,265.6z"/>
<path d="M147.6,267.9v0.4h-4.1c0,0.6,0.2,1.1,0.6,1.4s0.8,0.5,1.4,0.5c0.4,0,0.7,0,1-0.1s0.6-0.2,1-0.4v0.9c-0.3,0.1-0.6,0.2-1,0.3
	s-0.7,0.1-1,0.1c-0.9,0-1.6-0.2-2.1-0.8s-0.8-1.2-0.8-2.1s0.2-1.6,0.7-2.1c0.5-0.5,1.1-0.8,2-0.8c0.7,0,1.3,0.2,1.8,0.7
	S147.6,267,147.6,267.9L147.6,267.9z M146.7,267.6c0-0.5-0.1-0.9-0.4-1.2s-0.6-0.4-1.1-0.4c-0.5,0-0.9,0.1-1.2,0.4s-0.5,0.7-0.5,1.2
	L146.7,267.6L146.7,267.6z"/>
<path class="st13" d="M309.8,28c0.8,0,1.6-0.3,2.1-0.9s0.9-1.3,0.9-2.1s-0.3-1.6-0.9-2.1s-1.3-0.9-2.1-0.9s-1.6,0.3-2.1,0.9
	s-0.9,1.3-0.9,2.1s0.3,1.6,0.9,2.1S309,28,309.8,28z"/>
<path class="st54" d="M309.8,28c0.8,0,1.6-0.3,2.1-0.9s0.9-1.3,0.9-2.1s-0.3-1.6-0.9-2.1s-1.3-0.9-2.1-0.9s-1.6,0.3-2.1,0.9
	s-0.9,1.3-0.9,2.1s0.3,1.6,0.9,2.1S309,28,309.8,28z"/>
<path d="M328.7,20.3h1.3l3.2,6.1v-6.1h1v7.3h-1.3l-3.2-6.1v6.1h-1V20.3z"/>
<path d="M340.5,24.5v3.1h-0.9v-0.8c-0.2,0.3-0.5,0.6-0.8,0.7c-0.3,0.2-0.7,0.2-1.1,0.2c-0.6,0-1-0.2-1.3-0.5s-0.5-0.7-0.5-1.3
	c0-0.6,0.2-1.1,0.6-1.4s1-0.5,1.8-0.5h1.3v-0.1c0-0.4-0.1-0.7-0.4-1s-0.6-0.3-1.1-0.3c-0.3,0-0.6,0-0.9,0.1
	c-0.3,0.1-0.6,0.2-0.9,0.3v-0.8c0.3-0.1,0.6-0.2,1-0.3c0.3-0.1,0.6-0.1,0.9-0.1c0.8,0,1.4,0.2,1.8,0.6S340.5,23.6,340.5,24.5
	L340.5,24.5z M338.7,24.8c-0.7,0-1.2,0.1-1.5,0.2s-0.4,0.5-0.4,0.9c0,0.3,0.1,0.6,0.3,0.8c0.2,0.2,0.5,0.3,0.9,0.3
	c0.5,0,0.9-0.2,1.2-0.5c0.3-0.4,0.5-0.8,0.5-1.4v-0.2H338.7L338.7,24.8z"/>
<path d="M343.2,20.6v1.5h1.9v0.7h-1.9v3c0,0.5,0.1,0.7,0.2,0.9s0.4,0.2,0.7,0.2h0.9v0.8h-0.9c-0.7,0-1.2-0.1-1.4-0.4
	c-0.3-0.3-0.4-0.7-0.4-1.4v-3h-0.7v-0.7h0.7v-1.5L343.2,20.6L343.2,20.6z"/>
<path d="M346.1,25.4v-3.3h0.9v3.3c0,0.5,0.1,0.9,0.3,1.2c0.2,0.3,0.5,0.4,0.9,0.4c0.5,0,0.9-0.1,1.1-0.5s0.4-0.7,0.4-1.3v-3.1h0.9
	v5.5h-0.9v-0.8c-0.2,0.3-0.5,0.6-0.8,0.7s-0.6,0.2-1,0.2c-0.6,0-1.1-0.2-1.4-0.6S346.1,26.2,346.1,25.4L346.1,25.4z"/>
<path d="M355.7,23c-0.1-0.1-0.2-0.1-0.3-0.1c-0.1,0-0.2,0-0.4,0c-0.5,0-0.9,0.2-1.2,0.5c-0.3,0.3-0.4,0.8-0.4,1.4v2.9h-0.9v-5.5h0.9
	V23c0.2-0.3,0.4-0.6,0.7-0.7c0.3-0.2,0.7-0.2,1.1-0.2c0.1,0,0.1,0,0.2,0c0.1,0,0.2,0,0.2,0L355.7,23L355.7,23z"/>
<path d="M361,24.5v3.1h-0.9v-0.8c-0.2,0.3-0.5,0.6-0.8,0.7c-0.3,0.2-0.7,0.2-1.1,0.2c-0.6,0-1-0.2-1.3-0.5s-0.5-0.7-0.5-1.3
	c0-0.6,0.2-1.1,0.6-1.4s1-0.5,1.8-0.5h1.3v-0.1c0-0.4-0.1-0.7-0.4-1s-0.6-0.3-1.1-0.3c-0.3,0-0.6,0-0.9,0.1
	c-0.3,0.1-0.6,0.2-0.9,0.3v-0.8c0.3-0.1,0.6-0.2,1-0.3c0.3-0.1,0.6-0.1,0.9-0.1c0.8,0,1.4,0.2,1.8,0.6S361,23.6,361,24.5L361,24.5z
	 M359.2,24.8c-0.7,0-1.2,0.1-1.5,0.2s-0.4,0.5-0.4,0.9c0,0.3,0.1,0.6,0.3,0.8c0.2,0.2,0.5,0.3,0.9,0.3c0.5,0,0.9-0.2,1.2-0.5
	c0.3-0.4,0.5-0.8,0.5-1.4v-0.2H359.2L359.2,24.8z"/>
<path d="M362.8,20h0.9v7.6h-0.9V20z"/>
<path class="st15" d="M394.6,28c0.8,0,1.6-0.3,2.1-0.9s0.9-1.3,0.9-2.1s-0.3-1.6-0.9-2.1s-1.3-0.9-2.1-0.9s-1.6,0.3-2.1,0.9
	s-0.9,1.3-0.9,2.1s0.3,1.6,0.9,2.1S393.9,28,394.6,28z"/>
<path class="st55" d="M394.6,28c0.8,0,1.6-0.3,2.1-0.9s0.9-1.3,0.9-2.1s-0.3-1.6-0.9-2.1s-1.3-0.9-2.1-0.9s-1.6,0.3-2.1,0.9
	s-0.9,1.3-0.9,2.1s0.3,1.6,0.9,2.1S393.9,28,394.6,28z"/>
<path d="M418,20.5v1c-0.4-0.2-0.7-0.3-1.1-0.4s-0.6-0.1-1-0.1c-0.5,0-1,0.1-1.2,0.3c-0.3,0.2-0.4,0.5-0.4,0.9c0,0.3,0.1,0.6,0.3,0.7
	s0.6,0.3,1.1,0.4l0.6,0.1c0.7,0.1,1.3,0.4,1.6,0.7s0.5,0.8,0.5,1.4c0,0.7-0.2,1.2-0.7,1.6s-1.2,0.5-2.1,0.5c-0.3,0-0.7,0-1.1-0.1
	s-0.8-0.2-1.2-0.4v-1c0.4,0.2,0.8,0.4,1.2,0.5c0.4,0.1,0.8,0.2,1.1,0.2c0.6,0,1-0.1,1.3-0.3c0.3-0.2,0.5-0.5,0.5-1
	c0-0.4-0.1-0.6-0.3-0.8s-0.6-0.4-1.1-0.5l-0.6-0.1c-0.7-0.1-1.3-0.4-1.6-0.7c-0.3-0.3-0.5-0.8-0.5-1.3c0-0.6,0.2-1.1,0.7-1.5
	s1.1-0.6,1.9-0.6c0.3,0,0.7,0,1,0.1C417.3,20.3,417.6,20.4,418,20.5L418,20.5z"/>
<path d="M422.2,28.1c-0.2,0.6-0.5,1.1-0.7,1.3c-0.2,0.2-0.6,0.3-1,0.3h-0.7v-0.8h0.5c0.2,0,0.4-0.1,0.6-0.2s0.3-0.4,0.5-0.8l0.2-0.4
	l-2.2-5.4h1l1.7,4.3l1.7-4.3h1L422.2,28.1L422.2,28.1z"/>
<path d="M430.4,24.3v3.3h-0.9v-3.3c0-0.5-0.1-0.9-0.3-1.2c-0.2-0.3-0.5-0.4-0.9-0.4c-0.5,0-0.9,0.1-1.1,0.5s-0.4,0.7-0.4,1.3v3.1
	h-0.9v-5.5h0.9V23c0.2-0.3,0.5-0.6,0.8-0.7c0.3-0.2,0.6-0.2,1-0.2c0.6,0,1.1,0.2,1.4,0.6C430.3,23,430.4,23.5,430.4,24.3L430.4,24.3
	z"/>
<path d="M433.1,20.6v1.5h1.9v0.7h-1.9v3c0,0.5,0.1,0.7,0.2,0.9s0.4,0.2,0.7,0.2h0.9v0.8H434c-0.7,0-1.2-0.1-1.4-0.4
	c-0.3-0.3-0.4-0.7-0.4-1.4v-3h-0.7v-0.7h0.7v-1.5L433.1,20.6L433.1,20.6z"/>
<path d="M440.7,24.3v3.3h-0.9v-3.3c0-0.5-0.1-0.9-0.3-1.2c-0.2-0.3-0.5-0.4-0.9-0.4c-0.5,0-0.9,0.1-1.1,0.5S437,24,437,24.5v3.1
	h-0.9V20h0.9v3c0.2-0.3,0.5-0.6,0.8-0.7c0.3-0.2,0.6-0.2,1-0.2c0.6,0,1.1,0.2,1.4,0.6C440.5,22.9,440.7,23.5,440.7,24.3L440.7,24.3z
	"/>
<path d="M447.1,24.6v0.4H443c0,0.6,0.2,1.1,0.6,1.4s0.8,0.5,1.4,0.5c0.4,0,0.7,0,1-0.1c0.3-0.1,0.6-0.2,1-0.4v0.9
	c-0.3,0.1-0.6,0.2-1,0.3s-0.7,0.1-1,0.1c-0.9,0-1.6-0.2-2.1-0.8s-0.8-1.2-0.8-2.1s0.2-1.6,0.7-2.1c0.5-0.5,1.1-0.8,2-0.8
	c0.7,0,1.3,0.2,1.8,0.7S447.1,23.8,447.1,24.6L447.1,24.6z M446.2,24.4c0-0.5-0.1-0.9-0.4-1.2s-0.6-0.4-1.1-0.4
	c-0.5,0-0.9,0.1-1.2,0.4c-0.3,0.3-0.5,0.7-0.5,1.2H446.2z"/>
<path d="M449.5,20.6v1.5h1.9v0.7h-1.9v3c0,0.5,0.1,0.7,0.2,0.9s0.4,0.2,0.7,0.2h0.9v0.8h-0.9c-0.7,0-1.2-0.1-1.4-0.4
	c-0.3-0.3-0.4-0.7-0.4-1.4v-3h-0.7v-0.7h0.7v-1.5L449.5,20.6L449.5,20.6z"/>
<path d="M452.5,20h0.9v1.1h-0.9V20z M452.5,22.1h0.9v5.5h-0.9V22.1z"/>
<path d="M459.2,22.3v0.8c-0.2-0.1-0.5-0.2-0.8-0.3c-0.3-0.1-0.5-0.1-0.8-0.1c-0.6,0-1,0.2-1.4,0.5c-0.3,0.4-0.5,0.9-0.5,1.6
	s0.2,1.2,0.5,1.6c0.3,0.4,0.8,0.5,1.4,0.5c0.3,0,0.5,0,0.8-0.1c0.2-0.1,0.5-0.2,0.8-0.3v0.8c-0.2,0.1-0.5,0.2-0.8,0.3
	s-0.5,0.1-0.9,0.1c-0.8,0-1.5-0.3-2-0.8c-0.5-0.5-0.7-1.2-0.7-2.1s0.2-1.6,0.7-2.1s1.2-0.8,2-0.8c0.3,0,0.5,0,0.8,0.1
	C458.7,22.1,459,22.2,459.2,22.3z"/>
</svg>
