<?xml version="1.0" encoding="UTF-8"?><svg id="a" xmlns="http://www.w3.org/2000/svg" xmlns:xlink="http://www.w3.org/1999/xlink" viewBox="0 0 291.67 214.86"><defs><style>.bo{clip-path:url(#j);}.bo,.bp,.bq,.br,.bs,.bt,.bu,.bv,.bw,.bx,.by,.bz,.ca,.cb,.cc,.cd,.ce,.cf,.cg,.ch,.ci,.cj,.ck,.cl,.cm,.cn,.co,.cp,.cq,.cr,.cs,.ct,.cu,.cv,.cw,.cx,.cy,.cz,.da,.db,.dc,.dd,.de,.df,.dg,.dh,.di,.dj,.dk,.dl,.dm,.dn,.do,.dp,.dq,.dr,.ds,.dt,.du,.dv,.dw,.dx,.dy,.dz,.ea,.eb,.ec,.ed,.ee,.ef,.eg,.eh,.ei{fill:none;}.bp{clip-path:url(#r);}.bq{clip-path:url(#ao);}.br,.bv,.ci,.ct,.do,.ee{stroke-linejoin:round;}.br,.dp{stroke:#000;}.br,.dp,.ee{stroke-width:.8px;}.bs{clip-path:url(#s);}.bt{clip-path:url(#at);}.ej{fill:#fff;}.bu{clip-path:url(#l);}.bv,.ci{stroke-width:1.5px;}.bv,.do{stroke:#47789e;}.bw{clip-path:url(#ae);}.bx{clip-path:url(#e);}.by{clip-path:url(#am);}.bz{clip-path:url(#y);}.ca{clip-path:url(#as);}.cb{clip-path:url(#an);}.cc{clip-path:url(#az);}.cd{clip-path:url(#ap);}.ce{clip-path:url(#p);}.cf{clip-path:url(#ax);}.cg{clip-path:url(#al);}.ch{clip-path:url(#bi);}.ci,.ct{stroke:#ffac74;}.cj{clip-path:url(#i);}.ck{clip-path:url(#c);}.cl{clip-path:url(#b);}.cm{clip-path:url(#w);}.cn{clip-path:url(#bb);}.co{clip-path:url(#aj);}.cp{clip-path:url(#bg);}.cq{clip-path:url(#bf);}.cr{clip-path:url(#bj);}.cs{clip-path:url(#ag);}.cu{clip-path:url(#be);}.cv{clip-path:url(#ay);}.cw{clip-path:url(#bl);}.cx{clip-path:url(#au);}.cy{clip-path:url(#t);}.cz{clip-path:url(#k);}.da{clip-path:url(#v);}.db{clip-path:url(#f);}.dc{clip-path:url(#bm);}.dd{clip-path:url(#ar);}.de{clip-path:url(#aw);}.df{clip-path:url(#ba);}.dg{clip-path:url(#q);}.dh{clip-path:url(#d);}.di{clip-path:url(#z);}.dj{clip-path:url(#n);}.dk{clip-path:url(#af);}.dl{clip-path:url(#ad);}.dm{clip-path:url(#av);}.dn{clip-path:url(#ac);}.dp{stroke-linecap:square;stroke-miterlimit:10;}.dr{clip-path:url(#h);}.ds{clip-path:url(#ah);}.dt{clip-path:url(#x);}.du{clip-path:url(#bd);}.dv{clip-path:url(#bc);}.ek{fill:#47789e;}.dw{clip-path:url(#m);}.dx{clip-path:url(#bh);}.dy{clip-path:url(#u);}.dz{clip-path:url(#aa);}.ea{clip-path:url(#o);}.eb{clip-path:url(#ak);}.ec{clip-path:url(#g);}.ed{clip-path:url(#bk);}.ee{stroke:#b0b0b0;stroke-dasharray:0 0 2.96 1.28;}.el{fill:#ffac74;}.ef{clip-path:url(#ai);}.eg{clip-path:url(#bn);}.eh{clip-path:url(#aq);}.ei{clip-path:url(#ab);}</style><clipPath id="b"><rect class="dq" x="50.14" y="11" width="223.2" height="166.32"/></clipPath><clipPath id="c"><rect class="dq" x="50.14" y="11" width="223.2" height="166.32"/></clipPath><clipPath id="d"><rect class="dq" x="50.14" y="11" width="223.2" height="166.32"/></clipPath><clipPath id="e"><rect class="dq" x="50.14" y="11" width="223.2" height="166.32"/></clipPath><clipPath id="f"><rect class="dq" x="50.14" y="11" width="223.2" height="166.32"/></clipPath><clipPath id="g"><rect class="dq" x="50.14" y="11" width="223.2" height="166.32"/></clipPath><clipPath id="h"><rect class="dq" x="50.14" y="11" width="223.2" height="166.32"/></clipPath><clipPath id="i"><rect class="dq" x="50.14" y="11" width="223.2" height="166.32"/></clipPath><clipPath id="j"><rect class="dq" x="50.14" y="11" width="223.2" height="166.32"/></clipPath><clipPath id="k"><rect class="dq" x="50.14" y="11" width="223.2" height="166.32"/></clipPath><clipPath id="l"><rect class="dq" x="129.27" y="32.45" width="16" height="16"/></clipPath><clipPath id="m"><rect class="dq" x="195.72" y="52.66" width="16" height="16"/></clipPath><clipPath id="n"><rect class="dq" x="189.19" y="52.11" width="16" height="16"/></clipPath><clipPath id="o"><rect class="dq" x="71.15" y="43.65" width="16" height="16"/></clipPath><clipPath id="p"><rect class="dq" x="173.48" y="32.15" width="16" height="16"/></clipPath><clipPath id="q"><rect class="dq" x="236.15" y="48.37" width="16" height="16"/></clipPath><clipPath id="r"><rect class="dq" x="178.67" y="65.53" width="16" height="16"/></clipPath><clipPath id="s"><rect class="dq" x="107.38" y="69.99" width="16" height="16"/></clipPath><clipPath id="t"><rect class="dq" x="255.04" y="73.95" width="16" height="16"/></clipPath><clipPath id="u"><rect class="dq" x="50.14" y="11" width="223.2" height="166.32"/></clipPath><clipPath id="v"><rect class="dq" x="129.27" y="112.64" width="16" height="16"/></clipPath><clipPath id="w"><rect class="dq" x="195.72" y="131.86" width="16" height="16"/></clipPath><clipPath id="x"><rect class="dq" x="189.19" y="146.36" width="16" height="16"/></clipPath><clipPath id="y"><rect class="dq" x="71.15" y="104.77" width="16" height="16"/></clipPath><clipPath id="z"><rect class="dq" x="173.48" y="150.31" width="16" height="16"/></clipPath><clipPath id="aa"><rect class="dq" x="236.15" y="132.03" width="16" height="16"/></clipPath><clipPath id="ab"><rect class="dq" x="255.04" y="148.53" width="16" height="16"/></clipPath><clipPath id="ac"><rect class="dq" x="50.14" y="11" width="223.2" height="166.32"/></clipPath><clipPath id="ad"><rect class="dq" x="50.14" y="11" width="223.2" height="166.32"/></clipPath><clipPath id="ae"><rect class="dq" x="127.27" y="46.97" width="20" height="10"/></clipPath><clipPath id="af"><rect class="dq" x="193.72" y="66.39" width="20" height="10"/></clipPath><clipPath id="ag"><rect class="dq" x="187.19" y="64.84" width="20" height="10"/></clipPath><clipPath id="ah"><rect class="dq" x="69.15" y="58.65" width="20" height="10"/></clipPath><clipPath id="ai"><rect class="dq" x="171.48" y="46.11" width="20" height="10"/></clipPath><clipPath id="aj"><rect class="dq" x="234.15" y="64.04" width="20" height="10"/></clipPath><clipPath id="ak"><rect class="dq" x="176.67" y="81.4" width="20" height="10"/></clipPath><clipPath id="al"><rect class="dq" x="105.38" y="88.5" width="20" height="10"/></clipPath><clipPath id="am"><rect class="dq" x="253.04" y="88.04" width="20" height="10"/></clipPath><clipPath id="an"><rect class="dq" x="50.14" y="11" width="223.2" height="166.32"/></clipPath><clipPath id="ao"><rect class="dq" x="127.27" y="26.92" width="20" height="10"/></clipPath><clipPath id="ap"><rect class="dq" x="193.72" y="46.75" width="20" height="10"/></clipPath><clipPath id="aq"><rect class="dq" x="187.19" y="46.92" width="20" height="10"/></clipPath><clipPath id="ar"><rect class="dq" x="69.15" y="36.95" width="20" height="10"/></clipPath><clipPath id="as"><rect class="dq" x="171.48" y="26.93" width="20" height="10"/></clipPath><clipPath id="at"><rect class="dq" x="234.15" y="41.64" width="20" height="10"/></clipPath><clipPath id="au"><rect class="dq" x="176.67" y="57.15" width="20" height="10"/></clipPath><clipPath id="av"><rect class="dq" x="105.38" y="59.46" width="20" height="10"/></clipPath><clipPath id="aw"><rect class="dq" x="253.04" y="66.39" width="20" height="10"/></clipPath><clipPath id="ax"><rect class="dq" x="50.14" y="11" width="223.2" height="166.32"/></clipPath><clipPath id="ay"><rect class="dq" x="50.14" y="11" width="223.2" height="166.32"/></clipPath><clipPath id="az"><rect class="dq" x="127.27" y="132.05" width="20" height="10"/></clipPath><clipPath id="ba"><rect class="dq" x="193.72" y="146.25" width="20" height="10"/></clipPath><clipPath id="bb"><rect class="dq" x="187.19" y="159.82" width="20" height="10"/></clipPath><clipPath id="bc"><rect class="dq" x="69.15" y="120.62" width="20" height="10"/></clipPath><clipPath id="bd"><rect class="dq" x="171.48" y="167.26" width="20" height="10"/></clipPath><clipPath id="be"><rect class="dq" x="234.15" y="149.71" width="20" height="10"/></clipPath><clipPath id="bf"><rect class="dq" x="253.04" y="163.9" width="20" height="10"/></clipPath><clipPath id="bg"><rect class="dq" x="50.14" y="11" width="223.2" height="166.32"/></clipPath><clipPath id="bh"><rect class="dq" x="127.27" y="100.08" width="20" height="10"/></clipPath><clipPath id="bi"><rect class="dq" x="193.72" y="123.64" width="20" height="10"/></clipPath><clipPath id="bj"><rect class="dq" x="187.19" y="139.45" width="20" height="10"/></clipPath><clipPath id="bk"><rect class="dq" x="69.15" y="96.06" width="20" height="10"/></clipPath><clipPath id="bl"><rect class="dq" x="171.48" y="139.83" width="20" height="10"/></clipPath><clipPath id="bm"><rect class="dq" x="234.15" y="121.33" width="20" height="10"/></clipPath><clipPath id="bn"><rect class="dq" x="253.04" y="138.66" width="20" height="10"/></clipPath></defs><rect class="ej" width="291.67" height="214.86"/><rect class="ej" x="50.14" y="11" width="223.2" height="166.32"/><line class="br" x1="58.72" y1="177.32" x2="58.72" y2="180.82"/><path d="m50.77,184.49c.82,0,1.44.32,1.87.97.43.65.65,1.58.65,2.82s-.22,2.16-.65,2.81c-.43.65-1.06.97-1.87.97s-1.44-.32-1.87-.97c-.43-.65-.65-1.58-.65-2.81s.22-2.17.65-2.82c.43-.65,1.06-.97,1.87-.97Zm0,.78c-.51,0-.89.25-1.15.75-.26.5-.38,1.25-.38,2.25s.13,1.75.38,2.25c.26.5.64.75,1.15.75s.89-.25,1.15-.75c.26-.5.38-1.25.38-2.25s-.13-1.75-.38-2.25c-.26-.5-.64-.75-1.15-.75Z"/><path d="m55.02,190.67h1.03v1.24h-1.03v-1.24Z"/><path d="m62.39,184.78v.9c-.25-.12-.5-.21-.75-.27s-.5-.09-.75-.09c-.65,0-1.15.22-1.49.66s-.54,1.1-.59,1.99c.19-.28.43-.5.72-.65.29-.15.61-.23.96-.23.73,0,1.31.22,1.74.67.42.44.64,1.05.64,1.81s-.22,1.35-.66,1.8-1.03.68-1.77.68c-.84,0-1.49-.32-1.93-.97-.45-.65-.67-1.58-.67-2.81,0-1.15.27-2.07.82-2.76.55-.68,1.28-1.03,2.2-1.03.25,0,.5.02.75.07s.52.12.79.22Zm-1.96,3.09c-.44,0-.79.15-1.05.45s-.39.72-.39,1.25.13.94.39,1.24c.26.3.61.46,1.05.46s.79-.15,1.05-.46c.26-.3.39-.72.39-1.24s-.13-.94-.39-1.25-.61-.45-1.05-.45Z"/><path d="m66.67,184.49c.82,0,1.44.32,1.87.97.43.65.65,1.58.65,2.82s-.22,2.16-.65,2.81c-.43.65-1.06.97-1.87.97s-1.44-.32-1.87-.97c-.43-.65-.65-1.58-.65-2.81s.22-2.17.65-2.82c.43-.65,1.06-.97,1.87-.97Zm0,.78c-.51,0-.89.25-1.15.75-.26.5-.38,1.25-.38,2.25s.13,1.75.38,2.25c.26.5.64.75,1.15.75s.89-.25,1.15-.75c.26-.5.38-1.25.38-2.25s-.13-1.75-.38-2.25c-.26-.5-.64-.75-1.15-.75Z"/><line class="br" x1="101.65" y1="177.32" x2="101.65" y2="180.82"/><path d="m93.69,184.49c.82,0,1.44.32,1.87.97.43.65.65,1.58.65,2.82s-.22,2.16-.65,2.81c-.43.65-1.06.97-1.87.97s-1.44-.32-1.87-.97c-.43-.65-.65-1.58-.65-2.81s.22-2.17.65-2.82c.43-.65,1.06-.97,1.87-.97Zm0,.78c-.51,0-.89.25-1.15.75-.26.5-.38,1.25-.38,2.25s.13,1.75.38,2.25c.26.5.64.75,1.15.75s.89-.25,1.15-.75c.26-.5.38-1.25.38-2.25s-.13-1.75-.38-2.25c-.26-.5-.64-.75-1.15-.75Z"/><path d="m97.94,190.67h1.03v1.24h-1.03v-1.24Z"/><path d="m105.31,184.78v.9c-.25-.12-.5-.21-.75-.27s-.5-.09-.75-.09c-.65,0-1.15.22-1.49.66s-.54,1.1-.59,1.99c.19-.28.43-.5.72-.65.29-.15.61-.23.96-.23.73,0,1.31.22,1.74.67.42.44.64,1.05.64,1.81s-.22,1.35-.66,1.8-1.03.68-1.77.68c-.84,0-1.49-.32-1.93-.97-.45-.65-.67-1.58-.67-2.81,0-1.15.27-2.07.82-2.76.55-.68,1.28-1.03,2.2-1.03.25,0,.5.02.75.07s.52.12.79.22Zm-1.96,3.09c-.44,0-.79.15-1.05.45s-.39.72-.39,1.25.13.94.39,1.24c.26.3.61.46,1.05.46s.79-.15,1.05-.46c.26-.3.39-.72.39-1.24s-.13-.94-.39-1.25-.61-.45-1.05-.45Z"/><path d="m107.49,184.62h3.87v.83h-2.97v1.79c.14-.05.29-.08.43-.11.14-.02.29-.04.43-.04.81,0,1.46.22,1.93.67s.71,1.05.71,1.81-.24,1.39-.73,1.83c-.49.43-1.18.65-2.07.65-.31,0-.62-.03-.94-.08s-.65-.13-.98-.23v-.99c.29.16.6.28.91.36s.64.12.99.12c.56,0,1.01-.15,1.34-.44s.49-.7.49-1.21-.16-.91-.49-1.21-.77-.44-1.34-.44c-.26,0-.53.03-.79.09s-.53.15-.8.27v-3.66Z"/><line class="br" x1="144.57" y1="177.32" x2="144.57" y2="180.82"/><path d="m136.61,184.49c.82,0,1.44.32,1.87.97.43.65.65,1.58.65,2.82s-.22,2.16-.65,2.81c-.43.65-1.06.97-1.87.97s-1.44-.32-1.87-.97c-.43-.65-.65-1.58-.65-2.81s.22-2.17.65-2.82c.43-.65,1.06-.97,1.87-.97Zm0,.78c-.51,0-.89.25-1.15.75-.26.5-.38,1.25-.38,2.25s.13,1.75.38,2.25c.26.5.64.75,1.15.75s.89-.25,1.15-.75c.26-.5.38-1.25.38-2.25s-.13-1.75-.38-2.25c-.26-.5-.64-.75-1.15-.75Z"/><path d="m140.87,190.67h1.03v1.24h-1.03v-1.24Z"/><path d="m143.8,184.62h4.69v.42l-2.65,6.87h-1.03l2.49-6.46h-3.5v-.83Z"/><path d="m152.52,184.49c.82,0,1.44.32,1.87.97.43.65.65,1.58.65,2.82s-.22,2.16-.65,2.81c-.43.65-1.06.97-1.87.97s-1.44-.32-1.87-.97c-.43-.65-.65-1.58-.65-2.81s.22-2.17.65-2.82c.43-.65,1.06-.97,1.87-.97Zm0,.78c-.51,0-.89.25-1.15.75-.25.5-.38,1.25-.38,2.25s.13,1.75.38,2.25c.26.5.64.75,1.15.75s.89-.25,1.15-.75c.26-.5.38-1.25.38-2.25s-.13-1.75-.38-2.25c-.25-.5-.64-.75-1.15-.75Z"/><line class="br" x1="187.49" y1="177.32" x2="187.49" y2="180.82"/><path d="m179.54,184.49c.82,0,1.44.32,1.87.97.43.65.65,1.58.65,2.82s-.22,2.16-.65,2.81c-.43.65-1.06.97-1.87.97s-1.44-.32-1.87-.97c-.43-.65-.65-1.58-.65-2.81s.22-2.17.65-2.82c.43-.65,1.06-.97,1.87-.97Zm0,.78c-.51,0-.89.25-1.14.75-.26.5-.38,1.25-.38,2.25s.13,1.75.38,2.25c.25.5.64.75,1.14.75s.89-.25,1.15-.75c.25-.5.38-1.25.38-2.25s-.13-1.75-.38-2.25c-.26-.5-.64-.75-1.15-.75Z"/><path d="m183.79,190.67h1.03v1.24h-1.03v-1.24Z"/><path d="m186.72,184.62h4.69v.42l-2.65,6.87h-1.03l2.49-6.46h-3.5v-.83Z"/><path d="m193.34,184.62h3.87v.83h-2.97v1.79c.14-.05.29-.08.43-.11.14-.02.29-.04.43-.04.81,0,1.46.22,1.93.67.48.45.71,1.05.71,1.81s-.24,1.39-.73,1.83c-.49.43-1.18.65-2.07.65-.31,0-.62-.03-.93-.08s-.65-.13-.98-.23v-.99c.29.16.6.28.91.36s.64.12.99.12c.56,0,1.01-.15,1.34-.44.33-.3.49-.7.49-1.21s-.16-.91-.49-1.21c-.33-.3-.77-.44-1.34-.44-.26,0-.53.03-.79.09-.26.06-.53.15-.8.27v-3.66Z"/><line class="br" x1="230.41" y1="177.32" x2="230.41" y2="180.82"/><path d="m222.46,184.49c.82,0,1.44.32,1.87.97.43.65.65,1.58.65,2.82s-.22,2.16-.65,2.81c-.43.65-1.06.97-1.87.97s-1.44-.32-1.87-.97c-.43-.65-.65-1.58-.65-2.81s.22-2.17.65-2.82c.43-.65,1.06-.97,1.87-.97Zm0,.78c-.51,0-.89.25-1.14.75-.26.5-.38,1.25-.38,2.25s.13,1.75.38,2.25c.25.5.64.75,1.14.75s.89-.25,1.15-.75c.25-.5.38-1.25.38-2.25s-.13-1.75-.38-2.25c-.26-.5-.64-.75-1.15-.75Z"/><path d="m226.71,190.67h1.03v1.24h-1.03v-1.24Z"/><path d="m231.01,188.03c-.42-.1-.75-.3-.99-.59-.24-.29-.35-.64-.35-1.06,0-.58.21-1.04.62-1.38s.98-.51,1.71-.51,1.3.17,1.71.51c.41.34.62.8.62,1.38,0,.42-.12.77-.35,1.06-.24.29-.56.49-.98.59.48.11.85.33,1.11.65.26.32.4.72.4,1.18,0,.71-.22,1.25-.65,1.63-.43.38-1.05.57-1.85.57s-1.42-.19-1.85-.57c-.43-.38-.65-.92-.65-1.63,0-.47.13-.86.4-1.18.27-.32.64-.54,1.11-.65Zm.99.42c-.47,0-.84.12-1.11.38s-.4.6-.4,1.04.13.78.4,1.04.64.38,1.11.38.84-.13,1.11-.38c.27-.25.41-.6.41-1.03s-.13-.78-.4-1.04-.64-.38-1.11-.38Zm-1.35-1.98c0,.38.12.67.35.88.24.21.57.32.99.32s.75-.11.99-.32.36-.51.36-.88-.12-.67-.36-.88-.57-.32-.99-.32-.76.11-.99.32c-.24.21-.35.51-.35.88Z"/><path d="m238.36,184.49c.82,0,1.44.32,1.87.97.43.65.65,1.58.65,2.82s-.22,2.16-.65,2.81c-.43.65-1.06.97-1.87.97s-1.44-.32-1.87-.97c-.43-.65-.65-1.58-.65-2.81s.22-2.17.65-2.82c.43-.65,1.06-.97,1.87-.97Zm0,.78c-.51,0-.89.25-1.14.75-.26.5-.38,1.25-.38,2.25s.13,1.75.38,2.25c.25.5.64.75,1.14.75s.89-.25,1.15-.75c.25-.5.38-1.25.38-2.25s-.13-1.75-.38-2.25c-.26-.5-.64-.75-1.15-.75Z"/><line class="br" x1="273.34" y1="177.32" x2="273.34" y2="180.82"/><path d="m265.38,184.49c.82,0,1.44.32,1.87.97.43.65.65,1.58.65,2.82s-.22,2.16-.65,2.81c-.43.65-1.06.97-1.87.97s-1.44-.32-1.87-.97c-.43-.65-.65-1.58-.65-2.81s.22-2.17.65-2.82c.43-.65,1.06-.97,1.87-.97Zm0,.78c-.51,0-.89.25-1.15.75-.25.5-.38,1.25-.38,2.25s.13,1.75.38,2.25c.26.5.64.75,1.15.75s.89-.25,1.15-.75c.26-.5.38-1.25.38-2.25s-.13-1.75-.38-2.25c-.25-.5-.64-.75-1.15-.75Z"/><path d="m269.64,190.67h1.03v1.24h-1.03v-1.24Z"/><path d="m273.94,188.03c-.42-.1-.75-.3-.99-.59-.24-.29-.35-.64-.35-1.06,0-.58.21-1.04.62-1.38s.98-.51,1.71-.51,1.29.17,1.71.51c.41.34.62.8.62,1.38,0,.42-.12.77-.35,1.06-.24.29-.56.49-.98.59.47.11.85.33,1.11.65.27.32.4.72.4,1.18,0,.71-.22,1.25-.65,1.63-.43.38-1.05.57-1.85.57s-1.42-.19-1.85-.57c-.43-.38-.65-.92-.65-1.63,0-.47.13-.86.4-1.18.27-.32.64-.54,1.11-.65Zm.99.42c-.47,0-.84.12-1.11.38s-.4.6-.4,1.04.13.78.4,1.04.64.38,1.11.38.84-.13,1.11-.38c.27-.25.41-.6.41-1.03s-.13-.78-.4-1.04-.64-.38-1.11-.38Zm-1.35-1.98c0,.38.12.67.35.88.24.21.57.32.99.32s.75-.11.99-.32.36-.51.36-.88-.12-.67-.36-.88-.57-.32-.99-.32-.76.11-.99.32c-.24.21-.35.51-.35.88Z"/><path d="m279.19,184.62h3.87v.83h-2.97v1.79c.14-.05.29-.08.43-.11.14-.02.29-.04.43-.04.81,0,1.46.22,1.93.67.47.45.71,1.05.71,1.81s-.24,1.39-.73,1.83c-.49.43-1.18.65-2.07.65-.31,0-.62-.03-.94-.08s-.65-.13-.98-.23v-.99c.29.16.6.28.91.36s.64.12.99.12c.56,0,1.01-.15,1.34-.44.33-.3.49-.7.49-1.21s-.17-.91-.49-1.21c-.33-.3-.78-.44-1.34-.44-.26,0-.53.03-.79.09-.26.06-.53.15-.8.27v-3.66Z"/><path d="m72.52,198.29h.99v7.29h-.99v-7.29Z"/><path d="m79.69,201.16c.22-.4.49-.7.81-.89s.68-.29,1.1-.29c.57,0,1.01.2,1.32.6.31.4.46.97.46,1.7v3.3h-.9v-3.27c0-.52-.09-.91-.28-1.17s-.47-.38-.85-.38c-.47,0-.83.15-1.1.46s-.41.73-.41,1.26v3.09h-.9v-3.27c0-.53-.09-.92-.28-1.17-.19-.25-.47-.38-.86-.38-.46,0-.82.16-1.09.47-.27.31-.41.73-.41,1.26v3.09h-.9v-5.47h.9v.85c.21-.33.45-.58.74-.74s.63-.24,1.02-.24.73.1,1.01.3.48.5.62.88Z"/><path d="m89.45,202.46v3.12h-.9v-.83c-.21.33-.46.58-.77.73-.31.16-.68.24-1.12.24-.56,0-1-.16-1.34-.47-.33-.31-.5-.73-.5-1.26,0-.62.21-1.08.62-1.39s1.03-.47,1.84-.47h1.26v-.09c0-.41-.14-.73-.41-.96-.27-.23-.65-.34-1.15-.34-.31,0-.62.04-.91.11s-.58.19-.85.34v-.83c.33-.13.65-.22.96-.29.31-.06.61-.09.9-.09.79,0,1.38.21,1.77.62s.59,1.03.59,1.87Zm-1.79.37c-.73,0-1.23.08-1.51.25s-.42.45-.42.85c0,.32.1.57.31.76.21.19.5.28.86.28.5,0,.9-.18,1.2-.53.3-.35.45-.82.45-1.41v-.2h-.89Z"/><path d="m95.8,204.9c0,.93-.21,1.62-.62,2.08-.41.46-1.05.68-1.9.68-.32,0-.61-.02-.89-.07-.28-.05-.55-.12-.82-.22v-.87c.26.14.52.25.78.32s.52.1.79.1c.59,0,1.03-.15,1.32-.46.29-.31.44-.77.44-1.39v-.44c-.19.32-.42.56-.71.72s-.64.24-1.04.24c-.67,0-1.21-.26-1.62-.77s-.62-1.19-.62-2.03.21-1.53.62-2.04.95-.77,1.62-.77c.4,0,.75.08,1.04.24s.53.4.71.72v-.83h.9v4.79Zm-.9-2.12c0-.65-.13-1.16-.4-1.51s-.65-.54-1.13-.54-.86.18-1.13.54-.4.86-.4,1.51.13,1.15.4,1.51.64.54,1.13.54.86-.18,1.13-.54.4-.86.4-1.51Z"/><path d="m102.33,202.62v.44h-4.13c.04.62.23,1.09.56,1.41.33.32.8.49,1.39.49.35,0,.68-.04,1-.13s.65-.21.96-.38v.85c-.32.14-.65.24-.99.31s-.68.11-1.03.11c-.87,0-1.56-.25-2.07-.76s-.76-1.19-.76-2.06.24-1.61.73-2.13c.48-.53,1.14-.79,1.96-.79.74,0,1.32.24,1.75.71.43.47.64,1.12.64,1.93Zm-.9-.26c0-.49-.14-.88-.41-1.18s-.62-.44-1.07-.44c-.5,0-.9.14-1.2.42s-.47.68-.52,1.2h3.2Z"/><path d="m103.84,198.29h1.33l3.23,6.1v-6.1h.96v7.29h-1.33l-3.23-6.1v6.1h-.96v-7.29Z"/><path d="m115.96,202.62v.44h-4.13c.04.62.23,1.09.56,1.41.33.32.8.49,1.39.49.35,0,.68-.04,1-.13s.65-.21.96-.38v.85c-.32.14-.65.24-.99.31s-.68.11-1.03.11c-.87,0-1.56-.25-2.07-.76s-.76-1.19-.76-2.06.24-1.61.73-2.13c.48-.53,1.14-.79,1.96-.79.74,0,1.32.24,1.75.71.43.47.64,1.12.64,1.93Zm-.9-.26c0-.49-.14-.88-.41-1.18s-.62-.44-1.07-.44c-.5,0-.9.14-1.2.42s-.47.68-.52,1.2h3.2Z"/><path d="m118.32,198.56v1.55h1.85v.7h-1.85v2.97c0,.45.06.73.18.86s.37.19.74.19h.92v.75h-.92c-.69,0-1.17-.13-1.44-.39-.26-.26-.4-.73-.4-1.41v-2.97h-.66v-.7h.66v-1.55h.9Z"/><path d="m126.45,205.58l-2.78-7.29h1.03l2.31,6.14,2.31-6.14h1.03l-2.78,7.29h-1.12Z"/><path d="m134.89,202.46v3.12h-.9v-.83c-.21.33-.46.58-.77.73-.31.16-.68.24-1.12.24-.56,0-1-.16-1.34-.47-.33-.31-.5-.73-.5-1.26,0-.62.21-1.08.62-1.39s1.03-.47,1.84-.47h1.26v-.09c0-.41-.14-.73-.41-.96-.27-.23-.65-.34-1.15-.34-.31,0-.62.04-.91.11s-.58.19-.85.34v-.83c.33-.13.65-.22.96-.29.31-.06.61-.09.9-.09.79,0,1.38.21,1.77.62s.59,1.03.59,1.87Zm-1.79.37c-.73,0-1.23.08-1.51.25s-.42.45-.42.85c0,.32.1.57.31.76.21.19.5.28.86.28.5,0,.9-.18,1.2-.53.3-.35.45-.82.45-1.41v-.2h-.89Z"/><path d="m136.74,197.98h.9v7.6h-.9v-7.6Z"/><path d="m139.52,197.98h.9v1.14h-.9v-1.14Zm0,2.13h.9v5.47h-.9v-5.47Z"/><path d="m145.9,200.94v-2.96h.9v7.6h-.9v-.82c-.19.33-.43.57-.71.72-.29.16-.63.24-1.04.24-.66,0-1.2-.26-1.61-.79s-.62-1.22-.62-2.08.21-1.55.62-2.08.95-.79,1.61-.79c.4,0,.75.08,1.04.24.29.16.53.4.71.72Zm-3.06,1.91c0,.66.14,1.18.41,1.56.27.38.65.56,1.12.56s.85-.19,1.12-.56c.27-.38.41-.89.41-1.56s-.14-1.18-.41-1.56c-.27-.38-.65-.56-1.12-.56s-.85.19-1.12.56c-.27.38-.41.89-.41,1.56Z"/><path d="m152.93,202.46v3.12h-.9v-.83c-.21.33-.46.58-.77.73-.31.16-.68.24-1.12.24-.56,0-1-.16-1.33-.47-.33-.31-.5-.73-.5-1.26,0-.62.21-1.08.62-1.39.41-.31,1.03-.47,1.84-.47h1.26v-.09c0-.41-.14-.73-.41-.96-.27-.23-.65-.34-1.15-.34-.31,0-.62.04-.91.11-.3.08-.58.19-.85.34v-.83c.33-.13.65-.22.96-.29.31-.06.61-.09.9-.09.79,0,1.38.21,1.77.62s.59,1.03.59,1.87Zm-1.79.37c-.73,0-1.23.08-1.51.25-.28.17-.42.45-.42.85,0,.32.11.57.32.76.21.19.5.28.86.28.5,0,.9-.18,1.2-.53.3-.35.45-.82.45-1.41v-.2h-.89Z"/><path d="m155.67,198.56v1.55h1.85v.7h-1.85v2.97c0,.45.06.73.18.86s.37.19.74.19h.92v.75h-.92c-.69,0-1.17-.13-1.44-.39-.26-.26-.4-.73-.4-1.41v-2.97h-.66v-.7h.66v-1.55h.9Z"/><path d="m158.7,197.98h.9v1.14h-.9v-1.14Zm0,2.13h.9v5.47h-.9v-5.47Z"/><path d="m163.59,199.98c.78,0,1.4.25,1.84.76.45.51.67,1.21.67,2.11s-.22,1.6-.67,2.11c-.45.51-1.06.76-1.84.76s-1.4-.25-1.84-.76c-.44-.51-.67-1.21-.67-2.11s.22-1.6.67-2.11,1.06-.76,1.84-.76Zm0,.76c-.48,0-.86.19-1.14.56-.28.38-.42.89-.42,1.55s.14,1.17.42,1.55c.28.38.66.56,1.14.56s.86-.19,1.14-.57c.28-.38.42-.89.42-1.54s-.14-1.16-.42-1.54c-.28-.38-.66-.57-1.14-.57Z"/><path d="m172.14,202.28v3.3h-.9v-3.27c0-.52-.1-.91-.3-1.16-.2-.26-.5-.39-.91-.39-.48,0-.87.15-1.15.46-.28.31-.42.73-.42,1.26v3.09h-.9v-5.47h.9v.85c.21-.33.47-.57.76-.74.29-.16.63-.24,1.01-.24.63,0,1.1.19,1.43.58.32.39.48.96.48,1.72Z"/><path d="m176.14,198.29h6.17v.83h-2.59v6.46h-.99v-6.46h-2.59v-.83Z"/><path d="m183.66,199.98c.78,0,1.39.25,1.84.76.45.51.67,1.21.67,2.11s-.22,1.6-.67,2.11c-.45.51-1.06.76-1.84.76s-1.4-.25-1.84-.76c-.44-.51-.67-1.21-.67-2.11s.22-1.6.67-2.11,1.06-.76,1.84-.76Zm0,.76c-.48,0-.86.19-1.14.56-.28.38-.42.89-.42,1.55s.14,1.17.42,1.55c.28.38.66.56,1.15.56s.86-.19,1.14-.57c.28-.38.42-.89.42-1.54s-.14-1.16-.42-1.54c-.28-.38-.66-.57-1.14-.57Z"/><path d="m188.53,204.76v2.9h-.9v-7.55h.9v.83c.19-.33.43-.57.71-.72.29-.16.63-.24,1.03-.24.66,0,1.2.26,1.62.79s.62,1.22.62,2.08-.21,1.55-.62,2.08-.95.79-1.62.79c-.4,0-.75-.08-1.03-.24-.29-.16-.53-.4-.71-.72Zm3.06-1.91c0-.66-.14-1.18-.41-1.56-.27-.38-.65-.56-1.12-.56s-.85.19-1.12.56c-.27.38-.41.89-.41,1.56s.14,1.18.41,1.56c.27.38.65.56,1.12.56s.85-.19,1.12-.56c.27-.38.41-.89.41-1.56Z"/><path d="m193.55,202.44h2.63v.8h-2.63v-.8Z"/><path d="m197.91,204.75h1.61v-5.56l-1.75.35v-.9l1.74-.35h.99v6.46h1.61v.83h-4.2v-.83Z"/><path d="m209.07,198.29h1.12l2.78,7.29h-1.03l-.66-1.87h-3.29l-.66,1.87h-1.04l2.78-7.29Zm.56.97l-1.34,3.63h2.68l-1.34-3.63Z"/><path d="m217.76,200.32v.84c-.25-.14-.51-.25-.77-.32-.25-.07-.51-.1-.77-.1-.58,0-1.04.18-1.36.55-.32.37-.48.89-.48,1.56s.16,1.19.48,1.56c.32.37.77.55,1.36.55.26,0,.52-.04.77-.1.26-.07.51-.18.77-.32v.83c-.25.12-.51.21-.78.26-.27.06-.55.09-.86.09-.82,0-1.48-.26-1.96-.78-.49-.52-.73-1.22-.73-2.09s.25-1.59.73-2.1c.49-.51,1.16-.77,2.01-.77.28,0,.55.03.81.08.26.06.52.14.77.26Z"/><path d="m223.26,200.32v.84c-.25-.14-.51-.25-.76-.32-.25-.07-.51-.1-.77-.1-.58,0-1.04.18-1.36.55-.32.37-.48.89-.48,1.56s.16,1.19.48,1.56c.32.37.77.55,1.36.55.26,0,.52-.04.77-.1.26-.07.51-.18.76-.32v.83c-.25.12-.51.21-.78.26-.27.06-.55.09-.86.09-.82,0-1.48-.26-1.96-.78s-.73-1.22-.73-2.09.25-1.59.74-2.1c.49-.51,1.16-.77,2.01-.77.28,0,.55.03.81.08.26.06.52.14.77.26Z"/><path d="m224.73,203.42v-3.31h.9v3.28c0,.52.1.91.3,1.17.2.26.5.39.91.39.49,0,.87-.15,1.15-.46.28-.31.42-.73.42-1.26v-3.1h.9v5.47h-.9v-.84c-.22.33-.47.58-.76.74-.29.16-.62.24-1,.24-.63,0-1.11-.2-1.43-.59s-.49-.96-.49-1.71Z"/><path d="m234.33,200.95c-.1-.06-.21-.1-.33-.13-.12-.03-.25-.04-.39-.04-.51,0-.9.17-1.17.5-.27.33-.41.81-.41,1.42v2.88h-.9v-5.47h.9v.85c.19-.33.43-.58.74-.74.3-.16.67-.24,1.1-.24.06,0,.13,0,.21.01.08,0,.16.02.25.04v.92Z"/><path d="m239.55,202.46v3.12h-.9v-.83c-.21.33-.46.58-.77.73-.31.16-.68.24-1.12.24-.56,0-1-.16-1.34-.47-.33-.31-.5-.73-.5-1.26,0-.62.21-1.08.62-1.39.41-.31,1.03-.47,1.84-.47h1.26v-.09c0-.41-.14-.73-.41-.96-.27-.23-.65-.34-1.15-.34-.31,0-.62.04-.91.11s-.58.19-.85.34v-.83c.33-.13.65-.22.96-.29.31-.06.61-.09.9-.09.79,0,1.38.21,1.77.62s.59,1.03.59,1.87Zm-1.79.37c-.73,0-1.23.08-1.51.25s-.42.45-.42.85c0,.32.1.57.32.76.21.19.5.28.86.28.5,0,.9-.18,1.2-.53.3-.35.45-.82.45-1.41v-.2h-.89Z"/><path d="m245.33,200.32v.84c-.25-.14-.51-.25-.76-.32-.25-.07-.51-.1-.77-.1-.58,0-1.04.18-1.36.55-.32.37-.48.89-.48,1.56s.16,1.19.48,1.56c.32.37.77.55,1.36.55.26,0,.52-.04.77-.1.26-.07.51-.18.76-.32v.83c-.25.12-.51.21-.78.26-.27.06-.55.09-.86.09-.82,0-1.48-.26-1.96-.78s-.73-1.22-.73-2.09.25-1.59.74-2.1c.49-.51,1.16-.77,2.01-.77.28,0,.55.03.81.08.26.06.52.14.77.26Z"/><path d="m249.17,206.09c-.25.65-.5,1.08-.74,1.27s-.56.3-.97.3h-.72v-.75h.53c.25,0,.44-.06.58-.18s.29-.39.45-.83l.16-.41-2.21-5.38h.95l1.71,4.28,1.71-4.28h.95l-2.4,5.98Z"/><g class="cl"><line class="ee" x1="50.14" y1="177.32" x2="273.34" y2="177.32"/></g><line class="br" x1="50.14" y1="177.32" x2="46.64" y2="177.32"/><path d="m24.05,173.69c.82,0,1.44.32,1.87.97.43.65.65,1.58.65,2.82s-.22,2.16-.65,2.81c-.43.65-1.06.97-1.87.97s-1.44-.32-1.87-.97c-.43-.65-.65-1.58-.65-2.81s.22-2.17.65-2.82c.43-.65,1.06-.97,1.87-.97Zm0,.78c-.51,0-.89.25-1.15.75-.26.5-.38,1.25-.38,2.25s.13,1.75.38,2.25c.26.5.64.75,1.15.75s.89-.25,1.15-.75c.26-.5.38-1.25.38-2.25s-.13-1.75-.38-2.25c-.26-.5-.64-.75-1.15-.75Z"/><path d="m28.3,179.87h1.03v1.24h-1.03v-1.24Z"/><path d="m31.49,173.82h3.87v.83h-2.97v1.79c.14-.05.29-.08.43-.11.14-.02.29-.04.43-.04.81,0,1.46.22,1.93.67s.71,1.05.71,1.81-.24,1.39-.73,1.83c-.49.43-1.18.65-2.07.65-.31,0-.62-.03-.94-.08s-.65-.13-.98-.23v-.99c.29.16.6.28.91.36s.64.12.99.12c.56,0,1.01-.15,1.34-.44s.49-.7.49-1.21-.16-.91-.49-1.21-.77-.44-1.34-.44c-.26,0-.53.03-.79.09s-.53.15-.8.27v-3.66Z"/><path d="m37.85,173.82h3.87v.83h-2.97v1.79c.14-.05.29-.08.43-.11.14-.02.29-.04.43-.04.81,0,1.46.22,1.93.67s.71,1.05.71,1.81-.24,1.39-.73,1.83c-.49.43-1.18.65-2.07.65-.31,0-.62-.03-.94-.08s-.65-.13-.98-.23v-.99c.29.16.6.28.91.36s.64.12.99.12c.56,0,1.01-.15,1.34-.44s.49-.7.49-1.21-.16-.91-.49-1.21-.77-.44-1.34-.44c-.26,0-.53.03-.79.09s-.53.15-.8.27v-3.66Z"/><g class="ck"><line class="ee" x1="50.14" y1="156.53" x2="273.34" y2="156.53"/></g><line class="br" x1="50.14" y1="156.53" x2="46.64" y2="156.53"/><path d="m24.05,152.9c.82,0,1.44.32,1.87.97.43.65.65,1.58.65,2.82s-.22,2.16-.65,2.81c-.43.65-1.06.97-1.87.97s-1.44-.32-1.87-.97c-.43-.65-.65-1.58-.65-2.81s.22-2.17.65-2.82c.43-.65,1.06-.97,1.87-.97Zm0,.78c-.51,0-.89.25-1.15.75-.26.5-.38,1.25-.38,2.25s.13,1.75.38,2.25c.26.5.64.75,1.15.75s.89-.25,1.15-.75c.26-.5.38-1.25.38-2.25s-.13-1.75-.38-2.25c-.26-.5-.64-.75-1.15-.75Z"/><path d="m28.3,159.08h1.03v1.24h-1.03v-1.24Z"/><path d="m35.67,153.19v.9c-.25-.12-.5-.21-.75-.27s-.5-.09-.75-.09c-.65,0-1.15.22-1.49.66s-.54,1.1-.59,1.99c.19-.28.43-.5.72-.65.29-.15.61-.23.96-.23.73,0,1.31.22,1.74.67.42.44.64,1.05.64,1.81s-.22,1.35-.66,1.8-1.03.68-1.77.68c-.84,0-1.49-.32-1.93-.97-.45-.65-.67-1.58-.67-2.81,0-1.15.27-2.07.82-2.76.55-.68,1.28-1.03,2.2-1.03.25,0,.5.02.75.07s.52.12.79.22Zm-1.96,3.09c-.44,0-.79.15-1.05.45s-.39.72-.39,1.25.13.94.39,1.24c.26.3.61.46,1.05.46s.79-.15,1.05-.46c.26-.3.39-.72.39-1.24s-.13-.94-.39-1.25-.61-.45-1.05-.45Z"/><path d="m39.95,152.9c.82,0,1.44.32,1.87.97.43.65.65,1.58.65,2.82s-.22,2.16-.65,2.81c-.43.65-1.06.97-1.87.97s-1.44-.32-1.87-.97c-.43-.65-.65-1.58-.65-2.81s.22-2.17.65-2.82c.43-.65,1.06-.97,1.87-.97Zm0,.78c-.51,0-.89.25-1.15.75-.26.5-.38,1.25-.38,2.25s.13,1.75.38,2.25c.26.5.64.75,1.15.75s.89-.25,1.15-.75c.26-.5.38-1.25.38-2.25s-.13-1.75-.38-2.25c-.26-.5-.64-.75-1.15-.75Z"/><g class="dh"><line class="ee" x1="50.14" y1="135.74" x2="273.34" y2="135.74"/></g><line class="br" x1="50.14" y1="135.74" x2="46.64" y2="135.74"/><path d="m24.05,132.11c.82,0,1.44.32,1.87.97.43.65.65,1.58.65,2.82s-.22,2.16-.65,2.81c-.43.65-1.06.97-1.87.97s-1.44-.32-1.87-.97c-.43-.65-.65-1.58-.65-2.81s.22-2.17.65-2.82c.43-.65,1.06-.97,1.87-.97Zm0,.78c-.51,0-.89.25-1.15.75-.26.5-.38,1.25-.38,2.25s.13,1.75.38,2.25c.26.5.64.75,1.15.75s.89-.25,1.15-.75c.26-.5.38-1.25.38-2.25s-.13-1.75-.38-2.25c-.26-.5-.64-.75-1.15-.75Z"/><path d="m28.3,138.29h1.03v1.24h-1.03v-1.24Z"/><path d="m35.67,132.4v.9c-.25-.12-.5-.21-.75-.27s-.5-.09-.75-.09c-.65,0-1.15.22-1.49.66s-.54,1.1-.59,1.99c.19-.28.43-.5.72-.65.29-.15.61-.23.96-.23.73,0,1.31.22,1.74.67.42.44.64,1.05.64,1.81s-.22,1.35-.66,1.8-1.03.68-1.77.68c-.84,0-1.49-.32-1.93-.97-.45-.65-.67-1.58-.67-2.81,0-1.15.27-2.07.82-2.76.55-.68,1.28-1.03,2.2-1.03.25,0,.5.02.75.07s.52.12.79.22Zm-1.96,3.09c-.44,0-.79.15-1.05.45s-.39.72-.39,1.25.13.94.39,1.24c.26.3.61.46,1.05.46s.79-.15,1.05-.46c.26-.3.39-.72.39-1.24s-.13-.94-.39-1.25-.61-.45-1.05-.45Z"/><path d="m37.85,132.24h3.87v.83h-2.97v1.79c.14-.05.29-.08.43-.11.14-.02.29-.04.43-.04.81,0,1.46.22,1.93.67s.71,1.05.71,1.81-.24,1.39-.73,1.83c-.49.43-1.18.65-2.07.65-.31,0-.62-.03-.94-.08s-.65-.13-.98-.23v-.99c.29.16.6.28.91.36s.64.12.99.12c.56,0,1.01-.15,1.34-.44s.49-.7.49-1.21-.16-.91-.49-1.21-.77-.44-1.34-.44c-.26,0-.53.03-.79.09s-.53.15-.8.27v-3.66Z"/><g class="bx"><line class="ee" x1="50.14" y1="114.95" x2="273.34" y2="114.95"/></g><line class="br" x1="50.14" y1="114.95" x2="46.64" y2="114.95"/><path d="m24.05,111.32c.82,0,1.44.32,1.87.97.43.65.65,1.58.65,2.82s-.22,2.16-.65,2.81c-.43.65-1.06.97-1.87.97s-1.44-.32-1.87-.97c-.43-.65-.65-1.58-.65-2.81s.22-2.17.65-2.82c.43-.65,1.06-.97,1.87-.97Zm0,.78c-.51,0-.89.25-1.15.75-.26.5-.38,1.25-.38,2.25s.13,1.75.38,2.25c.26.5.64.75,1.15.75s.89-.25,1.15-.75c.26-.5.38-1.25.38-2.25s-.13-1.75-.38-2.25c-.26-.5-.64-.75-1.15-.75Z"/><path d="m28.3,117.5h1.03v1.24h-1.03v-1.24Z"/><path d="m31.23,111.45h4.69v.42l-2.65,6.87h-1.03l2.49-6.46h-3.5v-.83Z"/><path d="m39.95,111.32c.82,0,1.44.32,1.87.97.43.65.65,1.58.65,2.82s-.22,2.16-.65,2.81c-.43.65-1.06.97-1.87.97s-1.44-.32-1.87-.97c-.43-.65-.65-1.58-.65-2.81s.22-2.17.65-2.82c.43-.65,1.06-.97,1.87-.97Zm0,.78c-.51,0-.89.25-1.15.75-.26.5-.38,1.25-.38,2.25s.13,1.75.38,2.25c.26.5.64.75,1.15.75s.89-.25,1.15-.75c.26-.5.38-1.25.38-2.25s-.13-1.75-.38-2.25c-.26-.5-.64-.75-1.15-.75Z"/><g class="db"><line class="ee" x1="50.14" y1="94.16" x2="273.34" y2="94.16"/></g><line class="br" x1="50.14" y1="94.16" x2="46.64" y2="94.16"/><path d="m24.05,90.53c.82,0,1.44.32,1.87.97.43.65.65,1.58.65,2.82s-.22,2.16-.65,2.81c-.43.65-1.06.97-1.87.97s-1.44-.32-1.87-.97c-.43-.65-.65-1.58-.65-2.81s.22-2.17.65-2.82c.43-.65,1.06-.97,1.87-.97Zm0,.78c-.51,0-.89.25-1.15.75-.26.5-.38,1.25-.38,2.25s.13,1.75.38,2.25c.26.5.64.75,1.15.75s.89-.25,1.15-.75c.26-.5.38-1.25.38-2.25s-.13-1.75-.38-2.25c-.26-.5-.64-.75-1.15-.75Z"/><path d="m28.3,96.71h1.03v1.24h-1.03v-1.24Z"/><path d="m31.23,90.66h4.69v.42l-2.65,6.87h-1.03l2.49-6.46h-3.5v-.83Z"/><path d="m37.85,90.66h3.87v.83h-2.97v1.79c.14-.05.29-.08.43-.11.14-.02.29-.04.43-.04.81,0,1.46.22,1.93.67s.71,1.05.71,1.81-.24,1.39-.73,1.83c-.49.43-1.18.65-2.07.65-.31,0-.62-.03-.94-.08s-.65-.13-.98-.23v-.99c.29.16.6.28.91.36s.64.12.99.12c.56,0,1.01-.15,1.34-.44s.49-.7.49-1.21-.16-.91-.49-1.21-.77-.44-1.34-.44c-.26,0-.53.03-.79.09s-.53.15-.8.27v-3.66Z"/><g class="ec"><line class="ee" x1="50.14" y1="73.37" x2="273.34" y2="73.37"/></g><line class="br" x1="50.14" y1="73.37" x2="46.64" y2="73.37"/><path d="m24.05,69.74c.82,0,1.44.32,1.87.97.43.65.65,1.58.65,2.82s-.22,2.16-.65,2.81c-.43.65-1.06.97-1.87.97s-1.44-.32-1.87-.97c-.43-.65-.65-1.58-.65-2.81s.22-2.17.65-2.82c.43-.65,1.06-.97,1.87-.97Zm0,.78c-.51,0-.89.25-1.15.75-.26.5-.38,1.25-.38,2.25s.13,1.75.38,2.25c.26.5.64.75,1.15.75s.89-.25,1.15-.75c.26-.5.38-1.25.38-2.25s-.13-1.75-.38-2.25c-.26-.5-.64-.75-1.15-.75Z"/><path d="m28.3,75.92h1.03v1.24h-1.03v-1.24Z"/><path d="m32.61,73.28c-.42-.1-.75-.3-.99-.59s-.35-.64-.35-1.06c0-.58.21-1.04.62-1.38s.98-.51,1.71-.51,1.3.17,1.71.51.62.8.62,1.38c0,.42-.12.77-.35,1.06s-.56.49-.98.59c.48.11.85.33,1.11.65s.4.72.4,1.18c0,.71-.22,1.25-.65,1.63s-1.05.57-1.85.57-1.42-.19-1.85-.57-.65-.92-.65-1.63c0-.47.13-.86.4-1.18s.64-.54,1.11-.65Zm.99.42c-.47,0-.84.12-1.11.38s-.4.6-.4,1.04.13.78.4,1.04.64.38,1.11.38.84-.13,1.11-.38c.27-.25.41-.6.41-1.03s-.13-.78-.4-1.04-.64-.38-1.11-.38Zm-1.35-1.98c0,.38.12.67.35.88s.57.32.99.32.75-.11.99-.32.36-.51.36-.88-.12-.67-.36-.88-.57-.32-.99-.32-.76.11-.99.32-.35.51-.35.88Z"/><path d="m39.95,69.74c.82,0,1.44.32,1.87.97.43.65.65,1.58.65,2.82s-.22,2.16-.65,2.81c-.43.65-1.06.97-1.87.97s-1.44-.32-1.87-.97c-.43-.65-.65-1.58-.65-2.81s.22-2.17.65-2.82c.43-.65,1.06-.97,1.87-.97Zm0,.78c-.51,0-.89.25-1.15.75-.26.5-.38,1.25-.38,2.25s.13,1.75.38,2.25c.26.5.64.75,1.15.75s.89-.25,1.15-.75c.26-.5.38-1.25.38-2.25s-.13-1.75-.38-2.25c-.26-.5-.64-.75-1.15-.75Z"/><g class="dr"><line class="ee" x1="50.14" y1="52.58" x2="273.34" y2="52.58"/></g><line class="br" x1="50.14" y1="52.58" x2="46.64" y2="52.58"/><path d="m24.05,48.95c.82,0,1.44.32,1.87.97.43.65.65,1.58.65,2.82s-.22,2.16-.65,2.81c-.43.65-1.06.97-1.87.97s-1.44-.32-1.87-.97c-.43-.65-.65-1.58-.65-2.81s.22-2.17.65-2.82c.43-.65,1.06-.97,1.87-.97Zm0,.78c-.51,0-.89.25-1.15.75-.26.5-.38,1.25-.38,2.25s.13,1.75.38,2.25c.26.5.64.75,1.15.75s.89-.25,1.15-.75c.26-.5.38-1.25.38-2.25s-.13-1.75-.38-2.25c-.26-.5-.64-.75-1.15-.75Z"/><path d="m28.3,55.13h1.03v1.24h-1.03v-1.24Z"/><path d="m32.61,52.49c-.42-.1-.75-.3-.99-.59s-.35-.64-.35-1.06c0-.58.21-1.04.62-1.38s.98-.51,1.71-.51,1.3.17,1.71.51.62.8.62,1.38c0,.42-.12.77-.35,1.06s-.56.49-.98.59c.48.11.85.33,1.11.65s.4.72.4,1.18c0,.71-.22,1.25-.65,1.63s-1.05.57-1.85.57-1.42-.19-1.85-.57-.65-.92-.65-1.63c0-.47.13-.86.4-1.18s.64-.54,1.11-.65Zm.99.42c-.47,0-.84.12-1.11.38s-.4.6-.4,1.04.13.78.4,1.04.64.38,1.11.38.84-.13,1.11-.38c.27-.25.41-.6.41-1.03s-.13-.78-.4-1.04-.64-.38-1.11-.38Zm-1.35-1.98c0,.38.12.67.35.88s.57.32.99.32.75-.11.99-.32.36-.51.36-.88-.12-.67-.36-.88-.57-.32-.99-.32-.76.11-.99.32-.35.51-.35.88Z"/><path d="m37.85,49.08h3.87v.83h-2.97v1.79c.14-.05.29-.08.43-.11.14-.02.29-.04.43-.04.81,0,1.46.22,1.93.67s.71,1.05.71,1.81-.24,1.39-.73,1.83c-.49.43-1.18.65-2.07.65-.31,0-.62-.03-.94-.08s-.65-.13-.98-.23v-.99c.29.16.6.28.91.36s.64.12.99.12c.56,0,1.01-.15,1.34-.44s.49-.7.49-1.21-.16-.91-.49-1.21-.77-.44-1.34-.44c-.26,0-.53.03-.79.09s-.53.15-.8.27v-3.66Z"/><g class="cj"><line class="ee" x1="50.14" y1="31.79" x2="273.34" y2="31.79"/></g><line class="br" x1="50.14" y1="31.79" x2="46.64" y2="31.79"/><path d="m24.05,28.16c.82,0,1.44.32,1.87.97.43.65.65,1.58.65,2.82s-.22,2.16-.65,2.81c-.43.65-1.06.97-1.87.97s-1.44-.32-1.87-.97c-.43-.65-.65-1.58-.65-2.81s.22-2.17.65-2.82c.43-.65,1.06-.97,1.87-.97Zm0,.78c-.51,0-.89.25-1.15.75-.26.5-.38,1.25-.38,2.25s.13,1.75.38,2.25c.26.5.64.75,1.15.75s.89-.25,1.15-.75c.26-.5.38-1.25.38-2.25s-.13-1.75-.38-2.25c-.26-.5-.64-.75-1.15-.75Z"/><path d="m28.3,34.34h1.03v1.24h-1.03v-1.24Z"/><path d="m31.51,35.43v-.9c.25.12.5.21.75.27s.5.09.75.09c.65,0,1.15-.22,1.49-.66.34-.44.54-1.1.59-1.99-.19.28-.43.5-.72.64s-.61.22-.96.22c-.73,0-1.31-.22-1.73-.66-.42-.44-.64-1.04-.64-1.81s.22-1.35.66-1.8,1.03-.68,1.77-.68c.84,0,1.49.32,1.93.97.44.65.67,1.58.67,2.82,0,1.15-.27,2.07-.82,2.75-.55.69-1.28,1.03-2.2,1.03-.25,0-.5-.02-.75-.07s-.52-.12-.79-.22Zm1.96-3.09c.44,0,.79-.15,1.05-.45s.39-.72.39-1.25-.13-.94-.39-1.24c-.26-.3-.61-.46-1.05-.46s-.79.15-1.05.46c-.26.3-.39.72-.39,1.24s.13.94.39,1.25.61.45,1.05.45Z"/><path d="m39.95,28.16c.82,0,1.44.32,1.87.97.43.65.65,1.58.65,2.82s-.22,2.16-.65,2.81c-.43.65-1.06.97-1.87.97s-1.44-.32-1.87-.97c-.43-.65-.65-1.58-.65-2.81s.22-2.17.65-2.82c.43-.65,1.06-.97,1.87-.97Zm0,.78c-.51,0-.89.25-1.15.75-.26.5-.38,1.25-.38,2.25s.13,1.75.38,2.25c.26.5.64.75,1.15.75s.89-.25,1.15-.75c.26-.5.38-1.25.38-2.25s-.13-1.75-.38-2.25c-.26-.5-.64-.75-1.15-.75Z"/><g class="bo"><line class="ee" x1="50.14" y1="11" x2="273.34" y2="11"/></g><line class="br" x1="50.14" y1="11" x2="46.64" y2="11"/><path d="m24.05,7.37c.82,0,1.44.32,1.87.97.43.65.65,1.58.65,2.82s-.22,2.16-.65,2.81c-.43.65-1.06.97-1.87.97s-1.44-.32-1.87-.97c-.43-.65-.65-1.58-.65-2.81s.22-2.17.65-2.82c.43-.65,1.06-.97,1.87-.97Zm0,.78c-.51,0-.89.25-1.15.75-.26.5-.38,1.25-.38,2.25s.13,1.75.38,2.25c.26.5.64.75,1.15.75s.89-.25,1.15-.75c.26-.5.38-1.25.38-2.25s-.13-1.75-.38-2.25c-.26-.5-.64-.75-1.15-.75Z"/><path d="m28.3,13.55h1.03v1.24h-1.03v-1.24Z"/><path d="m31.51,14.64v-.9c.25.12.5.21.75.27s.5.09.75.09c.65,0,1.15-.22,1.49-.66.34-.44.54-1.1.59-1.99-.19.28-.43.5-.72.64s-.61.22-.96.22c-.73,0-1.31-.22-1.73-.66-.42-.44-.64-1.04-.64-1.81s.22-1.35.66-1.8,1.03-.68,1.77-.68c.84,0,1.49.32,1.93.97.44.65.67,1.58.67,2.82,0,1.15-.27,2.07-.82,2.75-.55.69-1.28,1.03-2.2,1.03-.25,0-.5-.02-.75-.07s-.52-.12-.79-.22Zm1.96-3.09c.44,0,.79-.15,1.05-.45s.39-.72.39-1.25-.13-.94-.39-1.24c-.26-.3-.61-.46-1.05-.46s-.79.15-1.05.46c-.26.3-.39.72-.39,1.24s.13.94.39,1.25.61.45,1.05.45Z"/><path d="m37.85,7.5h3.87v.83h-2.97v1.79c.14-.05.29-.08.43-.11.14-.02.29-.04.43-.04.81,0,1.46.22,1.93.67s.71,1.05.71,1.81-.24,1.39-.73,1.83c-.49.43-1.18.65-2.07.65-.31,0-.62-.03-.94-.08s-.65-.13-.98-.23v-.99c.29.16.6.28.91.36s.64.12.99.12c.56,0,1.01-.15,1.34-.44s.49-.7.49-1.21-.16-.91-.49-1.21-.77-.44-1.34-.44c-.26,0-.53.03-.79.09s-.53.15-.8.27v-3.66Z"/><path d="m7.5,138.85v-2.23c0-.82.18-1.43.55-1.85.37-.42.91-.63,1.62-.63s1.26.21,1.63.63c.37.42.55,1.04.55,1.85v1.24h2.93v.99h-7.29Zm.81-.99h2.74v-1.24c0-.46-.12-.81-.36-1.06s-.58-.38-1.02-.38-.77.13-1.01.38-.36.61-.36,1.06v1.24Z"/><path d="m10.17,129.86c-.06.1-.1.21-.13.33-.03.12-.04.25-.04.39,0,.51.17.9.5,1.17.33.27.81.41,1.42.41h2.88v.9h-5.47v-.9h.85c-.33-.19-.58-.43-.74-.74-.16-.3-.24-.67-.24-1.1,0-.06,0-.13.01-.21,0-.07.02-.16.04-.25h.92Z"/><path d="m9.19,127.02c0-.78.25-1.39.76-1.84.51-.45,1.21-.67,2.11-.67s1.6.22,2.11.67c.51.45.76,1.06.76,1.84s-.25,1.4-.76,1.84c-.51.44-1.21.67-2.11.67s-1.6-.22-2.11-.67-.76-1.06-.76-1.84Zm.76,0c0,.48.19.86.56,1.14.38.28.89.42,1.55.42s1.17-.14,1.55-.42c.38-.28.56-.66.56-1.15s-.19-.86-.57-1.14c-.38-.28-.89-.42-1.54-.42s-1.16.14-1.54.42c-.38.28-.57.66-.57,1.14Z"/><path d="m13.97,122.16h2.9v.9h-7.55v-.9h.83c-.33-.19-.57-.43-.72-.72-.16-.29-.24-.63-.24-1.03,0-.66.26-1.2.79-1.62s1.22-.62,2.08-.62,1.55.21,2.08.62.79.96.79,1.62c0,.4-.08.74-.24,1.03-.16.29-.4.53-.72.72Zm-1.91-3.06c-.66,0-1.18.13-1.56.41-.38.27-.56.65-.56,1.12s.19.85.56,1.12c.38.27.89.41,1.56.41s1.18-.14,1.56-.41c.38-.27.56-.65.56-1.12s-.19-.85-.56-1.12c-.38-.27-.89-.41-1.56-.41Z"/><path d="m9.19,114.56c0-.78.25-1.4.76-1.84.51-.45,1.21-.67,2.11-.67s1.6.22,2.11.67c.51.45.76,1.06.76,1.84s-.25,1.4-.76,1.84c-.51.44-1.21.67-2.11.67s-1.6-.22-2.11-.67-.76-1.06-.76-1.84Zm.76,0c0,.48.19.86.56,1.14.38.28.89.42,1.55.42s1.17-.14,1.55-.42c.38-.28.56-.66.56-1.14s-.19-.86-.57-1.14c-.38-.28-.89-.42-1.54-.42s-1.16.14-1.54.42c-.38.28-.57.66-.57,1.14Z"/><path d="m10.17,107.39c-.06.1-.1.21-.13.33-.03.12-.04.25-.04.39,0,.51.17.9.5,1.17.33.27.81.41,1.42.41h2.88v.9h-5.47v-.9h.85c-.33-.19-.58-.43-.74-.74-.16-.3-.24-.67-.24-1.1,0-.06,0-.13.01-.21,0-.07.02-.16.04-.25h.92Z"/><path d="m7.77,105.56h1.55v-1.85h.7v1.85h2.97c.45,0,.73-.06.86-.18s.19-.37.19-.74v-.92h.75v.92c0,.69-.13,1.17-.39,1.44-.26.26-.73.4-1.41.4h-2.97v.66h-.7v-.66h-1.55v-.9Z"/><path d="m7.2,102.53v-.9h1.14v.9h-1.14Zm2.13,0v-.9h5.47v.9h-5.47Z"/><path d="m9.19,97.63c0-.78.25-1.4.76-1.84s1.21-.67,2.11-.67,1.6.22,2.11.67c.51.45.76,1.06.76,1.84s-.25,1.4-.76,1.84c-.51.44-1.21.67-2.11.67s-1.6-.22-2.11-.67-.76-1.06-.76-1.84Zm.76,0c0,.48.19.86.56,1.14.38.28.89.42,1.55.42s1.17-.14,1.55-.42c.38-.28.56-.66.56-1.15s-.19-.86-.57-1.14-.89-.42-1.54-.42-1.16.14-1.54.42c-.38.28-.57.66-.57,1.14Z"/><path d="m11.49,89.08h3.3v.9h-3.27c-.52,0-.91.1-1.16.3s-.39.5-.39.91c0,.48.15.87.46,1.15s.73.42,1.26.42h3.09v.9h-5.47v-.9h.85c-.33-.21-.57-.47-.74-.76s-.24-.63-.24-1.01c0-.63.19-1.1.58-1.43.39-.32.96-.48,1.72-.48Z"/><path d="m8.07,78.62h1.04c-.31.33-.54.69-.69,1.06s-.23.78-.23,1.2c0,.83.25,1.47.76,1.91.51.44,1.25.66,2.21.66s1.7-.22,2.2-.66c.51-.44.76-1.08.76-1.91,0-.42-.08-.82-.23-1.2s-.38-.73-.69-1.06h1.03c.23.35.41.71.53,1.1s.18.79.18,1.22c0,1.1-.34,1.97-1.01,2.61-.68.63-1.6.95-2.77.95s-2.1-.32-2.77-.95c-.68-.63-1.01-1.5-1.01-2.61,0-.44.06-.85.17-1.23.12-.39.29-.75.52-1.09Z"/><path d="m9.19,75.01c0-.78.25-1.4.76-1.84s1.21-.67,2.11-.67,1.6.22,2.11.67c.51.45.76,1.06.76,1.84s-.25,1.4-.76,1.84c-.51.44-1.21.67-2.11.67s-1.6-.22-2.11-.67-.76-1.06-.76-1.84Zm.76,0c0,.48.19.86.56,1.14.38.28.89.42,1.55.42s1.17-.14,1.55-.42c.38-.28.56-.66.56-1.15s-.19-.86-.57-1.14-.89-.42-1.54-.42-1.16.14-1.54.42c-.38.28-.57.66-.57,1.14Z"/><path d="m10.17,67.84c-.06.1-.1.21-.13.33-.03.12-.04.25-.04.39,0,.51.17.9.5,1.17.33.27.81.41,1.42.41h2.88v.9h-5.47v-.9h.85c-.33-.19-.58-.43-.74-.74-.16-.3-.24-.67-.24-1.1,0-.06,0-.13.01-.21,0-.07.02-.16.04-.25h.92Z"/><path d="m10.17,63.9c-.06.1-.1.21-.13.33-.03.12-.04.25-.04.39,0,.51.17.9.5,1.17.33.27.81.41,1.42.41h2.88v.9h-5.47v-.9h.85c-.33-.19-.58-.43-.74-.74-.16-.3-.24-.67-.24-1.1,0-.06,0-.13.01-.21,0-.07.02-.16.04-.25h.92Z"/><path d="m11.83,58.5h.44v4.13c.62-.04,1.09-.23,1.41-.56.32-.33.49-.8.49-1.39,0-.35-.04-.68-.13-1s-.21-.65-.38-.96h.85c.14.32.24.65.31.99s.11.68.11,1.03c0,.87-.25,1.56-.76,2.07s-1.19.76-2.06.76-1.61-.24-2.13-.73c-.53-.48-.79-1.14-.79-1.96,0-.74.24-1.32.71-1.75.47-.43,1.12-.64,1.93-.64Zm-.26.9c-.49,0-.88.14-1.18.41s-.44.62-.44,1.07c0,.5.14.9.42,1.2s.68.47,1.2.52v-3.2Z"/><path d="m9.54,53.09h.84c-.14.25-.25.51-.32.76-.07.26-.1.51-.1.77,0,.58.18,1.04.55,1.36.37.32.89.48,1.56.48s1.19-.16,1.56-.48c.37-.32.55-.77.55-1.36,0-.26-.04-.52-.1-.77-.07-.26-.18-.51-.32-.76h.83c.12.25.21.51.26.78s.09.55.09.86c0,.82-.26,1.48-.78,1.96s-1.22.73-2.09.73-1.59-.25-2.1-.73-.77-1.16-.77-2.01c0-.28.03-.55.08-.81.06-.26.14-.52.26-.77Z"/><path d="m7.77,50.64h1.55v-1.85h.7v1.85h2.97c.45,0,.73-.06.86-.18s.19-.37.19-.74v-.92h.75v.92c0,.69-.13,1.17-.39,1.44-.26.26-.73.4-1.41.4h-2.97v.66h-.7v-.66h-1.55v-.9Z"/><g class="cz"><g class="bu"><path class="el" d="m137.27,43.45c.8,0,1.56-.32,2.12-.88s.88-1.33.88-2.12-.32-1.56-.88-2.12-1.33-.88-2.12-.88-1.56.32-2.12.88-.88,1.33-.88,2.12.32,1.56.88,2.12,1.33.88,2.12.88Z"/><path class="ct" d="m137.27,43.45c.8,0,1.56-.32,2.12-.88s.88-1.33.88-2.12-.32-1.56-.88-2.12-1.33-.88-2.12-.88-1.56.32-2.12.88-.88,1.33-.88,2.12.32,1.56.88,2.12,1.33.88,2.12.88Z"/></g><g class="dw"><path class="el" d="m203.72,63.66c.8,0,1.56-.32,2.12-.88s.88-1.33.88-2.12-.32-1.56-.88-2.12-1.33-.88-2.12-.88-1.56.32-2.12.88-.88,1.33-.88,2.12.32,1.56.88,2.12,1.33.88,2.12.88Z"/><path class="ct" d="m203.72,63.66c.8,0,1.56-.32,2.12-.88s.88-1.33.88-2.12-.32-1.56-.88-2.12-1.33-.88-2.12-.88-1.56.32-2.12.88-.88,1.33-.88,2.12.32,1.56.88,2.12,1.33.88,2.12.88Z"/></g><g class="dj"><path class="el" d="m197.19,63.11c.8,0,1.56-.32,2.12-.88s.88-1.33.88-2.12-.32-1.56-.88-2.12-1.33-.88-2.12-.88-1.56.32-2.12.88-.88,1.33-.88,2.12.32,1.56.88,2.12,1.33.88,2.12.88Z"/><path class="ct" d="m197.19,63.11c.8,0,1.56-.32,2.12-.88s.88-1.33.88-2.12-.32-1.56-.88-2.12-1.33-.88-2.12-.88-1.56.32-2.12.88-.88,1.33-.88,2.12.32,1.56.88,2.12,1.33.88,2.12.88Z"/></g><g class="ea"><path class="el" d="m79.15,54.65c.8,0,1.56-.32,2.12-.88.56-.56.88-1.33.88-2.12s-.32-1.56-.88-2.12c-.56-.56-1.33-.88-2.12-.88s-1.56.32-2.12.88c-.56.56-.88,1.33-.88,2.12s.32,1.56.88,2.12c.56.56,1.33.88,2.12.88Z"/><path class="ct" d="m79.15,54.65c.8,0,1.56-.32,2.12-.88.56-.56.88-1.33.88-2.12s-.32-1.56-.88-2.12c-.56-.56-1.33-.88-2.12-.88s-1.56.32-2.12.88c-.56.56-.88,1.33-.88,2.12s.32,1.56.88,2.12c.56.56,1.33.88,2.12.88Z"/></g><g class="ce"><path class="el" d="m181.48,43.15c.8,0,1.56-.32,2.12-.88s.88-1.33.88-2.12-.32-1.56-.88-2.12-1.33-.88-2.12-.88-1.56.32-2.12.88-.88,1.33-.88,2.12.32,1.56.88,2.12,1.33.88,2.12.88Z"/><path class="ct" d="m181.48,43.15c.8,0,1.56-.32,2.12-.88s.88-1.33.88-2.12-.32-1.56-.88-2.12-1.33-.88-2.12-.88-1.56.32-2.12.88-.88,1.33-.88,2.12.32,1.56.88,2.12,1.33.88,2.12.88Z"/></g><g class="dg"><path class="el" d="m244.15,59.37c.8,0,1.56-.32,2.12-.88s.88-1.33.88-2.12-.32-1.56-.88-2.12-1.33-.88-2.12-.88-1.56.32-2.12.88-.88,1.33-.88,2.12.32,1.56.88,2.12,1.33.88,2.12.88Z"/><path class="ct" d="m244.15,59.37c.8,0,1.56-.32,2.12-.88s.88-1.33.88-2.12-.32-1.56-.88-2.12-1.33-.88-2.12-.88-1.56.32-2.12.88-.88,1.33-.88,2.12.32,1.56.88,2.12,1.33.88,2.12.88Z"/></g><g class="bp"><path class="el" d="m186.67,76.53c.8,0,1.56-.32,2.12-.88s.88-1.33.88-2.12-.32-1.56-.88-2.12-1.33-.88-2.12-.88-1.56.32-2.12.88-.88,1.33-.88,2.12.32,1.56.88,2.12,1.33.88,2.12.88Z"/><path class="ct" d="m186.67,76.53c.8,0,1.56-.32,2.12-.88s.88-1.33.88-2.12-.32-1.56-.88-2.12-1.33-.88-2.12-.88-1.56.32-2.12.88-.88,1.33-.88,2.12.32,1.56.88,2.12,1.33.88,2.12.88Z"/></g><g class="bs"><path class="el" d="m115.38,80.99c.8,0,1.56-.32,2.12-.88.56-.56.88-1.33.88-2.12s-.32-1.56-.88-2.12c-.56-.56-1.33-.88-2.12-.88s-1.56.32-2.12.88c-.56.56-.88,1.33-.88,2.12s.32,1.56.88,2.12c.56.56,1.33.88,2.12.88Z"/><path class="ct" d="m115.38,80.99c.8,0,1.56-.32,2.12-.88.56-.56.88-1.33.88-2.12s-.32-1.56-.88-2.12c-.56-.56-1.33-.88-2.12-.88s-1.56.32-2.12.88c-.56.56-.88,1.33-.88,2.12s.32,1.56.88,2.12c.56.56,1.33.88,2.12.88Z"/></g><g class="cy"><path class="el" d="m263.04,84.95c.8,0,1.56-.32,2.12-.88.56-.56.88-1.33.88-2.12s-.32-1.56-.88-2.12c-.56-.56-1.33-.88-2.12-.88s-1.56.32-2.12.88c-.56.56-.88,1.33-.88,2.12s.32,1.56.88,2.12c.56.56,1.33.88,2.12.88Z"/><path class="ct" d="m263.04,84.95c.8,0,1.56-.32,2.12-.88.56-.56.88-1.33.88-2.12s-.32-1.56-.88-2.12c-.56-.56-1.33-.88-2.12-.88s-1.56.32-2.12.88c-.56.56-.88,1.33-.88,2.12s.32,1.56.88,2.12c.56.56,1.33.88,2.12.88Z"/></g></g><g class="dy"><g class="da"><path class="ek" d="m137.27,123.64c.8,0,1.56-.32,2.12-.88.56-.56.88-1.33.88-2.12s-.32-1.56-.88-2.12c-.56-.56-1.33-.88-2.12-.88s-1.56.32-2.12.88c-.56.56-.88,1.33-.88,2.12s.32,1.56.88,2.12c.56.56,1.33.88,2.12.88Z"/><path class="do" d="m137.27,123.64c.8,0,1.56-.32,2.12-.88.56-.56.88-1.33.88-2.12s-.32-1.56-.88-2.12c-.56-.56-1.33-.88-2.12-.88s-1.56.32-2.12.88c-.56.56-.88,1.33-.88,2.12s.32,1.56.88,2.12c.56.56,1.33.88,2.12.88Z"/></g><g class="cm"><path class="ek" d="m203.72,142.86c.8,0,1.56-.32,2.12-.88.56-.56.88-1.33.88-2.12s-.32-1.56-.88-2.12c-.56-.56-1.33-.88-2.12-.88s-1.56.32-2.12.88c-.56.56-.88,1.33-.88,2.12s.32,1.56.88,2.12c.56.56,1.33.88,2.12.88Z"/><path class="do" d="m203.72,142.86c.8,0,1.56-.32,2.12-.88.56-.56.88-1.33.88-2.12s-.32-1.56-.88-2.12c-.56-.56-1.33-.88-2.12-.88s-1.56.32-2.12.88c-.56.56-.88,1.33-.88,2.12s.32,1.56.88,2.12c.56.56,1.33.88,2.12.88Z"/></g><g class="dt"><path class="ek" d="m197.19,157.36c.8,0,1.56-.32,2.12-.88.56-.56.88-1.33.88-2.12s-.32-1.56-.88-2.12c-.56-.56-1.33-.88-2.12-.88s-1.56.32-2.12.88c-.56.56-.88,1.33-.88,2.12s.32,1.56.88,2.12c.56.56,1.33.88,2.12.88Z"/><path class="do" d="m197.19,157.36c.8,0,1.56-.32,2.12-.88.56-.56.88-1.33.88-2.12s-.32-1.56-.88-2.12c-.56-.56-1.33-.88-2.12-.88s-1.56.32-2.12.88c-.56.56-.88,1.33-.88,2.12s.32,1.56.88,2.12c.56.56,1.33.88,2.12.88Z"/></g><g class="bz"><path class="ek" d="m79.15,115.77c.8,0,1.56-.32,2.12-.88.56-.56.88-1.33.88-2.12s-.32-1.56-.88-2.12c-.56-.56-1.33-.88-2.12-.88s-1.56.32-2.12.88c-.56.56-.88,1.33-.88,2.12s.32,1.56.88,2.12c.56.56,1.33.88,2.12.88Z"/><path class="do" d="m79.15,115.77c.8,0,1.56-.32,2.12-.88.56-.56.88-1.33.88-2.12s-.32-1.56-.88-2.12c-.56-.56-1.33-.88-2.12-.88s-1.56.32-2.12.88c-.56.56-.88,1.33-.88,2.12s.32,1.56.88,2.12c.56.56,1.33.88,2.12.88Z"/></g><g class="di"><path class="ek" d="m181.48,161.31c.8,0,1.56-.32,2.12-.88.56-.56.88-1.33.88-2.12s-.32-1.56-.88-2.12c-.56-.56-1.33-.88-2.12-.88s-1.56.32-2.12.88c-.56.56-.88,1.33-.88,2.12s.32,1.56.88,2.12c.56.56,1.33.88,2.12.88Z"/><path class="do" d="m181.48,161.31c.8,0,1.56-.32,2.12-.88.56-.56.88-1.33.88-2.12s-.32-1.56-.88-2.12c-.56-.56-1.33-.88-2.12-.88s-1.56.32-2.12.88c-.56.56-.88,1.33-.88,2.12s.32,1.56.88,2.12c.56.56,1.33.88,2.12.88Z"/></g><g class="dz"><path class="ek" d="m244.15,143.03c.8,0,1.56-.32,2.12-.88.56-.56.88-1.33.88-2.12s-.32-1.56-.88-2.12c-.56-.56-1.33-.88-2.12-.88s-1.56.32-2.12.88c-.56.56-.88,1.33-.88,2.12s.32,1.56.88,2.12c.56.56,1.33.88,2.12.88Z"/><path class="do" d="m244.15,143.03c.8,0,1.56-.32,2.12-.88.56-.56.88-1.33.88-2.12s-.32-1.56-.88-2.12c-.56-.56-1.33-.88-2.12-.88s-1.56.32-2.12.88c-.56.56-.88,1.33-.88,2.12s.32,1.56.88,2.12c.56.56,1.33.88,2.12.88Z"/></g><g class="ei"><path class="ek" d="m263.04,159.53c.8,0,1.56-.32,2.12-.88.56-.56.88-1.33.88-2.12s-.32-1.56-.88-2.12c-.56-.56-1.33-.88-2.12-.88s-1.56.32-2.12.88c-.56.56-.88,1.33-.88,2.12s.32,1.56.88,2.12c.56.56,1.33.88,2.12.88Z"/><path class="do" d="m263.04,159.53c.8,0,1.56-.32,2.12-.88.56-.56.88-1.33.88-2.12s-.32-1.56-.88-2.12c-.56-.56-1.33-.88-2.12-.88s-1.56.32-2.12.88c-.56.56-.88,1.33-.88,2.12s.32,1.56.88,2.12c.56.56,1.33.88,2.12.88Z"/></g></g><g class="dn"><line class="ci" x1="137.27" y1="51.97" x2="137.27" y2="31.92"/><line class="ci" x1="203.72" y1="71.39" x2="203.72" y2="51.75"/><line class="ci" x1="197.19" y1="69.84" x2="197.19" y2="51.92"/><line class="ci" x1="79.15" y1="63.65" x2="79.15" y2="41.95"/><line class="ci" x1="181.48" y1="51.11" x2="181.48" y2="31.93"/><line class="ci" x1="244.15" y1="69.04" x2="244.15" y2="46.64"/><line class="ci" x1="186.67" y1="86.4" x2="186.67" y2="62.15"/><line class="ci" x1="115.38" y1="93.5" x2="115.38" y2="64.46"/><line class="ci" x1="263.04" y1="93.04" x2="263.04" y2="71.39"/></g><g class="dl"><g class="bw"><line class="ct" x1="142.27" y1="51.97" x2="132.27" y2="51.97"/></g><g class="dk"><line class="ct" x1="208.72" y1="71.39" x2="198.72" y2="71.39"/></g><g class="cs"><line class="ct" x1="202.19" y1="69.84" x2="192.19" y2="69.84"/></g><g class="ds"><line class="ct" x1="84.15" y1="63.65" x2="74.15" y2="63.65"/></g><g class="ef"><line class="ct" x1="186.48" y1="51.11" x2="176.48" y2="51.11"/></g><g class="co"><line class="ct" x1="249.15" y1="69.04" x2="239.15" y2="69.04"/></g><g class="eb"><line class="ct" x1="191.67" y1="86.4" x2="181.67" y2="86.4"/></g><g class="cg"><line class="ct" x1="120.38" y1="93.5" x2="110.38" y2="93.5"/></g><g class="by"><line class="ct" x1="268.04" y1="93.04" x2="258.04" y2="93.04"/></g></g><g class="cb"><g class="bq"><line class="ct" x1="142.27" y1="31.92" x2="132.27" y2="31.92"/></g><g class="cd"><line class="ct" x1="208.72" y1="51.75" x2="198.72" y2="51.75"/></g><g class="eh"><line class="ct" x1="202.19" y1="51.92" x2="192.19" y2="51.92"/></g><g class="dd"><line class="ct" x1="84.15" y1="41.95" x2="74.15" y2="41.95"/></g><g class="ca"><line class="ct" x1="186.48" y1="31.93" x2="176.48" y2="31.93"/></g><g class="bt"><line class="ct" x1="249.15" y1="46.64" x2="239.15" y2="46.64"/></g><g class="cx"><line class="ct" x1="191.67" y1="62.15" x2="181.67" y2="62.15"/></g><g class="dm"><line class="ct" x1="120.38" y1="64.46" x2="110.38" y2="64.46"/></g><g class="de"><line class="ct" x1="268.04" y1="71.39" x2="258.04" y2="71.39"/></g></g><g class="cf"><line class="bv" x1="137.27" y1="137.05" x2="137.27" y2="105.08"/><line class="bv" x1="203.72" y1="151.25" x2="203.72" y2="128.64"/><line class="bv" x1="197.19" y1="164.82" x2="197.19" y2="144.45"/><line class="bv" x1="79.15" y1="125.62" x2="79.15" y2="101.06"/><line class="bv" x1="181.48" y1="172.26" x2="181.48" y2="144.83"/><line class="bv" x1="244.15" y1="154.71" x2="244.15" y2="126.33"/><line class="bv" x1="263.04" y1="168.9" x2="263.04" y2="143.66"/></g><g class="cv"><g class="cc"><line class="do" x1="142.27" y1="137.05" x2="132.27" y2="137.05"/></g><g class="df"><line class="do" x1="208.72" y1="151.25" x2="198.72" y2="151.25"/></g><g class="cn"><line class="do" x1="202.19" y1="164.82" x2="192.19" y2="164.82"/></g><g class="dv"><line class="do" x1="84.15" y1="125.62" x2="74.15" y2="125.62"/></g><g class="du"><line class="do" x1="186.48" y1="172.26" x2="176.48" y2="172.26"/></g><g class="cu"><line class="do" x1="249.15" y1="154.71" x2="239.15" y2="154.71"/></g><g class="cq"><line class="do" x1="268.04" y1="168.9" x2="258.04" y2="168.9"/></g></g><g class="cp"><g class="dx"><line class="do" x1="142.27" y1="105.08" x2="132.27" y2="105.08"/></g><g class="ch"><line class="do" x1="208.72" y1="128.64" x2="198.72" y2="128.64"/></g><g class="cr"><line class="do" x1="202.19" y1="144.45" x2="192.19" y2="144.45"/></g><g class="ed"><line class="do" x1="84.15" y1="101.06" x2="74.15" y2="101.06"/></g><g class="cw"><line class="do" x1="186.48" y1="144.83" x2="176.48" y2="144.83"/></g><g class="dc"><line class="do" x1="249.15" y1="126.33" x2="239.15" y2="126.33"/></g><g class="eg"><line class="do" x1="268.04" y1="143.66" x2="258.04" y2="143.66"/></g></g><line class="dp" x1="50.14" y1="177.32" x2="50.14" y2="11"/><line class="dp" x1="58.72" y1="177.32" x2="273.34" y2="177.32"/><path class="el" d="m91.68,24.94c.8,0,1.56-.32,2.12-.88.56-.56.88-1.33.88-2.12s-.32-1.56-.88-2.12c-.56-.56-1.33-.88-2.12-.88s-1.56.32-2.12.88c-.56.56-.88,1.33-.88,2.12s.32,1.56.88,2.12c.56.56,1.33.88,2.12.88Z"/><path class="ct" d="m91.68,24.94c.8,0,1.56-.32,2.12-.88.56-.56.88-1.33.88-2.12s-.32-1.56-.88-2.12c-.56-.56-1.33-.88-2.12-.88s-1.56.32-2.12.88c-.56.56-.88,1.33-.88,2.12s.32,1.56.88,2.12c.56.56,1.33.88,2.12.88Z"/><path d="m110.66,17.28h1.33l3.23,6.1v-6.1h.96v7.29h-1.33l-3.23-6.1v6.1h-.96v-7.29Z"/><path d="m122.38,21.45v3.12h-.9v-.83c-.21.33-.46.58-.77.73-.31.16-.68.24-1.12.24-.56,0-1-.16-1.34-.47-.33-.31-.5-.73-.5-1.26,0-.62.21-1.08.62-1.39s1.03-.47,1.84-.47h1.26v-.09c0-.41-.14-.73-.41-.96-.27-.23-.65-.34-1.15-.34-.31,0-.62.04-.91.11s-.58.19-.85.34v-.83c.33-.13.65-.22.96-.29.31-.06.61-.09.9-.09.79,0,1.38.21,1.77.62s.59,1.03.59,1.87Zm-1.79.37c-.73,0-1.23.08-1.51.25s-.42.45-.42.85c0,.32.1.57.31.76.21.19.5.28.86.28.5,0,.9-.18,1.2-.53.3-.35.45-.82.45-1.41v-.2h-.89Z"/><path d="m125.11,17.54v1.55h1.85v.7h-1.85v2.97c0,.45.06.73.18.86s.37.19.74.19h.92v.75h-.92c-.69,0-1.17-.13-1.44-.39-.26-.26-.4-.73-.4-1.41v-2.97h-.66v-.7h.66v-1.55h.9Z"/><path d="m128.05,22.41v-3.31h.9v3.28c0,.52.1.91.3,1.17.2.26.5.39.91.39.48,0,.87-.15,1.15-.46s.42-.73.42-1.26v-3.1h.9v5.47h-.9v-.84c-.22.33-.47.58-.76.74-.29.16-.62.24-1,.24-.63,0-1.1-.2-1.43-.59s-.49-.96-.49-1.71Z"/><path d="m137.65,19.94c-.1-.06-.21-.1-.33-.13-.12-.03-.25-.04-.39-.04-.51,0-.9.17-1.17.5-.27.33-.41.81-.41,1.42v2.88h-.9v-5.47h.9v.85c.19-.33.43-.58.74-.74.3-.16.67-.24,1.1-.24.06,0,.13,0,.21.01.07,0,.16.02.25.04v.92Z"/><path d="m142.87,21.45v3.12h-.9v-.83c-.21.33-.46.58-.77.73-.31.16-.68.24-1.12.24-.56,0-1-.16-1.34-.47-.33-.31-.5-.73-.5-1.26,0-.62.21-1.08.62-1.39s1.03-.47,1.84-.47h1.26v-.09c0-.41-.14-.73-.41-.96-.27-.23-.65-.34-1.15-.34-.31,0-.62.04-.91.11s-.58.19-.85.34v-.83c.33-.13.65-.22.96-.29.31-.06.61-.09.9-.09.79,0,1.38.21,1.77.62s.59,1.03.59,1.87Zm-1.79.37c-.73,0-1.23.08-1.51.25s-.42.45-.42.85c0,.32.1.57.31.76.21.19.5.28.86.28.5,0,.9-.18,1.2-.53.3-.35.45-.82.45-1.41v-.2h-.89Z"/><path d="m144.72,16.97h.9v7.6h-.9v-7.6Z"/><path class="ek" d="m176.57,24.94c.8,0,1.56-.32,2.12-.88.56-.56.88-1.33.88-2.12s-.32-1.56-.88-2.12c-.56-.56-1.33-.88-2.12-.88s-1.56.32-2.12.88-.88,1.33-.88,2.12.32,1.56.88,2.12c.56.56,1.33.88,2.12.88Z"/><path class="do" d="m176.57,24.94c.8,0,1.56-.32,2.12-.88.56-.56.88-1.33.88-2.12s-.32-1.56-.88-2.12c-.56-.56-1.33-.88-2.12-.88s-1.56.32-2.12.88-.88,1.33-.88,2.12.32,1.56.88,2.12c.56.56,1.33.88,2.12.88Z"/><path d="m199.92,17.51v.96c-.37-.18-.73-.31-1.06-.4s-.65-.13-.96-.13c-.54,0-.95.1-1.24.31-.29.21-.44.5-.44.89,0,.32.1.57.29.73.19.16.56.3,1.1.4l.6.12c.74.14,1.28.39,1.63.74.35.35.52.83.52,1.42,0,.71-.24,1.24-.71,1.61s-1.17.55-2.08.55c-.34,0-.71-.04-1.1-.12-.39-.08-.79-.19-1.21-.35v-1.02c.4.22.79.39,1.18.51.38.11.76.17,1.13.17.56,0,1-.11,1.3-.33.31-.22.46-.54.46-.95,0-.36-.11-.64-.33-.84s-.58-.35-1.08-.45l-.6-.12c-.74-.15-1.27-.38-1.6-.69-.33-.31-.49-.75-.49-1.3,0-.64.23-1.15.68-1.52s1.08-.56,1.88-.56c.34,0,.69.03,1.04.09.36.06.72.15,1.09.28Z"/><path d="m204.13,25.07c-.25.65-.5,1.08-.74,1.27-.24.2-.56.3-.97.3h-.72v-.75h.53c.25,0,.44-.06.58-.18s.29-.39.45-.83l.16-.41-2.21-5.38h.95l1.71,4.28,1.71-4.28h.95l-2.4,5.98Z"/><path d="m212.32,21.26v3.3h-.9v-3.27c0-.52-.1-.91-.3-1.16-.2-.26-.5-.39-.91-.39-.48,0-.87.15-1.15.46-.28.31-.42.73-.42,1.26v3.09h-.9v-5.47h.9v.85c.21-.33.47-.57.76-.74.29-.16.63-.24,1.01-.24.63,0,1.1.19,1.43.58.32.39.48.96.48,1.72Z"/><path d="m215,17.54v1.55h1.85v.7h-1.85v2.97c0,.45.06.73.18.86s.37.19.74.19h.92v.75h-.92c-.69,0-1.17-.13-1.44-.39-.26-.26-.4-.73-.4-1.41v-2.97h-.66v-.7h.66v-1.55h.9Z"/><path d="m222.58,21.26v3.3h-.9v-3.27c0-.52-.1-.91-.3-1.16-.2-.26-.5-.39-.91-.39-.48,0-.87.15-1.15.46-.28.31-.42.73-.42,1.26v3.09h-.9v-7.6h.9v2.98c.21-.33.47-.57.76-.74.29-.16.63-.24,1.01-.24.63,0,1.1.19,1.43.58.32.39.48.96.48,1.72Z"/><path d="m229.05,21.61v.44h-4.13c.04.62.23,1.09.56,1.41.33.32.8.49,1.39.49.35,0,.68-.04,1-.13.32-.08.65-.21.96-.38v.85c-.32.14-.65.24-.99.31-.34.07-.68.11-1.03.11-.87,0-1.56-.25-2.07-.76-.51-.51-.76-1.19-.76-2.06s.24-1.61.73-2.13c.48-.53,1.13-.79,1.96-.79.74,0,1.32.24,1.75.71.43.47.64,1.12.64,1.93Zm-.9-.26c0-.49-.14-.88-.41-1.18s-.62-.44-1.07-.44c-.5,0-.9.14-1.2.42-.3.28-.47.68-.52,1.2h3.2Z"/><path d="m231.41,17.54v1.55h1.85v.7h-1.85v2.97c0,.45.06.73.18.86s.37.19.74.19h.92v.75h-.92c-.69,0-1.17-.13-1.44-.39-.26-.26-.4-.73-.4-1.41v-2.97h-.66v-.7h.66v-1.55h.9Z"/><path d="m234.44,16.97h.9v1.14h-.9v-1.14Zm0,2.13h.9v5.47h-.9v-5.47Z"/><path d="m241.16,19.31v.84c-.25-.14-.51-.25-.76-.32-.26-.07-.51-.1-.77-.1-.58,0-1.04.18-1.36.55-.32.37-.48.89-.48,1.56s.16,1.19.48,1.56c.32.37.78.55,1.36.55.26,0,.52-.04.77-.1.25-.07.51-.18.76-.32v.83c-.25.12-.51.21-.78.26s-.55.09-.86.09c-.82,0-1.48-.26-1.96-.78-.48-.52-.73-1.22-.73-2.09s.25-1.59.74-2.1c.49-.51,1.16-.77,2.01-.77.28,0,.55.03.81.08.26.06.52.14.77.26Z"/></svg>